<?xml version="1.0" encoding="UTF-8"?>
<!DOCTYPE svg PUBLIC "-//W3C//DTD SVG 1.1//EN" "http://www.w3.org/Graphics/SVG/1.1/DTD/svg11.dtd">
<!-- Creator: CorelDRAW X8 -->
<svg xmlns="http://www.w3.org/2000/svg" xml:space="preserve" width="100%" height="100%" version="1.1" style="shape-rendering:geometricPrecision; text-rendering:geometricPrecision; image-rendering:optimizeQuality; fill-rule:evenodd; clip-rule:evenodd"
viewBox="0 0 5018 5187"
 xmlns:xlink="http://www.w3.org/1999/xlink">
 <defs>
  <style type="text/css">
   <![CDATA[
    .str0 {stroke:black;stroke-width:84.66;stroke-linecap:round;stroke-linejoin:round}
    .fil0 {fill:none}
    .fil1 {fill:black;fill-rule:nonzero}
   ]]>
  </style>
 </defs>
 <g id="NumQuote">
  <metadata id="CorelCorpID_0Corel-Layer"/>
  <g id="_761440656">
   <line class="fil0 str0" x1="970" y1="4940" x2="765" y2= "5145" />
   <line class="fil0 str0" x1="4048" y1="4940" x2="4253" y2= "5145" />
   <path class="fil0 str0" d="M765 5145c-463,-463 -723,-1090 -723,-1744 0,-1363 1105,-2467 2467,-2467 1362,0 2466,1104 2466,2467 0,654 -259,1281 -722,1744"/>
   <polygon class="fil1" points="1529,584 1429,584 1279,247 1236,139 1236,411 1236,584 1163,584 1163,44 1261,44 1404,363 1455,487 1455,197 1455,44 1529,44 "/>
   <path id="1" class="fil1" d="M1975 584l-64 0 -3 -67c-12,15 -24,27 -35,36 -11,10 -22,17 -33,23 -11,6 -22,10 -33,12 -11,3 -23,4 -35,4 -43,0 -75,-13 -97,-38 -21,-25 -32,-63 -32,-113l0 -272 72 0 0 266c0,63 24,95 71,95 9,0 18,-1 26,-4 8,-2 17,-7 26,-13 9,-7 19,-16 30,-27 10,-11 22,-25 35,-41l0 -276 72 0 0 415z"/>
   <path id="2" class="fil1" d="M2401 584l0 -298c0,-13 0,-23 -1,-32 -1,-8 -2,-14 -4,-19 -2,-5 -5,-8 -7,-10 -3,-2 -7,-3 -11,-3 -6,0 -10,2 -15,5 -4,3 -9,9 -14,16 -5,7 -10,17 -16,29 -6,13 -13,28 -22,46l0 266 -71 0 0 -290c0,-15 -1,-27 -2,-37 -1,-9 -2,-16 -4,-21 -2,-6 -4,-9 -8,-11 -3,-2 -6,-3 -11,-3 -4,0 -9,1 -13,4 -4,3 -9,8 -14,15 -5,7 -10,17 -16,29 -7,13 -14,28 -23,48l0 266 -71 0 0 -415 59 0 4 79c7,-15 14,-29 21,-40 7,-11 13,-20 21,-27 7,-6 14,-11 22,-14 9,-4 17,-5 27,-5 23,0 40,7 51,22 12,14 17,37 17,68 7,-15 14,-27 20,-39 6,-11 13,-20 20,-28 8,-7 16,-13 25,-17 8,-4 18,-6 30,-6 52,0 78,40 78,120l0 302 -72 0z"/>
   <path id="3" class="fil1" d="M2923 369c0,35 -5,66 -14,93 -10,27 -23,50 -40,69 -18,19 -39,33 -64,43 -25,10 -53,15 -85,15 -24,0 -49,-2 -74,-7 -26,-4 -51,-12 -76,-22l0 -560 72 0 0 161 -4 77c21,-28 43,-48 66,-59 24,-11 49,-17 76,-17 23,0 44,5 62,15 18,10 33,24 45,42 12,18 21,39 27,65 6,25 9,54 9,85zm-73 3c0,-21 -2,-41 -5,-60 -3,-18 -8,-33 -15,-46 -7,-13 -16,-23 -26,-31 -11,-7 -24,-11 -39,-11 -9,0 -18,2 -27,5 -10,3 -19,8 -29,14 -10,7 -21,16 -32,27 -11,11 -23,25 -35,42l0 201c14,6 28,10 42,13 15,3 29,5 42,5 16,0 32,-3 47,-8 15,-5 28,-14 39,-26 12,-13 21,-29 28,-49 6,-20 10,-46 10,-76z"/>
   <path id="4" class="fil1" d="M3382 355c0,10 0,18 0,25 0,7 -1,14 -1,20l-290 0c0,42 11,75 35,98 24,22 58,34 102,34 12,0 24,-1 36,-2 12,-1 24,-2 35,-4 12,-1 22,-3 33,-5 10,-2 19,-5 28,-7l0 59c-19,6 -41,10 -66,14 -24,3 -50,5 -76,5 -36,0 -66,-5 -92,-15 -25,-9 -46,-23 -62,-42 -17,-18 -29,-40 -37,-67 -7,-27 -11,-57 -11,-90 0,-30 4,-57 12,-83 9,-26 21,-49 37,-69 16,-20 35,-35 59,-47 23,-11 50,-17 79,-17 29,0 55,4 77,13 22,9 41,22 56,39 15,17 27,37 35,61 7,23 11,50 11,80zm-74 -10c1,-19 -1,-36 -5,-51 -5,-15 -11,-29 -21,-40 -9,-11 -20,-19 -34,-25 -14,-7 -30,-10 -48,-10 -16,0 -30,3 -43,9 -13,6 -24,15 -33,26 -9,11 -17,24 -23,40 -5,15 -9,32 -10,51l217 0z"/>
   <path id="5" class="fil1" d="M3514 169l65 0 2 77c25,-30 49,-51 72,-64 24,-14 48,-20 72,-20 43,0 75,14 98,41 22,28 32,70 30,125l-72 0c1,-37 -5,-63 -16,-80 -11,-16 -28,-24 -50,-24 -10,0 -19,1 -29,5 -10,3 -20,9 -30,16 -10,8 -21,18 -33,30 -11,11 -24,26 -37,43l0 266 -72 0 0 -415z"/>
   <line class="fil0 str0" x1="2509" y1="934" x2="2509" y2= "1224" />
   <line class="fil0 str0" x1="4773" y1="2463" x2="4505" y2= "2574" />
   <line class="fil0 str0" x1="512" y1="2574" x2="245" y2= "2463" />
   <polygon class="fil1" points="1323,5021 1097,5021 1097,4976 1190,4976 1190,4713 1104,4760 1086,4719 1200,4659 1242,4659 1242,4976 1323,4976 "/>
   <path class="fil1" d="M902 2819l-236 0 0 -43 93 -92c15,-15 27,-28 37,-39 9,-11 17,-21 22,-30 5,-10 9,-18 11,-26 1,-8 2,-17 2,-26 0,-9 -1,-18 -3,-26 -3,-8 -6,-15 -11,-21 -5,-6 -11,-11 -19,-14 -8,-4 -18,-5 -29,-5 -15,0 -29,3 -41,10 -12,7 -24,15 -34,26l-27 -31c14,-15 29,-26 47,-35 18,-8 38,-13 62,-13 16,0 30,3 43,7 13,5 25,12 34,21 10,9 17,20 22,33 5,13 8,28 8,44 0,14 -2,27 -5,39 -4,11 -10,23 -17,35 -7,11 -17,24 -28,36 -11,12 -25,26 -40,41l-65 64 174 0 0 45z"/>
   <path class="fil1" d="M2649 1632c0,16 -3,31 -9,45 -7,14 -16,26 -29,36 -13,11 -29,19 -49,25 -19,6 -41,9 -67,9 -15,0 -27,-1 -39,-2 -11,-1 -22,-2 -32,-3l0 -43c12,2 24,3 36,4 13,1 26,2 39,2 18,0 33,-2 46,-5 13,-3 23,-8 31,-14 8,-6 14,-13 18,-22 3,-8 5,-18 5,-29 0,-10 -2,-19 -6,-26 -5,-7 -11,-13 -19,-18 -8,-5 -17,-9 -28,-12 -12,-2 -24,-3 -37,-3l-41 0 0 -40 42 0c11,0 20,-1 29,-4 9,-3 17,-7 23,-12 6,-6 11,-12 15,-20 3,-8 5,-17 5,-26 0,-20 -6,-34 -18,-43 -12,-8 -29,-13 -51,-13 -13,0 -25,1 -38,4 -13,2 -26,6 -41,10l0 -41c6,-3 13,-5 20,-6 7,-2 14,-4 21,-5 7,-1 14,-2 21,-3 7,0 14,-1 20,-1 19,0 36,3 50,7 15,4 27,10 36,17 10,8 17,17 22,28 5,12 8,24 8,38 0,20 -5,38 -16,51 -11,15 -25,26 -43,34 9,1 18,4 27,9 9,4 18,10 25,17 7,7 13,15 17,24 5,9 7,20 7,31z"/>
   <path class="fil1" d="M4390 2739l-62 0 0 80 -49 0 0 -80 -172 0 0 -42 153 -238 68 0 0 238 62 0 0 42zm-111 -234l-124 192 124 0 0 -192z"/>
   <path class="fil1" d="M3943 4900c0,18 -3,35 -11,49 -8,15 -18,28 -32,38 -13,11 -29,19 -47,25 -19,6 -38,9 -60,9 -5,0 -11,0 -17,-1 -6,0 -12,0 -18,-1 -6,0 -12,-1 -18,-1 -5,-1 -11,-2 -15,-2l0 -44c10,3 21,4 34,5 13,1 25,2 38,2 15,0 28,-2 40,-5 12,-4 22,-9 30,-15 8,-7 14,-15 19,-24 4,-9 6,-20 6,-31 0,-23 -8,-39 -24,-49 -16,-10 -39,-15 -69,-15l-68 0 0 -184 193 0 0 41 -148 0 0 101 31 0c18,0 34,2 51,5 16,3 30,9 43,16 13,8 23,19 31,32 8,13 11,30 11,49z"/>
  </g>
 </g>
</svg>
