<?xml version="1.0" encoding="UTF-8"?>
<!DOCTYPE svg PUBLIC "-//W3C//DTD SVG 1.1//EN" "http://www.w3.org/Graphics/SVG/1.1/DTD/svg11.dtd">
<!-- Creator: CorelDRAW X8 -->
<svg xmlns="http://www.w3.org/2000/svg" xml:space="preserve" width="100%" height="100%" version="1.1" style="shape-rendering:geometricPrecision; text-rendering:geometricPrecision; image-rendering:optimizeQuality; fill-rule:evenodd; clip-rule:evenodd"
viewBox="0 0 5018 5187"
 xmlns:xlink="http://www.w3.org/1999/xlink">
 <defs>
  <style type="text/css">
   <![CDATA[
    .str0 {stroke:black;stroke-width:84.66;stroke-linecap:round;stroke-linejoin:round}
    .fil1 {fill:none}
    .fil0 {fill:black;fill-rule:nonzero}
   ]]>
  </style>
 </defs>
 <g id="Scope">
  <metadata id="CorelCorpID_0Corel-Layer"/>
  <g id="_810468240">
   <path class="fil0" d="M780 4045l27 61 -163 184 -54 56 165 -75 105 -47 20 45 -328 148 -27 -60 155 -175 61 -65 -176 79 -93 42 -21 -44 329 -149zm-72 -244l-35 11c18,10 33,22 44,35 10,13 18,28 23,44 4,15 6,29 5,41 0,12 -3,22 -8,31 -5,9 -11,17 -19,23 -9,5 -18,10 -29,13 -27,8 -50,4 -71,-12 -21,-15 -37,-42 -48,-81l-16 -55 -24 7c-16,4 -27,13 -33,26 -7,13 -7,29 -1,50 4,15 10,29 18,43 8,13 17,27 27,41l-41 12c-4,-5 -8,-11 -12,-18 -4,-6 -8,-13 -12,-21 -4,-7 -8,-15 -11,-23 -4,-9 -7,-17 -9,-26 -5,-16 -7,-31 -7,-45 -1,-14 2,-27 6,-37 5,-12 12,-21 22,-29 9,-8 21,-14 36,-18l183 -53 12 41zm-119 40l17 58c3,12 7,21 12,29 4,7 10,13 15,17 6,4 12,7 19,8 7,1 14,0 21,-2 5,-2 10,-4 14,-7 4,-3 8,-7 10,-11 3,-5 4,-10 5,-16 0,-7 0,-14 -3,-22 -3,-11 -10,-22 -20,-34 -10,-11 -25,-23 -43,-34l-47 14zm-182 -161l-3 -44 50 -5c-20,-15 -36,-30 -46,-45 -10,-16 -16,-31 -17,-47 -2,-29 6,-51 23,-68 17,-16 44,-25 81,-26l4 48c-25,1 -42,6 -52,15 -11,8 -15,20 -14,34 0,7 2,13 5,19 2,7 7,13 12,20 6,6 13,13 21,20 9,7 19,15 31,23l177 -14 4 49 -276 21zm-16 -352l4 -44 51 2c-19,-17 -32,-34 -39,-51 -8,-16 -11,-33 -10,-49 2,-29 13,-49 33,-63 19,-13 47,-18 84,-14l-4 48c-24,-2 -42,0 -53,7 -12,7 -18,17 -19,32 -1,6 0,13 2,20 1,6 5,13 9,21 5,7 11,15 18,23 7,8 16,17 27,27l177 13 -4 49 -276 -21zm226 -543c21,5 39,13 55,22 17,10 30,22 40,36 9,14 16,30 19,47 4,18 3,37 -2,57 -4,19 -11,36 -20,50 -10,14 -22,25 -36,33 -14,8 -30,13 -49,15 -18,1 -39,0 -61,-6 -21,-4 -39,-12 -55,-21 -16,-10 -29,-22 -39,-36 -10,-14 -17,-30 -20,-47 -3,-18 -3,-37 2,-57 4,-19 11,-36 21,-50 9,-14 21,-25 35,-33 14,-8 30,-13 49,-15 18,-1 39,0 61,5zm-9 49c-17,-4 -32,-5 -45,-5 -13,1 -25,4 -35,9 -10,5 -18,12 -24,21 -7,8 -11,19 -14,31 -3,14 -3,26 0,37 3,12 9,21 16,30 8,8 18,15 29,21 12,6 24,10 37,13 17,4 32,5 45,5 14,-1 25,-4 35,-9 10,-5 18,-12 25,-20 6,-9 11,-20 13,-32 4,-14 4,-26 0,-37 -3,-12 -8,-21 -16,-30 -8,-8 -17,-15 -29,-21 -11,-6 -24,-10 -37,-13zm29 -431l235 152 -24 53 -122 -12 -29 -5 23 21 88 82 -24 52 -268 -79 20 -43 181 58 39 12 -28 -25 -96 -89 14 -31 130 12 38 4 -33 -20 -163 -99 19 -43z"/>
   <path class="fil0" d="M4642 2979l-352 77 -18 -61 111 -78 36 -24 -46 0 -132 -4 -17 -59 339 -124 13 44 -232 82 -63 23 59 0 141 4 10 33 -124 88 -41 29 48 -13 256 -60 12 43zm-98 233l-6 -81 39 -3 10 129 -236 18 6 82 -40 3 -17 -220 40 -3 7 90 197 -15zm156 5c1,6 0,11 -1,15 -2,5 -4,9 -8,13 -3,3 -7,6 -11,9 -4,2 -9,3 -15,4 -5,0 -10,-1 -14,-2 -5,-2 -9,-4 -13,-7 -4,-3 -7,-7 -9,-12 -2,-4 -4,-9 -4,-14 -1,-5 0,-10 2,-15 1,-5 4,-9 7,-13 3,-3 7,-6 11,-8 5,-3 10,-4 15,-4 5,-1 10,0 15,1 4,2 8,4 12,7 4,3 7,7 9,12 3,4 4,9 4,14zm-250 224c24,2 44,7 62,15 18,7 32,17 44,30 12,13 20,28 25,45 6,17 8,36 6,56 -1,9 -2,17 -4,26 -1,8 -4,16 -7,24l116 9 -3 48 -389 -30 4 -42 52 2c-19,-15 -32,-30 -40,-47 -8,-16 -12,-33 -10,-51 1,-16 5,-29 13,-41 7,-11 17,-20 30,-27 13,-7 27,-12 45,-15 17,-3 36,-3 56,-2zm0 49c-34,-2 -59,1 -76,9 -17,9 -27,22 -28,40 -1,12 4,25 13,39 10,14 25,30 45,46l128 10c5,-8 8,-16 11,-25 2,-10 4,-19 5,-28 2,-26 -5,-47 -21,-63 -16,-16 -41,-25 -77,-28zm-83 532c-7,-2 -12,-4 -17,-5 -4,-2 -8,-3 -12,-5l58 -184c-27,-9 -50,-8 -69,2 -19,11 -33,30 -42,59 -3,7 -5,15 -7,23 -1,8 -3,15 -4,23 -1,7 -2,15 -3,22 -1,7 -1,13 -1,19l-38 -12c0,-13 2,-28 5,-44 2,-17 6,-33 12,-50 7,-23 16,-41 27,-55 11,-15 24,-25 39,-32 15,-7 32,-10 51,-9 18,0 38,4 59,10 19,6 36,14 51,25 14,10 27,23 36,37 9,14 15,30 18,47 3,17 1,35 -5,54 -6,18 -14,33 -24,46 -10,12 -22,21 -36,28 -13,6 -29,9 -45,10 -17,0 -35,-3 -53,-9zm21 -45c11,4 22,6 33,7 11,0 20,-2 29,-5 9,-4 17,-10 24,-17 6,-8 11,-17 15,-29 3,-10 4,-19 3,-29 -1,-9 -5,-18 -10,-26 -5,-8 -12,-16 -21,-22 -8,-7 -18,-13 -30,-17l-43 138z"/>
   <g>
    <path class="fil0" d="M963 1737l313 313 -441 128 128 -441zm162 211c-17,17 -44,17 -60,0 -17,-16 -17,-43 0,-60l60 60zm1384 -658l0 85 0 0 -49 0 -48 2 -49 3 -48 4 -48 6 -47 6 -48 8 -47 9 -47 10 -46 11 -47 12 -45 13 -46 15 -45 15 -45 17 -44 18 -44 18 -44 20 -43 21 -42 22 -42 23 -41 24 -41 25 -40 27 -40 27 -39 28 -38 29 -38 30 -37 31 -36 32 -36 33 -34 34 -60 -60 36 -35 37 -35 38 -33 39 -32 39 -32 40 -30 40 -30 42 -28 42 -27 42 -26 43 -25 44 -24 44 -23 45 -22 46 -21 45 -20 47 -18 46 -17 47 -17 48 -15 48 -14 48 -12 49 -12 49 -10 49 -10 49 -8 50 -6 50 -6 50 -4 51 -3 50 -2 51 -1 0 0zm1444 598l-60 60 -35 -34 -35 -33 -36 -32 -37 -31 -38 -30 -38 -29 -39 -28 -40 -27 -40 -27 -41 -25 -41 -24 -42 -23 -43 -22 -43 -21 -43 -20 -44 -18 -44 -18 -45 -17 -45 -15 -46 -15 -46 -13 -46 -12 -47 -11 -46 -10 -48 -9 -47 -8 -48 -6 -48 -6 -48 -4 -48 -3 -49 -2 -48 0 0 -85 51 1 50 2 51 3 50 4 50 6 49 6 50 8 49 10 49 10 49 12 48 12 48 14 47 15 47 17 47 17 46 18 46 20 46 21 44 22 45 23 43 24 43 25 43 26 42 27 41 28 41 30 40 30 39 32 39 32 38 33 37 35 36 35zm102 -151l128 441 -441 -128 313 -313zm-102 151c17,17 17,44 0,60 -16,17 -43,17 -60,0l60 -60z"/>
   </g>
   <path class="fil1 str0" d="M765 5145c-463,-463 -723,-1090 -723,-1744 0,-1363 1105,-2467 2467,-2467 1362,0 2466,1104 2466,2467 0,654 -259,1281 -722,1744"/>
   <line class="fil1 str0" x1="4048" y1="4940" x2="4253" y2= "5145" />
   <line class="fil1 str0" x1="970" y1="4940" x2="765" y2= "5145" />
   <path class="fil0" d="M1762 402c0,25 -5,48 -15,67 -11,19 -25,35 -44,48 -19,13 -41,23 -67,29 -26,6 -55,9 -87,9 -14,0 -29,0 -43,-1 -14,-1 -27,-3 -40,-4 -14,-2 -26,-4 -37,-6 -12,-2 -22,-5 -32,-7l0 -71c21,7 44,13 70,18 25,4 55,6 87,6 24,0 44,-2 61,-5 16,-4 30,-10 40,-17 11,-7 19,-16 23,-26 5,-11 8,-23 8,-36 0,-15 -4,-27 -12,-38 -9,-10 -19,-19 -32,-27 -14,-9 -29,-16 -45,-23 -17,-7 -35,-13 -52,-21 -18,-7 -35,-15 -52,-23 -17,-8 -32,-18 -45,-30 -13,-11 -24,-25 -32,-40 -8,-16 -12,-34 -12,-55 0,-19 4,-37 12,-55 7,-18 19,-34 35,-47 17,-14 37,-26 63,-34 25,-9 55,-13 91,-13 9,0 19,0 29,1 11,1 21,2 32,4 11,1 22,3 32,5 11,2 21,4 30,6l0 66c-21,-6 -42,-11 -64,-14 -21,-3 -41,-4 -61,-4 -42,0 -73,7 -93,21 -19,14 -29,33 -29,56 0,15 4,28 12,38 8,11 19,20 32,28 13,8 28,16 45,23 17,7 34,13 52,21 17,7 34,15 51,23 17,9 32,19 45,31 13,11 24,25 32,41 8,15 12,34 12,56z"/>
   <path id="1" class="fil0" d="M2202 533c-19,7 -38,12 -57,16 -20,3 -40,5 -61,5 -65,0 -116,-18 -151,-54 -35,-35 -53,-87 -53,-156 0,-32 5,-62 15,-89 11,-27 25,-49 43,-68 19,-19 41,-34 66,-44 26,-11 54,-16 85,-16 21,0 41,2 60,5 18,3 36,8 53,14l0 69c-18,-9 -36,-16 -54,-21 -19,-4 -38,-6 -58,-6 -18,0 -35,3 -52,11 -16,7 -31,17 -43,30 -12,13 -22,29 -29,48 -7,19 -11,41 -11,65 0,50 12,88 37,113 24,25 58,37 101,37 19,0 38,-2 56,-7 18,-4 36,-11 53,-19l0 67z"/>
   <path id="2" class="fil0" d="M2704 337c0,32 -4,62 -13,89 -9,27 -22,50 -39,69 -17,19 -38,34 -62,44 -25,11 -53,16 -84,16 -29,0 -56,-4 -79,-13 -24,-10 -44,-23 -60,-41 -16,-18 -29,-40 -37,-67 -9,-26 -13,-57 -13,-91 0,-32 4,-62 13,-88 9,-27 22,-50 39,-69 17,-19 38,-34 62,-45 25,-10 53,-16 84,-16 29,0 56,5 79,14 24,9 44,23 60,41 16,17 29,40 37,66 9,26 13,57 13,91zm-73 3c0,-25 -3,-48 -8,-67 -6,-19 -14,-35 -24,-48 -11,-13 -24,-22 -38,-29 -16,-6 -32,-10 -50,-10 -22,0 -40,5 -55,13 -16,8 -28,20 -38,34 -10,14 -17,30 -21,49 -5,18 -7,38 -7,58 0,26 3,48 8,68 6,19 14,35 24,48 11,13 23,22 38,29 15,6 32,9 51,9 21,0 39,-4 54,-12 16,-9 28,-20 38,-34 10,-14 17,-30 21,-49 5,-19 7,-38 7,-59z"/>
   <path id="3" class="fil0" d="M3161 333c0,37 -5,69 -15,97 -11,27 -25,50 -43,68 -18,18 -39,32 -64,41 -25,9 -52,14 -80,14 -14,0 -27,-1 -40,-2 -13,-2 -26,-4 -39,-7l0 173 -72 0 0 -584 64 0 4 69c21,-28 43,-48 66,-59 23,-12 49,-18 76,-18 23,0 44,5 62,15 18,10 33,24 45,42 12,18 21,40 27,66 6,25 9,53 9,85zm-73 3c0,-22 -2,-42 -5,-60 -3,-18 -8,-34 -15,-47 -7,-13 -16,-23 -26,-30 -11,-7 -24,-11 -39,-11 -9,0 -18,1 -27,4 -9,3 -19,8 -29,15 -10,7 -21,16 -32,27 -11,11 -23,25 -35,41l0 202c13,5 27,10 41,13 15,3 29,4 43,4 39,0 69,-13 91,-39 22,-26 33,-66 33,-119z"/>
   <path id="4" class="fil0" d="M3620 318c0,10 0,19 0,26 0,7 -1,13 -1,19l-290 0c0,43 11,75 35,98 24,23 58,34 102,34 12,0 24,0 36,-1 12,-1 24,-2 35,-4 12,-2 22,-4 33,-6 10,-2 20,-4 28,-6l0 59c-19,5 -41,10 -66,13 -24,4 -50,5 -76,5 -36,0 -66,-4 -92,-14 -25,-10 -46,-24 -62,-42 -17,-18 -29,-41 -37,-67 -7,-27 -11,-57 -11,-91 0,-29 4,-57 12,-83 9,-26 21,-49 37,-68 16,-20 35,-36 59,-47 23,-12 50,-18 79,-18 29,0 55,5 77,14 22,9 41,22 56,39 15,16 27,36 35,60 7,24 11,51 11,80zm-74 -10c1,-18 -1,-35 -5,-50 -5,-16 -11,-29 -21,-40 -9,-11 -20,-20 -34,-26 -14,-6 -30,-9 -48,-9 -16,0 -30,3 -43,9 -13,6 -24,15 -33,26 -9,11 -17,24 -23,39 -5,16 -9,33 -10,51l217 0z"/>
  </g>
 </g>
</svg>
