<?xml version="1.0" encoding="UTF-8"?>
<!DOCTYPE svg PUBLIC "-//W3C//DTD SVG 1.1//EN" "http://www.w3.org/Graphics/SVG/1.1/DTD/svg11.dtd">
<!-- Creator: CorelDRAW X8 -->
<svg xmlns="http://www.w3.org/2000/svg" xml:space="preserve" width="100%" height="100%" version="1.1" style="shape-rendering:geometricPrecision; text-rendering:geometricPrecision; image-rendering:optimizeQuality; fill-rule:evenodd; clip-rule:evenodd"
viewBox="0 0 6792 5110"
 xmlns:xlink="http://www.w3.org/1999/xlink">
 <defs>
  <style type="text/css">
   <![CDATA[
    .str0 {stroke:#718079;stroke-width:84.66}
    .str1 {stroke:#213430;stroke-width:33.86}
    .fil0 {fill:none}
    .fil3 {fill:black}
    .fil2 {fill:black;fill-rule:nonzero}
    .fil1 {fill:url(#id0);fill-rule:nonzero}
   ]]>
  </style>
  <radialGradient id="id0" gradientUnits="userSpaceOnUse" gradientTransform="matrix(0.756665 0.766467 -1.66468 0.348397 6705 -1047)" cx="4261.13" cy="3404.95" r="1029.76" fx="4261.13" fy="3404.95">
   <stop offset="0" style="stop-opacity:1; stop-color:#718079"/>
   <stop offset="1" style="stop-opacity:1; stop-color:#2A3730"/>
  </radialGradient>
 </defs>
 <g id="Power">
  <metadata id="CorelCorpID_0Corel-Layer"/>
  <g id="_747597360">
   <rect class="fil0 str0" x="42" y="42" width="6707" height="5025" rx="352" ry="400"/>
   <path class="fil1 str1" d="M998 2139l4943 0 0 1783 -5090 0 0 -1783 147 0zm4650 223l-4504 0 0 1337 4504 0 0 -1337z"/>
   <path class="fil2" d="M805 1083c-28,-4 -53,-13 -75,-27 -21,-14 -39,-33 -53,-56 -14,-23 -25,-50 -31,-81 -7,-32 -11,-66 -11,-104 0,-50 6,-92 17,-128 12,-36 27,-65 47,-88 19,-24 42,-41 68,-52 26,-11 53,-17 82,-17 35,0 66,6 91,19 26,12 48,30 65,54 17,24 30,52 39,86 8,33 12,71 12,113 0,44 -5,83 -14,116 -9,33 -22,61 -39,84 -16,24 -35,42 -57,55 -22,13 -46,22 -72,26 4,24 14,44 29,58 16,15 37,22 65,22 13,0 26,-2 39,-6 13,-5 26,-12 39,-22l33 50c-18,15 -37,26 -56,32 -20,7 -40,10 -60,10 -22,0 -43,-3 -61,-9 -19,-6 -35,-15 -49,-27 -13,-12 -25,-27 -33,-45 -8,-18 -13,-39 -15,-63zm175 -273c0,-32 -3,-61 -8,-87 -5,-27 -12,-49 -23,-68 -11,-19 -25,-33 -42,-44 -17,-10 -38,-16 -62,-16 -23,0 -43,6 -60,17 -17,11 -30,26 -41,45 -11,19 -19,41 -24,66 -6,25 -8,52 -8,80 0,33 2,63 7,89 5,27 13,50 24,69 10,19 24,34 41,44 17,10 37,15 61,15 23,0 44,-5 61,-16 16,-11 30,-26 41,-45 11,-19 19,-42 25,-67 5,-25 8,-53 8,-82z"/>
   <path id="1" class="fil2" d="M1480 1078l-64 0 -3 -67c-12,14 -24,26 -35,36 -12,9 -23,17 -34,23 -11,6 -22,10 -33,12 -11,2 -23,4 -36,4 -43,0 -75,-13 -97,-38 -22,-25 -33,-63 -33,-114l0 -271 73 0 0 265c0,64 24,96 72,96 9,0 17,-2 26,-4 8,-3 17,-7 26,-14 10,-6 20,-15 30,-26 11,-11 23,-25 36,-42l0 -275 72 0 0 415z"/>
   <path id="2" class="fil2" d="M1976 867c0,32 -4,62 -14,89 -9,27 -22,50 -39,69 -17,19 -38,34 -63,45 -24,10 -52,16 -84,16 -30,0 -56,-5 -80,-14 -24,-10 -44,-23 -60,-41 -17,-18 -29,-40 -38,-67 -9,-26 -13,-57 -13,-91 0,-32 4,-62 14,-88 9,-27 22,-50 39,-69 17,-19 38,-34 63,-45 24,-10 52,-16 84,-16 30,0 56,5 80,14 24,10 44,23 60,41 17,18 29,40 38,66 9,27 13,57 13,91zm-74 3c0,-25 -3,-48 -8,-67 -6,-19 -14,-35 -25,-48 -10,-13 -23,-22 -38,-29 -15,-6 -32,-10 -51,-10 -21,0 -40,5 -55,13 -15,8 -28,20 -38,34 -10,14 -17,30 -21,49 -5,18 -7,38 -7,58 0,26 3,48 8,68 6,19 14,35 25,48 10,13 23,22 38,29 15,6 32,10 50,10 22,0 41,-5 56,-13 15,-8 28,-20 38,-34 10,-14 17,-30 21,-49 5,-18 7,-38 7,-59z"/>
   <path id="3" class="fil2" d="M2417 1072c-17,4 -34,7 -51,9 -18,2 -35,3 -53,3 -53,0 -92,-12 -117,-36 -26,-23 -39,-59 -39,-108l0 -217 -116 0 0 -60 116 0 0 -114 73 -19 0 133 187 0 0 60 -187 0 0 211c0,30 8,52 23,67 16,15 40,22 71,22 13,0 27,-1 43,-3 16,-2 32,-5 50,-10l0 62z"/>
   <path id="4" class="fil2" d="M2900 848c0,10 0,19 0,26 0,7 -1,13 -1,19l-293 0c0,43 12,76 36,98 24,23 58,34 103,34 12,0 24,0 36,-1 13,-1 24,-2 36,-4 11,-2 22,-3 32,-6 11,-2 20,-4 29,-6l0 59c-19,5 -42,10 -67,13 -24,4 -50,6 -77,6 -35,0 -66,-5 -92,-15 -26,-10 -47,-24 -63,-42 -17,-18 -29,-41 -37,-67 -8,-27 -12,-57 -12,-91 0,-29 5,-57 13,-83 8,-26 21,-49 37,-68 16,-20 36,-36 60,-47 23,-12 50,-18 80,-18 29,0 54,5 77,14 22,9 41,22 57,39 15,16 27,37 35,60 7,24 11,51 11,80zm-75 -10c1,-18 -1,-35 -5,-50 -4,-16 -11,-29 -20,-40 -10,-11 -21,-19 -35,-26 -14,-6 -30,-9 -48,-9 -16,0 -31,3 -44,9 -13,6 -24,15 -33,26 -10,11 -17,24 -23,39 -6,16 -10,33 -11,51l219 0z"/>
   <path id="5" class="fil2" d="M3835 916c0,26 -5,49 -15,69 -10,20 -24,37 -43,51 -18,14 -41,24 -67,31 -26,7 -55,11 -87,11l-140 0 0 -540 153 0c120,0 179,43 179,131 0,29 -7,54 -21,75 -13,21 -36,37 -67,47 15,3 28,8 41,14 13,7 25,15 35,26 9,10 17,23 23,37 6,14 9,30 9,48zm-94 -237c0,-11 -2,-21 -5,-31 -3,-10 -9,-18 -17,-25 -8,-8 -19,-13 -33,-17 -14,-4 -32,-6 -54,-6l-75 0 0 169 73 0c17,0 32,-2 45,-5 14,-4 26,-10 35,-17 10,-7 18,-17 23,-28 5,-11 8,-24 8,-40zm20 240c0,-14 -3,-26 -9,-37 -6,-12 -14,-21 -25,-28 -11,-8 -25,-14 -41,-18 -16,-4 -34,-6 -54,-6l-75 0 0 186 78 0c42,0 74,-8 95,-23 20,-16 31,-41 31,-74z"/>
   <path id="6" class="fil2" d="M4286 1078l-65 0 -2 -67c-13,14 -24,26 -36,36 -11,9 -22,17 -33,23 -11,6 -22,10 -33,12 -12,2 -23,4 -36,4 -43,0 -75,-13 -97,-38 -22,-25 -33,-63 -33,-114l0 -271 72 0 0 265c0,64 25,96 73,96 8,0 17,-2 26,-4 8,-3 17,-7 26,-14 9,-6 19,-15 30,-26 11,-11 23,-25 36,-42l0 -275 72 0 0 415z"/>
   <path id="7" class="fil2" d="M4755 1072c-17,4 -33,7 -51,9 -17,2 -35,3 -53,3 -52,0 -91,-12 -117,-36 -26,-23 -39,-59 -39,-108l0 -217 -116 0 0 -60 116 0 0 -114 73 -19 0 133 187 0 0 60 -187 0 0 211c0,30 8,52 24,67 15,15 39,22 70,22 13,0 28,-1 43,-3 16,-2 33,-5 50,-10l0 62z"/>
   <path id="8" class="fil2" d="M5222 1072c-16,4 -33,7 -50,9 -18,2 -35,3 -53,3 -53,0 -92,-12 -117,-36 -26,-23 -39,-59 -39,-108l0 -217 -117 0 0 -60 117 0 0 -114 72 -19 0 133 187 0 0 60 -187 0 0 211c0,30 8,52 24,67 16,15 39,22 70,22 14,0 28,-1 44,-3 16,-2 32,-5 49,-10l0 62z"/>
   <path id="9" class="fil2" d="M5717 867c0,32 -4,62 -14,89 -9,27 -22,50 -39,69 -17,19 -38,34 -63,45 -24,10 -52,16 -84,16 -29,0 -56,-5 -80,-14 -24,-10 -44,-23 -60,-41 -17,-18 -29,-40 -38,-67 -9,-26 -13,-57 -13,-91 0,-32 5,-62 14,-88 9,-27 22,-50 39,-69 17,-19 38,-34 63,-45 24,-10 53,-16 84,-16 30,0 56,5 80,14 24,10 44,23 60,41 17,18 29,40 38,66 9,27 13,57 13,91zm-74 3c0,-25 -3,-48 -8,-67 -6,-19 -14,-35 -25,-48 -10,-13 -23,-22 -38,-29 -15,-6 -32,-10 -50,-10 -22,0 -41,5 -56,13 -15,8 -28,20 -38,34 -9,14 -17,30 -21,49 -5,18 -7,38 -7,58 0,26 3,48 8,68 6,19 14,35 25,48 10,13 23,22 38,29 15,6 32,10 51,10 21,0 40,-5 55,-13 15,-8 28,-20 38,-34 10,-14 17,-30 21,-49 5,-18 7,-38 7,-59z"/>
   <path id="10" class="fil2" d="M5822 663l64 0 3 67c12,-14 24,-26 35,-36 12,-9 23,-17 34,-23 11,-6 22,-10 33,-12 11,-2 23,-4 35,-4 43,0 76,13 98,38 22,25 33,63 33,114l0 271 -73 0 0 -265c0,-33 -6,-57 -18,-72 -12,-16 -30,-24 -54,-24 -9,0 -18,1 -26,4 -9,3 -17,7 -26,14 -10,6 -20,15 -30,26 -11,11 -23,25 -36,41l0 276 -72 0 0 -415z"/>
   <rect class="fil3" x="3009" y="1759" width="974" height="127"/>
   <g>
    <rect class="fil3" x="3009" y="4596" width="974" height="127"/>
    <rect class="fil3" x="3147" y="4194" width="698" height="529"/>
   </g>
  </g>
 </g>
</svg>
