<?xml version="1.0" encoding="UTF-8"?>
<!DOCTYPE svg PUBLIC "-//W3C//DTD SVG 1.1//EN" "http://www.w3.org/Graphics/SVG/1.1/DTD/svg11.dtd">
<!-- Creator: CorelDRAW X8 -->
<svg xmlns="http://www.w3.org/2000/svg" xml:space="preserve" width="100%" height="100%" version="1.1" style="shape-rendering:geometricPrecision; text-rendering:geometricPrecision; image-rendering:optimizeQuality; fill-rule:evenodd; clip-rule:evenodd"
viewBox="0 0 7085 5343"
 xmlns:xlink="http://www.w3.org/1999/xlink">
 <defs>
  <style type="text/css">
   <![CDATA[
    .str0 {stroke:#718079;stroke-width:84.66}
    .str1 {stroke:#718079;stroke-width:84.66;stroke-linecap:round;stroke-linejoin:round}
    .fil1 {fill:none}
    .fil2 {fill:black}
    .fil0 {fill:black;fill-rule:nonzero}
   ]]>
  </style>
 </defs>
 <g id="Mode">
  <metadata id="CorelCorpID_0Corel-Layer"/>
  <g id="_747592112">
   <path class="fil0" d="M1717 3156c0,17 -4,32 -11,45 -7,13 -17,23 -29,32 -13,9 -28,15 -45,19 -18,4 -37,7 -58,7 -10,0 -19,-1 -29,-2 -9,0 -18,-1 -27,-2 -9,-1 -17,-3 -25,-4 -8,-2 -15,-3 -21,-5l0 -47c14,5 29,9 47,12 17,3 36,4 58,4 16,0 30,-1 41,-4 11,-2 20,-6 27,-11 7,-4 12,-10 15,-17 4,-7 5,-15 5,-24 0,-10 -2,-18 -8,-25 -5,-7 -12,-13 -21,-19 -9,-5 -19,-10 -30,-15 -12,-4 -23,-9 -35,-14 -12,-4 -23,-9 -35,-15 -11,-6 -21,-12 -30,-20 -9,-8 -16,-17 -21,-27 -6,-10 -8,-22 -8,-36 0,-13 2,-25 7,-37 6,-12 14,-22 24,-32 11,-9 25,-17 42,-22 17,-6 37,-9 61,-9 6,0 13,1 20,1 7,1 14,1 21,2 8,1 15,3 22,4 7,1 13,2 19,4l0 44c-14,-4 -28,-7 -42,-9 -14,-2 -28,-3 -41,-3 -28,0 -49,4 -62,14 -13,9 -20,22 -20,38 0,9 3,18 8,25 6,7 13,13 22,18 8,6 18,11 30,15 11,5 23,10 34,14 12,5 24,10 35,16 11,6 21,12 30,20 9,8 16,17 22,28 5,10 8,23 8,37z"/>
   <path id="1" class="fil0" d="M1890 3016l-81 0 0 -39 130 0 0 236 82 0 0 40 -222 0 0 -40 91 0 0 -197zm17 -155c6,0 11,1 15,3 5,1 9,4 12,8 4,3 6,7 8,12 2,4 3,9 3,14 0,6 -1,10 -3,15 -2,5 -4,9 -8,12 -3,4 -7,6 -12,8 -4,2 -9,3 -15,3 -5,0 -10,-1 -15,-3 -4,-2 -8,-4 -12,-8 -3,-3 -6,-7 -8,-12 -2,-5 -3,-9 -3,-15 0,-5 1,-10 3,-14 2,-5 5,-9 8,-12 4,-4 8,-7 12,-8 5,-2 10,-3 15,-3z"/>
   <path id="2" class="fil0" d="M2304 3253l0 -198c0,-9 0,-16 -1,-21 0,-6 -1,-10 -3,-13 -1,-4 -3,-6 -5,-7 -2,-1 -4,-2 -7,-2 -3,0 -7,1 -10,3 -2,2 -6,6 -9,11 -3,5 -7,11 -11,20 -4,8 -9,18 -14,30l0 177 -48 0 0 -193c0,-10 -1,-18 -1,-24 -1,-7 -2,-12 -3,-15 -1,-3 -3,-6 -5,-7 -2,-1 -5,-2 -8,-2 -3,0 -6,1 -8,3 -3,1 -6,5 -10,10 -3,4 -7,11 -11,19 -4,8 -9,19 -15,32l0 177 -48 0 0 -276 40 0 2 52c5,-10 10,-19 15,-26 4,-8 9,-14 13,-18 5,-5 10,-8 16,-10 5,-2 11,-3 18,-3 15,0 26,5 34,14 8,10 11,25 11,46 5,-10 9,-18 13,-26 5,-7 9,-13 14,-19 5,-5 10,-9 16,-11 6,-3 13,-4 21,-4 35,0 52,27 52,80l0 201 -48 0z"/>
   <path id="3" class="fil0" d="M2653 3110c0,25 -3,46 -10,65 -7,18 -16,33 -29,45 -12,13 -26,22 -43,28 -16,6 -34,9 -53,9 -9,0 -18,-1 -27,-2 -8,-1 -17,-2 -26,-4l0 115 -48 0 0 -389 43 0 3 46c13,-19 28,-32 44,-40 15,-7 32,-11 50,-11 16,0 30,3 42,10 12,6 22,16 30,28 8,12 14,26 18,43 4,17 6,36 6,57zm-49 2c0,-14 -1,-28 -3,-40 -2,-12 -5,-22 -10,-31 -5,-9 -11,-15 -18,-20 -7,-5 -15,-7 -25,-7 -6,0 -12,1 -19,2 -6,2 -12,6 -19,10 -7,5 -14,11 -21,18 -8,7 -16,17 -24,28l0 134c9,4 18,7 28,9 9,2 19,3 28,3 26,0 46,-9 61,-26 15,-18 22,-44 22,-80z"/>
   <polygon id="4" class="fil0" points="2821,2904 2740,2904 2740,2864 2870,2864 2870,3213 2952,3213 2952,3253 2731,3253 2731,3213 2821,3213 "/>
   <path id="5" class="fil0" d="M3271 3100c0,7 0,13 0,17 0,5 -1,9 -1,13l-194 0c0,29 8,51 24,66 15,15 38,22 68,22 8,0 16,0 24,0 8,-1 16,-2 24,-3 7,-1 14,-2 21,-4 7,-1 14,-3 20,-4l0 39c-14,4 -28,7 -45,9 -16,2 -33,4 -51,4 -24,0 -44,-4 -61,-10 -17,-7 -31,-16 -42,-28 -11,-12 -19,-27 -24,-45 -6,-18 -8,-38 -8,-60 0,-20 2,-38 8,-56 6,-17 14,-32 25,-45 10,-13 23,-24 39,-32 16,-7 33,-11 53,-11 20,0 37,3 52,9 14,6 27,15 37,26 10,11 18,24 23,40 6,16 8,34 8,53zm-49 -6c0,-13 -1,-24 -4,-34 -3,-10 -8,-19 -14,-26 -6,-8 -14,-13 -23,-18 -9,-4 -20,-6 -32,-6 -10,0 -20,2 -28,6 -9,4 -17,10 -23,17 -6,8 -11,17 -15,27 -4,10 -6,21 -7,34l146 0z"/>
   <rect class="fil1 str0" x="1173" y="1101" width="4735" height="4200" rx="297" ry="400"/>
   <rect class="fil2" x="1346" y="3701" width="4368" height="600" rx="195" ry="300"/>
   <path class="fil0" d="M4907 3253l-54 0 -24 -78 -151 0 -25 78 -51 0 120 -360 67 0 118 360zm-92 -122l-62 -193 -61 193 123 0z"/>
   <path id="1" class="fil0" d="M4940 3121c0,-24 3,-44 10,-63 6,-18 15,-33 27,-46 12,-13 26,-22 43,-29 16,-6 35,-9 55,-9 9,0 18,0 26,1 9,1 17,3 26,5l0 -116 48 0 0 389 -43 0 -2 -52c-13,20 -28,34 -43,44 -16,9 -33,14 -51,14 -16,0 -30,-4 -42,-10 -12,-7 -22,-16 -30,-28 -8,-12 -14,-27 -18,-44 -4,-17 -6,-35 -6,-56zm49 -3c0,33 5,58 15,75 10,16 24,24 41,24 13,0 25,-5 39,-16 13,-11 28,-27 43,-48l0 -129c-8,-3 -17,-6 -27,-8 -9,-2 -19,-3 -28,-3 -26,0 -46,8 -61,25 -15,17 -22,44 -22,80z"/>
   <polygon id="2" class="fil0" points="5239,2977 5293,2977 5361,3160 5376,3205 5391,3159 5458,2977 5511,2977 5402,3253 5347,3253 "/>
   <path id="3" class="fil0" d="M5684 3167c6,0 12,1 17,3 6,3 11,6 15,10 4,4 7,9 10,15 2,6 3,12 3,18 0,6 -1,12 -3,18 -3,5 -6,10 -10,14 -4,4 -9,8 -15,10 -5,2 -11,4 -17,4 -7,0 -13,-2 -18,-4 -6,-2 -11,-6 -15,-10 -4,-4 -7,-9 -10,-14 -2,-6 -3,-12 -3,-18 0,-6 1,-12 3,-18 3,-6 6,-11 10,-15 4,-4 9,-7 15,-10 5,-2 11,-3 18,-3z"/>
   <polygon class="fil0" points="3090,1960 3019,1960 3008,1622 3003,1493 2978,1568 2899,1784 2848,1784 2773,1577 2748,1493 2746,1628 2736,1960 2667,1960 2694,1419 2780,1419 2853,1623 2876,1692 2899,1623 2975,1419 3064,1419 "/>
   <path id="1" class="fil0" d="M3537 1749c0,32 -5,62 -14,89 -9,27 -22,50 -39,69 -17,19 -38,34 -62,44 -25,11 -53,16 -83,16 -30,0 -57,-4 -80,-14 -24,-9 -44,-22 -60,-40 -16,-18 -29,-40 -37,-67 -9,-26 -13,-57 -13,-91 0,-33 4,-62 13,-89 9,-26 22,-49 39,-68 17,-19 38,-34 62,-45 25,-11 53,-16 84,-16 29,0 56,5 79,14 24,9 44,23 60,40 16,18 29,40 38,67 8,26 13,57 13,91zm-74 3c0,-26 -3,-48 -8,-67 -6,-19 -14,-35 -24,-48 -11,-13 -23,-23 -38,-29 -15,-7 -32,-10 -50,-10 -22,0 -40,4 -55,13 -16,8 -28,19 -38,33 -10,14 -17,31 -21,49 -5,19 -7,39 -7,59 0,26 3,48 8,67 6,20 14,36 24,49 11,12 24,22 38,29 15,6 32,9 51,9 21,0 39,-4 55,-12 15,-9 27,-20 37,-34 10,-14 17,-30 21,-49 5,-19 7,-38 7,-59z"/>
   <path id="2" class="fil0" d="M3619 1761c0,-35 5,-67 15,-94 9,-28 23,-51 41,-70 17,-19 39,-33 64,-43 24,-9 52,-14 83,-14 13,0 26,1 39,2 13,2 25,4 37,8l0 -175 72 0 0 585 -64 0 -2 -79c-20,30 -42,51 -65,65 -24,14 -49,21 -76,21 -24,0 -45,-5 -63,-15 -18,-10 -33,-24 -45,-42 -12,-18 -21,-39 -27,-65 -6,-25 -9,-53 -9,-84zm74 -5c0,50 7,88 22,112 14,25 35,37 62,37 18,0 37,-8 58,-24 20,-16 41,-40 63,-72l0 -193c-11,-6 -24,-10 -39,-13 -14,-3 -28,-4 -42,-4 -39,0 -70,13 -92,38 -21,25 -32,65 -32,119z"/>
   <path id="3" class="fil0" d="M4453 1730c0,10 0,19 0,26 0,6 -1,13 -1,19l-290 0c0,43 11,75 35,98 24,23 58,34 102,34 12,0 24,0 36,-1 13,-1 24,-3 35,-4 12,-2 23,-4 33,-6 10,-2 20,-4 28,-7l0 60c-19,5 -41,10 -66,13 -24,4 -50,5 -76,5 -36,0 -66,-5 -92,-14 -25,-10 -46,-24 -62,-42 -17,-19 -29,-41 -37,-68 -8,-26 -12,-56 -12,-90 0,-29 5,-57 13,-83 8,-26 21,-49 37,-69 16,-19 35,-35 59,-47 23,-11 50,-17 79,-17 29,0 55,5 77,14 22,9 41,22 56,38 15,17 27,37 35,61 7,24 11,51 11,80zm-74 -10c1,-18 -1,-35 -5,-51 -5,-15 -11,-28 -21,-39 -9,-11 -20,-20 -34,-26 -14,-6 -30,-9 -48,-9 -16,0 -30,3 -43,9 -13,6 -24,14 -33,25 -9,11 -17,25 -23,40 -6,16 -9,33 -10,51l217 0z"/>
   <line class="fil1 str1" x1="42" y1="42" x2="7042" y2= "42" />
   <line class="fil1 str1" x1="3541" y1="1101" x2="3541" y2= "42" />
  </g>
 </g>
</svg>
