<?xml version="1.0" encoding="UTF-8"?>
<!DOCTYPE svg PUBLIC "-//W3C//DTD SVG 1.1//EN" "http://www.w3.org/Graphics/SVG/1.1/DTD/svg11.dtd">
<!-- Creator: CorelDRAW X8 -->
<svg xmlns="http://www.w3.org/2000/svg" xml:space="preserve" width="100%" height="100%" version="1.1" style="shape-rendering:geometricPrecision; text-rendering:geometricPrecision; image-rendering:optimizeQuality; fill-rule:evenodd; clip-rule:evenodd"
viewBox="0 0 1611 847"
 xmlns:xlink="http://www.w3.org/1999/xlink">
 <defs>
  <style type="text/css">
   <![CDATA[
    .fil0 {fill:white}
   ]]>
  </style>
 </defs>
 <g id="ticket">
  <metadata id="CorelCorpID_0Corel-Layer"/>
  <path class="fil0" d="M604 397c5,-4 11,-6 16,-9 5,-2 10,-6 15,-9 42,-30 43,-58 59,-87l0 197c-14,-20 -12,-26 -37,-54 -23,-25 -32,-25 -53,-38zm-604 111l0 38c2,4 8,55 10,67 53,234 283,225 303,234l85 0c5,-2 42,-5 51,-6 73,-11 151,-42 199,-94 5,-5 8,-10 13,-16 5,-5 9,-10 12,-16 9,-13 18,-35 21,-39l0 153c28,0 222,2 233,-1l0 -501c1,2 0,0 2,3 0,1 1,3 1,4l13 55c6,21 11,42 16,64l91 369c1,6 -1,4 4,7l201 0 124 -505 1 505 231 1 0 -811 -342 0c-10,39 -19,78 -29,117 -10,39 -20,78 -29,117 -17,73 -37,148 -54,221 -1,5 -1,9 -5,14l-116 -469 -342 0 -1 167c-1,-1 -1,-1 -2,-3l-3 -8c-1,-4 -2,-7 -4,-11 -38,-98 -126,-142 -228,-158 -12,-1 -45,-3 -53,-6l-71 0c-17,7 -202,2 -275,165 -10,21 -31,94 -25,121 72,-1 144,-2 215,0 15,0 11,0 12,-15 10,-98 139,-105 186,-64 18,16 29,48 17,78 -21,51 -110,41 -173,41l0 158c26,0 64,-2 87,1 53,9 86,44 77,99 -13,85 -124,86 -170,52 -34,-26 -48,-67 -48,-127 -10,-3 -207,-1 -235,-1z"/>
 </g>
</svg>
