<?xml version="1.0" encoding="UTF-8"?>
<!DOCTYPE svg PUBLIC "-//W3C//DTD SVG 1.1//EN" "http://www.w3.org/Graphics/SVG/1.1/DTD/svg11.dtd">
<!-- Creator: CorelDRAW X8 -->
<svg xmlns="http://www.w3.org/2000/svg" xml:space="preserve" width="100%" height="100%" version="1.1" style="shape-rendering:geometricPrecision; text-rendering:geometricPrecision; image-rendering:optimizeQuality; fill-rule:evenodd; clip-rule:evenodd"
viewBox="0 0 2425 847"
 xmlns:xlink="http://www.w3.org/1999/xlink">
 <defs>
  <style type="text/css">
   <![CDATA[
    .fil1 {fill:#999999}
    .fil0 {fill:white}
   ]]>
  </style>
 </defs>
 <g id="ticket">
  <metadata id="CorelCorpID_0Corel-Layer"/>
  <g id="_759458656">
   <g>
    <path class="fil0" d="M1704 847l105 0 0 -396 410 0 0 -96 -410 0 0 -223 406 0c3,0 4,-1 4,-3l0 -93 -515 0 0 811z"/>
    <path class="fil0" d="M1085 450l-181 397 111 0 56 -125 121 -272 99 -221c3,3 15,33 17,37 15,36 36,78 51,114l17 38c6,13 11,25 17,38 6,13 11,25 17,38l25 57c3,6 6,12 9,19l67 152c3,6 6,12 9,19l34 76c2,4 3,6 4,9 2,5 3,6 4,11 3,3 4,5 5,10l112 0c-2,-7 -54,-119 -60,-132 -5,-9 -8,-18 -12,-27l-24 -53c-4,-9 -9,-17 -12,-26l-49 -106c-5,-9 -8,-18 -12,-27 -4,-9 -9,-17 -12,-27l-25 -52c-4,-9 -7,-18 -12,-27l-73 -159c-4,-8 -7,-17 -11,-25l-37 -80c-14,-32 -31,-68 -46,-100 -2,-5 0,-3 -3,-6 -1,5 -5,9 -6,14 -9,20 -29,61 -39,84l-71 154c-12,25 -26,60 -38,85 -17,35 -35,77 -52,113z"/>
    <polygon class="fil0" points="2320,847 2425,847 2425,36 2320,36 "/>
   </g>
   <g>
    <path class="fil1" d="M904 847l181 -397 -323 0c-15,0 -22,-6 -37,-14l-230 -109c-8,-4 -16,-8 -23,-12l-81 -38c-11,-6 -143,-69 -150,-71 4,5 55,52 63,61l32 30c10,10 20,22 31,31l94 91c5,5 10,11 15,16 4,3 5,3 9,7 3,3 5,5 7,8l-492 0c4,3 27,8 31,9 11,2 22,5 33,8 21,6 43,11 65,16 22,6 43,11 65,17l470 119c7,2 7,3 12,8 7,7 13,13 21,20l20 20c6,6 14,15 21,20l42 40c15,15 20,21 35,34l47 46c7,7 13,14 20,20l22 20z"/>
    <path class="fil1" d="M1071 722c21,4 42,10 62,15l434 110c-1,-5 -2,-7 -5,-10l-66 -32c-5,-2 -9,-4 -13,-6l-27 -13c-5,-2 -9,-4 -14,-6l-40 -19c-51,-26 -109,-51 -160,-77l-26 -12c-5,-3 -8,-4 -13,-7 -5,-2 -10,-4 -14,-6 -11,-5 -48,-24 -55,-26 2,-5 7,-8 11,-12l72 -68c17,-17 43,-39 61,-57l42 -40c4,-3 5,-1 6,-6l-134 0 -121 272z"/>
    <polygon class="fil1" points="241,206 241,205 240,206 "/>
   </g>
  </g>
 </g>
</svg>
