<?xml version="1.0" encoding="UTF-8"?>
<!DOCTYPE svg PUBLIC "-//W3C//DTD SVG 1.1//EN" "http://www.w3.org/Graphics/SVG/1.1/DTD/svg11.dtd">
<!-- Creator: CorelDRAW X8 -->
<svg xmlns="http://www.w3.org/2000/svg" xml:space="preserve" width="100%" height="100%" version="1.1" style="shape-rendering:geometricPrecision; text-rendering:geometricPrecision; image-rendering:optimizeQuality; fill-rule:evenodd; clip-rule:evenodd"
viewBox="0 0 441 396"
 xmlns:xlink="http://www.w3.org/1999/xlink">
 <defs>
  <style type="text/css">
   <![CDATA[
    .fil0 {fill:#FCFC8D}
    .fil1 {fill:white}
    .fil3 {fill:#9999FF;fill-rule:nonzero}
    .fil2 {fill:white;fill-rule:nonzero}
   ]]>
  </style>
   <mask id="id0">
  <linearGradient id="id1" gradientUnits="userSpaceOnUse" x1="438.671" y1="134.279" x2="275.633" y2="93.8674">
   <stop offset="0" style="stop-opacity:0; stop-color:white"/>
   <stop offset="0.180392" style="stop-opacity:0; stop-color:white"/>
   <stop offset="1" style="stop-opacity:1; stop-color:white"/>
  </linearGradient>
    <rect style="fill:url(#id1)" x="273" y="29" width="168" height="169"/>
   </mask>
 </defs>
 <g id="Layer_x0020_3">
  <metadata id="CorelCorpID_0Corel-Layer"/>
  <polygon class="fil0" style="mask:url(#id0)" points="273,105 441,29 441,199 273,123 "/>
  <g id="_820358736">
   <path class="fil1" d="M110 123c0,-3 -1,-3 2,-3 11,1 27,0 37,0l0 14 -39 0 0 -11zm-23 33l162 0 0 -84 -162 0 0 84z"/>
   <path class="fil1" d="M256 97l0 35 8 4c3,1 5,2 8,4 3,1 6,2 8,4 2,0 7,3 8,4l0 -67c-1,0 -7,3 -8,3 -3,2 -23,12 -24,13z"/>
   <polygon class="fil1" points="63,111 80,111 81,85 63,85 "/>
  </g>
  <path class="fil2" d="M24 396c-7,0 -13,-2 -17,-7 -5,-4 -7,-10 -7,-17 0,-6 2,-12 7,-17 4,-4 10,-6 17,-6 6,0 12,2 17,6 4,5 6,11 6,17 0,7 -2,13 -6,17 -5,5 -11,7 -17,7zm0 -4c5,0 10,-2 14,-6 4,-4 6,-8 6,-14 0,-5 -2,-10 -6,-14 -4,-4 -9,-5 -14,-5 -6,0 -11,1 -14,5 -4,4 -6,9 -6,14 0,6 2,10 6,14 4,4 8,6 14,6z"/>
  <path id="1" class="fil2" d="M26 341l-25 0 0 -4 25 0c10,0 16,-3 17,-11 1,-1 1,-1 1,-2 0,-2 0,-3 -1,-4 -2,-7 -7,-10 -17,-10l-25 0 0 -4 25 0c4,0 6,0 8,0 2,1 4,2 6,3 5,3 7,8 7,14 0,6 -2,11 -6,14 -3,3 -8,4 -15,4z"/>
  <polygon id="2" class="fil2" points="5,302 1,302 1,272 5,272 5,285 47,285 47,289 5,289 "/>
  <path id="3" class="fil2" d="M47 268l-46 0 0 -13c0,-3 0,-6 1,-8 0,-3 2,-6 4,-8 4,-6 10,-9 17,-9 2,0 4,0 6,1 12,3 18,11 18,24l0 13zm-4 -4l0 -8c0,-12 -5,-19 -15,-21 -1,-1 -3,-1 -5,-1 -6,0 -10,2 -14,7 -3,4 -4,9 -4,15l0 8 38 0z"/>
  <path id="4" class="fil2" d="M24 225c-7,0 -13,-2 -17,-7 -5,-4 -7,-10 -7,-17 0,-6 2,-12 7,-17 4,-4 10,-6 17,-6 6,0 12,2 17,6 4,5 6,11 6,17 0,7 -2,13 -6,17 -5,5 -11,7 -17,7zm0 -4c5,0 10,-2 14,-6 4,-4 6,-8 6,-14 0,-5 -2,-10 -6,-14 -4,-3 -9,-5 -14,-5 -6,0 -11,2 -14,5 -4,4 -6,9 -6,14 0,6 2,10 6,14 4,4 8,6 14,6z"/>
  <path id="5" class="fil2" d="M24 172c-7,0 -13,-2 -17,-6 -5,-5 -7,-11 -7,-17 0,-7 2,-13 7,-17 4,-5 10,-7 17,-7 6,0 12,2 17,7 4,4 6,10 6,17 0,6 -2,12 -6,17 -5,4 -11,6 -17,6zm0 -4c5,0 10,-1 14,-5 4,-4 6,-9 6,-14 0,-6 -2,-10 -6,-14 -4,-4 -9,-6 -14,-6 -6,0 -11,2 -14,6 -4,4 -6,8 -6,14 0,5 2,10 6,14 4,4 8,5 14,5z"/>
  <path id="6" class="fil2" d="M47 118l-46 0 0 -11c0,-4 1,-8 2,-11 3,-4 6,-6 10,-6 2,0 3,1 5,1 6,2 9,6 9,12l0 1 18 -15 3 3 -24 20 0 -5 0 -1c-1,-8 -4,-11 -10,-11 -6,0 -9,4 -9,13l0 6 42 0 0 4z"/>
  <polygon class="fil2" points="63,302 63,175 137,175 137,192 83,192 83,229 137,229 137,246 83,246 83,302 "/>
  <polygon id="1" class="fil2" points="147,302 147,175 167,175 167,302 "/>
  <polygon id="2" class="fil2" points="187,302 187,175 207,175 207,284 249,284 249,302 "/>
  <polygon id="3" class="fil2" points="245,302 290,165 337,264 384,165 429,302 408,302 380,215 337,305 294,215 266,302 "/>
  <polygon class="fil2" points="63,393 63,322 104,322 104,332 74,332 74,352 104,352 104,362 74,362 74,393 "/>
  <polygon id="1" class="fil2" points="110,393 110,322 151,322 151,332 121,332 121,352 151,352 151,362 121,362 121,383 152,383 152,393 "/>
  <path id="2" class="fil2" d="M158 372l10 0 1 1c0,3 1,6 4,8 2,1 5,2 8,2 4,0 7,-1 9,-4 2,-1 3,-4 3,-6 0,-6 -3,-10 -9,-12l-6 -2 -4 -1c-4,-1 -8,-3 -10,-6 -3,-3 -4,-6 -4,-11 0,-3 1,-7 3,-10 2,-3 4,-6 7,-8 3,-1 7,-2 11,-2 1,0 2,0 4,0 4,1 8,3 11,6 3,2 5,6 6,10l0 3 -11 0 0 -2c-1,-3 -4,-6 -8,-6 -1,0 -2,0 -2,0 -3,0 -5,0 -7,2 -2,2 -3,4 -3,7 0,4 2,6 6,8l4 1 1 0 6 2 3 1c4,1 7,3 10,7 2,4 3,7 3,12 0,6 -2,11 -7,15 -4,5 -9,7 -16,7 -2,0 -4,-1 -6,-1 -5,-1 -9,-4 -12,-7 -3,-4 -5,-8 -5,-12l0 -2z"/>
  <polygon id="3" class="fil2" points="202,331 202,322 251,322 251,331 232,331 232,393 221,393 221,331 "/>
  <polygon id="4" class="fil2" points="254,393 254,322 265,322 265,393 "/>
  <polygon id="5" class="fil2" points="268,322 280,322 303,373 326,322 338,322 303,396 "/>
  <path id="6" class="fil2" d="M320 393l35 -75 36 75 -12 0 -11 -22 -26 0 -10 22 -12 0zm26 -32l18 0 -9 -20 -9 20z"/>
  <polygon id="7" class="fil2" points="395,393 395,322 406,322 406,383 429,383 429,393 "/>
  <g id="_820373040">
   <path class="fil3" d="M0 62l0 -59 24 0c2,1 4,1 6,3 4,2 6,5 7,9 1,1 1,3 1,4 0,5 -2,9 -6,12 5,3 7,8 7,14 0,1 0,2 0,3 -2,9 -9,14 -21,14l-18 0zm9 -8l9 0c8,0 12,-3 12,-9 0,-6 -4,-9 -13,-9l-5 0 0 -8 6 0c6,0 10,-2 11,-7 0,0 0,-1 0,-2 0,-5 -4,-8 -12,-8l-8 0 0 43zm37 8l0 -59 18 0c12,0 19,5 21,14 0,1 0,3 0,4 0,3 -1,7 -3,10 -2,3 -5,5 -9,5l-1 1 17 22 -7 5 -26 -34 9 0c3,0 6,-1 8,-3 2,-1 3,-3 3,-6 0,-7 -4,-10 -12,-10l-9 0 0 51 -9 0z"/>
   <path class="fil3" d="M246 6l11 0 0 20 16 -20 13 0 -20 26 22 32 -13 0 -18 -26 0 26 -11 0 0 -58zm50 0l11 0 0 47 16 0 0 11 -27 0 0 -58zm32 0l12 0 10 21 11 -21 12 0 -17 33 0 25 -11 0 0 -25 -17 -33zm54 0l11 0 25 38 0 -38 11 0 0 58 -11 0 -25 -38 0 38 -11 0 0 -58z"/>
  </g>
  <g id="_820376848">
   <path class="fil1" d="M130 0c18,0 32,14 32,32 0,18 -14,32 -32,32 -17,0 -31,-14 -31,-32 0,-18 14,-32 31,-32zm0 15c10,0 17,8 17,17 0,9 -7,17 -17,17 -9,0 -17,-8 -17,-17 0,-9 8,-17 17,-17z"/>
   <circle class="fil1" cx="130" cy="32" r="11"/>
  </g>
  <g id="_820375600">
   <path class="fil1" d="M201 0c17,0 31,14 31,32 0,18 -14,32 -31,32 -18,0 -32,-14 -32,-32 0,-18 14,-32 32,-32zm0 15c9,0 17,8 17,17 0,9 -8,17 -17,17 -10,0 -17,-8 -17,-17 0,-9 7,-17 17,-17z"/>
   <circle class="fil1" cx="201" cy="32" r="11"/>
  </g>
 </g>
</svg>
