<?xml version="1.0" encoding="UTF-8"?>
<!DOCTYPE svg PUBLIC "-//W3C//DTD SVG 1.1//EN" "http://www.w3.org/Graphics/SVG/1.1/DTD/svg11.dtd">
<!-- Creator: CorelDRAW X8 -->
<svg xmlns="http://www.w3.org/2000/svg" xml:space="preserve" width="100%" height="100%" version="1.1" style="shape-rendering:geometricPrecision; text-rendering:geometricPrecision; image-rendering:optimizeQuality; fill-rule:evenodd; clip-rule:evenodd"
viewBox="0 0 4051 847"
 xmlns:xlink="http://www.w3.org/1999/xlink">
 <defs>
  <style type="text/css">
   <![CDATA[
    .fil0 {fill:white}
   ]]>
  </style>
 </defs>
 <g id="ticket">
  <metadata id="CorelCorpID_0Corel-Layer"/>
  <g id="_759460000">
   <g>
    <path class="fil0" d="M0 414c0,265 245,432 490,432 121,0 195,0 308,-57 38,-18 52,-27 84,-51 104,-77 70,-65 65,-121 -56,38 -119,144 -279,144 -313,0 -449,-365 -252,-573 67,-70 158,-103 261,-103 71,0 107,29 160,42 -8,34 -157,265 -177,296l249 -140c30,-19 55,-38 89,-46 -8,-96 -239,-237 -431,-237 -162,0 -288,13 -416,117 -75,61 -151,164 -151,297z"/>
    <path class="fil0" d="M3256 271l169 0 0 558c317,0 254,60 254,-288 0,-116 -24,-270 50,-270 41,0 68,26 68,67l0 491 228 0c20,0 26,-6 26,-26l0 -490c0,-104 -34,-169 -144,-169 -27,0 -206,85 -237,101 -6,-70 -62,-101 -135,-101 -24,0 -175,71 -214,90l-51 26c-15,10 -6,3 -14,11z"/>
    <path class="fil0" d="M1708 271l161 0 0 558 254 0 0 -491c0,-86 118,-93 118,-8l0 499 254 0 0 -558c0,-97 -66,-127 -144,-127 -28,0 -198,85 -228,101 -20,-84 -76,-101 -144,-101 -24,0 -108,44 -138,57 -25,10 -121,54 -133,70z"/>
    <path class="fil0" d="M1235 634c0,-163 149,-151 199,-106 54,47 75,208 -98,208 -51,0 -101,-51 -101,-102zm-153 -363l305 0c17,35 40,140 51,186 -108,-57 -87,-60 -212,-60 -119,0 -245,82 -245,237 0,69 37,102 74,138 152,148 420,28 442,-53l17 0c1,44 17,73 25,110l245 0c0,-60 -141,-557 -157,-587 -86,-154 -245,-91 -371,-43 -34,14 -154,45 -174,72z"/>
    <path class="fil0" d="M2884 195c56,0 73,46 84,92 23,89 110,380 110,449 0,24 -42,59 -67,59 -73,0 -80,-65 -95,-125 -19,-75 -121,-376 -98,-430 10,-23 39,-45 66,-45zm-288 270c0,143 26,222 143,314 97,78 250,87 359,35 41,-19 66,-42 97,-72 228,-227 49,-598 -227,-598l-50 0c-159,0 -322,162 -322,321z"/>
   </g>
  </g>
 </g>
</svg>
