<?xml version="1.0" encoding="UTF-8"?>
<!DOCTYPE svg PUBLIC "-//W3C//DTD SVG 1.1//EN" "http://www.w3.org/Graphics/SVG/1.1/DTD/svg11.dtd">
<!-- Creator: CorelDRAW X8 -->
<svg xmlns="http://www.w3.org/2000/svg" xml:space="preserve" width="100%" height="100%" version="1.1" style="shape-rendering:geometricPrecision; text-rendering:geometricPrecision; image-rendering:optimizeQuality; fill-rule:evenodd; clip-rule:evenodd"
viewBox="0 0 331 325"
 xmlns:xlink="http://www.w3.org/1999/xlink">
 <defs>
  <style type="text/css">
   <![CDATA[
    .str0 {stroke:black;stroke-width:2}
    .fil0 {fill:black}
   ]]>
  </style>
 </defs>
 <g id="Layer_x0020_3">
  <metadata id="CorelCorpID_0Corel-Layer"/>
  <path class="fil0 str0" d="M1 1l55 0 0 308 219 0 0 -308 55 0 0 323 -329 0 0 -323zm285 5l19 0c3,0 5,2 5,5l0 7c0,3 -2,5 -5,5l-19 0c-2,0 -5,-2 -5,-5l0 -7c0,-3 3,-5 5,-5zm0 40l19 0c3,0 5,2 5,5l0 7c0,3 -2,6 -5,6l-19 0c-2,0 -5,-3 -5,-6l0 -7c0,-3 3,-5 5,-5zm0 40l19 0c3,0 5,3 5,5l0 8c0,2 -2,5 -5,5l-19 0c-2,0 -5,-3 -5,-5l0 -8c0,-2 3,-5 5,-5zm0 40l19 0c3,0 5,3 5,5l0 8c0,2 -2,5 -5,5l-19 0c-2,0 -5,-3 -5,-5l0 -8c0,-2 3,-5 5,-5zm0 40l19 0c3,0 5,3 5,6l0 7c0,3 -2,5 -5,5l-19 0c-2,0 -5,-2 -5,-5l0 -7c0,-3 3,-6 5,-6zm0 41l19 0c3,0 5,2 5,5l0 7c0,3 -2,5 -5,5l-19 0c-2,0 -5,-2 -5,-5l0 -7c0,-3 3,-5 5,-5zm0 40l19 0c3,0 5,2 5,5l0 7c0,3 -2,5 -5,5l-19 0c-2,0 -5,-2 -5,-5l0 -7c0,-3 3,-5 5,-5zm0 40l19 0c3,0 5,2 5,5l0 7c0,3 -2,5 -5,5l-19 0c-2,0 -5,-2 -5,-5l0 -7c0,-3 3,-5 5,-5zm-260 -281l18 0c3,0 5,2 5,5l0 7c0,3 -2,5 -5,5l-18 0c-3,0 -5,-2 -5,-5l0 -7c0,-3 2,-5 5,-5zm0 40l18 0c3,0 5,2 5,5l0 7c0,3 -2,6 -5,6l-18 0c-3,0 -5,-3 -5,-6l0 -7c0,-3 2,-5 5,-5zm0 40l18 0c3,0 5,3 5,5l0 8c0,2 -2,5 -5,5l-18 0c-3,0 -5,-3 -5,-5l0 -8c0,-2 2,-5 5,-5zm0 40l18 0c3,0 5,3 5,5l0 8c0,2 -2,5 -5,5l-18 0c-3,0 -5,-3 -5,-5l0 -8c0,-2 2,-5 5,-5zm0 40l18 0c3,0 5,3 5,6l0 7c0,3 -2,5 -5,5l-18 0c-3,0 -5,-2 -5,-5l0 -7c0,-3 2,-6 5,-6zm0 41l18 0c3,0 5,2 5,5l0 7c0,3 -2,5 -5,5l-18 0c-3,0 -5,-2 -5,-5l0 -7c0,-3 2,-5 5,-5zm0 40l18 0c3,0 5,2 5,5l0 7c0,3 -2,5 -5,5l-18 0c-3,0 -5,-2 -5,-5l0 -7c0,-3 2,-5 5,-5zm0 40l18 0c3,0 5,2 5,5l0 7c0,3 -2,5 -5,5l-18 0c-3,0 -5,-2 -5,-5l0 -7c0,-3 2,-5 5,-5z"/>
 </g>
</svg>
