<?xml version="1.0" encoding="UTF-8"?>
<!DOCTYPE svg PUBLIC "-//W3C//DTD SVG 1.1//EN" "http://www.w3.org/Graphics/SVG/1.1/DTD/svg11.dtd">
<!-- Creator: CorelDRAW X8 -->
<svg xmlns="http://www.w3.org/2000/svg" xml:space="preserve" width="100%" height="100%" version="1.1" style="shape-rendering:geometricPrecision; text-rendering:geometricPrecision; image-rendering:optimizeQuality; fill-rule:evenodd; clip-rule:evenodd"
viewBox="0 0 2363 1151"
 xmlns:xlink="http://www.w3.org/1999/xlink">
 <defs>
  <style type="text/css">
   <![CDATA[
    .fil0 {fill:white}
   ]]>
  </style>
 </defs>
 <g id="ticket">
  <metadata id="CorelCorpID_0Corel-Layer"/>
  <g id="_759461792">
   <g>
    <path class="fil0" d="M753 150l-61 -142 -127 0 124 298c27,-49 56,-122 87,-159 29,24 63,127 91,157l100 -220c9,-20 37,-60 21,-79 -24,8 -42,88 -59,127 -2,5 -3,6 -5,10 -4,6 -4,6 -8,10 -10,-24 -27,-52 -40,-77 -12,-23 -28,-55 -41,-74l-82 149z"/>
    <path class="fil0" d="M1769 1125c26,-28 61,-92 81,-114 0,0 2,-1 3,-2 0,-2 2,-2 3,-3l35 138 126 0 -86 -287c-19,25 -35,53 -52,78 -9,14 -18,26 -27,39 -9,13 -16,29 -28,37 -22,-26 -37,-53 -57,-79 -19,-27 -32,-50 -52,-75 -16,33 -34,109 -45,147 -10,35 -46,125 -33,144 19,-6 16,-7 20,-31 6,-26 15,-90 32,-108 14,32 59,85 80,116z"/>
    <path class="fil0" d="M1345 724c25,-3 15,-2 29,-62 5,-25 13,-52 19,-74 16,11 29,34 44,54l44 58c19,-18 66,-94 84,-120l37 140 123 0 -81 -285c-25,19 -78,118 -107,152 -4,-2 -3,-1 -8,-6l-104 -147c-6,9 -89,273 -80,290z"/>
    <path class="fil0" d="M11 291c17,-20 0,-85 7,-134l251 140 -3 -281c0,-1 -1,-3 -1,-4 -1,-1 -1,-3 -2,-4 -18,13 -9,93 -9,134 -75,-31 -181,-108 -252,-142 -4,50 2,100 0,150l-2 111c1,23 -4,22 11,30z"/>
    <path class="fil0" d="M1898 24c84,0 157,38 139,123 -7,31 -29,57 -52,69 -44,25 -58,9 -87,-5l0 -156 0 -31zm-126 71l0 194 124 0 1 -60c30,18 57,41 94,56 18,7 31,10 47,1 -1,-1 -3,-3 -4,-2l-18 -10c-37,-13 -29,-6 -69,-31 43,-14 51,-13 79,-42 36,-39 73,-193 -147,-193l-108 0 1 87z"/>
    <path class="fil0" d="M1166 1130l-1 -250c75,-4 142,53 142,126 -1,74 -65,126 -141,124zm-125 14c57,0 156,10 202,-13 116,-57 91,-217 -5,-254 -47,-18 -142,-12 -196,-12l-1 279z"/>
    <path class="fil0" d="M2213 78l-2 -70 -125 0 -1 281 126 0 1 -195 34 -19c40,54 88,209 116,215 8,-21 -34,-80 -47,-107 -20,-38 -36,-75 -54,-113 28,-30 69,-31 87,-61 -23,-10 -49,17 -68,29 -22,14 -45,27 -67,40z"/>
    <path class="fil0" d="M302 65c3,79 -1,147 0,224 51,0 233,8 254,-8 -8,-7 16,-9 -36,-8l-93 1 -2 -174c43,-4 60,0 100,0 23,0 16,2 23,-11 -22,-16 -90,-3 -123,-3l2 -63 88 1c29,0 15,2 22,-10 -22,-13 -196,-6 -235,-6l0 57z"/>
    <path class="fil0" d="M1572 880c21,0 10,2 15,-14l-238 -1 0 279 255 -7c-18,-20 -98,-1 -130,-9l0 -170c25,-7 22,-3 53,-2 80,2 64,2 70,-13 -20,-7 -94,-1 -124,-1l2 -63 97 1z"/>
    <path class="fil0" d="M189 988l56 102 -119 0 63 -102zm-110 160c37,-9 14,-29 43,-41l130 0 21 37 139 0c-15,-50 -142,-244 -159,-295l-14 18c-31,48 -158,262 -160,281z"/>
    <path class="fil0" d="M725 1090c4,-17 51,-92 62,-104 12,29 46,77 53,104l-115 0zm-44 57c15,-3 8,3 19,-15 6,-9 8,-17 11,-25l140 0c10,22 11,34 26,37l133 0c-10,-27 -152,-283 -164,-293l-87 148c-17,29 -87,130 -78,148z"/>
    <path class="fil0" d="M640 503c5,80 0,142 0,217l125 -1 -2 -188c26,0 111,12 123,-8 -16,-12 -96,-5 -122,-5l1 -63 92 2c24,-3 12,2 19,-10 -9,-7 -2,-6 -19,-6l-217 0 0 62z"/>
    <path class="fil0" d="M1582 284c0,-69 -11,-206 2,-267 173,-12 213,259 -2,267zm-22 -278c-193,50 -116,336 74,286 183,-47 117,-335 -74,-286z"/>
    <path class="fil0" d="M1070 719l252 1c-4,-18 12,-17 -57,-14 -24,1 -47,1 -71,1l0 -266 -124 0 0 278z"/>
    <path class="fil0" d="M537 872c40,-3 84,11 108,39 14,18 1,17 24,18 -4,-102 -289,-106 -267,92 20,175 263,160 281,38 -22,10 -14,11 -30,30 -29,36 -67,52 -118,50l2 -267z"/>
    <polygon class="fil0" points="911,720 1018,720 1037,719 1037,443 1018,441 911,441 "/>
    <path class="fil0" d="M1365 110c-13,-9 -30,-36 -40,-50 -51,-68 -21,-52 -187,-52 10,21 126,157 155,203 -12,24 -46,55 -50,80 29,-6 92,-108 111,-137 16,-25 34,-49 50,-71 13,-18 47,-55 46,-77 -26,3 -30,29 -44,49 -10,16 -28,42 -41,55z"/>
    <path class="fil0" d="M2093 1019c12,15 24,35 36,47 -12,29 -44,54 -50,81 28,-5 48,-45 62,-66 21,-31 147,-196 144,-219 -27,4 -40,55 -84,105 -4,-5 -2,-2 -8,-8l-37 -49c-27,-37 -24,-45 -50,-45l-132 1 119 153z"/>
   </g>
  </g>
 </g>
</svg>
