<?xml version="1.0" encoding="UTF-8"?>
<!DOCTYPE svg PUBLIC "-//W3C//DTD SVG 1.1//EN" "http://www.w3.org/Graphics/SVG/1.1/DTD/svg11.dtd">
<!-- Creator: CorelDRAW X8 -->
<svg xmlns="http://www.w3.org/2000/svg" xml:space="preserve" width="100%" height="100%" version="1.1" style="shape-rendering:geometricPrecision; text-rendering:geometricPrecision; image-rendering:optimizeQuality; fill-rule:evenodd; clip-rule:evenodd"
viewBox="0 0 2738 1468"
 xmlns:xlink="http://www.w3.org/1999/xlink">
 <defs>
  <style type="text/css">
   <![CDATA[
    .str1 {stroke:#A30000;stroke-width:20;stroke-dasharray:40.000000 20.000000}
    .str0 {stroke:#A30000;stroke-width:20;stroke-dasharray:40.000000 20.000000}
    .fil3 {fill:none}
    .fil2 {fill:black}
    .fil0 {fill:#FCE772}
    .fil1 {fill:black;fill-rule:nonzero}
    .fil4 {fill:#A30000;fill-rule:nonzero}
   ]]>
  </style>
 </defs>
 <g id="ticket">
  <metadata id="CorelCorpID_0Corel-Layer"/>
  <g id="_764656768">
   <path class="fil0" d="M237 0l2264 0c0,130 107,237 237,237l-21 0 0 42 21 0 0 43 -21 0 0 42 21 0 0 42 -21 0 0 43 21 0 0 42 -21 0 0 42 21 0 0 43 -21 0 0 42 21 0 0 42 -21 0 0 43 21 0 0 42 -21 0 0 42 21 0 0 43 -21 0 0 42 21 0 0 42 -21 0 0 43 21 0 0 42 -21 0 0 42 21 0 0 43 -21 0 0 42 21 0 0 42 -21 0 0 43 21 0 0 20c-130,0 -237,107 -237,237l-2264 0c0,-130 -107,-237 -237,-237l0 -20 21 0 0 -43 -21 0 0 -42 21 0 0 -42 -21 0 0 -43 21 0 0 -42 -21 0 0 -42 21 0 0 -43 -21 0 0 -42 21 0 0 -42 -21 0 0 -43 21 0 0 -42 -21 0 0 -42 21 0 0 -43 -21 0 0 -42 21 0 0 -42 -21 0 0 -43 21 0 0 -42 -21 0 0 -42 21 0 0 -43 -21 0 0 -42 21 0 0 -42 -21 0 0 -43 21 0 0 -42 -21 0c130,0 237,-107 237,-237z"/>
   <path class="fil1" d="M323 88l2102 0 0 10c0,52 21,99 55,133 34,34 81,55 133,55l10 0 0 903 -10 0c-52,0 -99,21 -133,55 -34,34 -55,81 -55,132l0 10 -2112 0 0 -10c0,-51 -21,-98 -55,-132 -34,-34 -81,-55 -132,-55l-10 0 0 -903 10 0c51,0 98,-21 132,-55 34,-34 55,-81 55,-133l0 -10 10 0zm2083 20l-2073 0c-3,53 -25,101 -61,137 -35,35 -83,58 -136,61l0 863c53,3 101,25 136,61 36,35 58,83 61,136l2073 0c2,-53 25,-101 60,-136 36,-36 84,-58 137,-61l0 -863c-53,-3 -101,-26 -137,-61 -35,-36 -58,-84 -60,-137z"/>
   <polygon class="fil2" points="1369,619 1394,701 1474,701 1409,751 1434,833 1369,782 1304,833 1329,751 1264,701 1345,701 "/>
   <polygon class="fil2" points="1074,619 1098,701 1179,701 1114,751 1139,833 1074,782 1009,833 1034,751 969,701 1049,701 "/>
   <polygon class="fil2" points="1665,619 1689,701 1770,701 1705,751 1730,833 1665,782 1600,833 1625,751 1560,701 1640,701 "/>
   <path class="fil1" d="M783 307l-20 19c-13,-14 -28,-21 -45,-21 -14,0 -26,5 -35,14 -10,10 -15,22 -15,36 0,9 2,18 7,26 4,7 10,13 18,18 8,4 16,6 26,6 8,0 15,-1 22,-4 7,-3 14,-9 22,-17l19 20c-11,10 -21,18 -31,22 -9,4 -20,6 -33,6 -22,0 -41,-7 -56,-22 -14,-14 -22,-33 -22,-55 0,-15 4,-28 10,-39 7,-12 16,-21 29,-28 12,-7 25,-10 40,-10 12,0 24,2 35,7 11,6 21,13 29,22z"/>
   <polygon id="1" class="fil1" points="805,281 833,281 833,428 805,428 "/>
   <polygon id="2" class="fil1" points="865,281 891,281 955,378 955,281 983,281 983,428 956,428 893,332 893,428 865,428 "/>
   <polygon id="3" class="fil1" points="1016,281 1097,281 1097,309 1044,309 1044,335 1097,335 1097,362 1044,362 1044,401 1097,401 1097,428 1016,428 "/>
   <polygon id="4" class="fil1" points="1137,281 1164,281 1198,384 1233,281 1260,281 1284,428 1257,428 1242,336 1210,428 1186,428 1155,336 1139,428 1111,428 "/>
   <path id="5" class="fil1" d="M1352 281l28 0 57 147 -29 0 -12 -30 -60 0 -12 30 -29 0 57 -147zm14 39l-20 51 40 0 -20 -51z"/>
   <polygon id="6" class="fil1" points="1501,281 1583,281 1583,309 1556,309 1556,428 1527,428 1527,309 1501,309 "/>
   <polygon id="7" class="fil1" points="1600,281 1628,281 1628,428 1600,428 "/>
   <path id="8" class="fil1" d="M1794 307l-19 19c-14,-14 -29,-21 -45,-21 -14,0 -26,5 -36,14 -10,10 -14,22 -14,36 0,9 2,18 6,26 4,7 10,13 18,18 8,4 17,6 26,6 8,0 16,-1 22,-4 7,-3 15,-9 23,-17l19 20c-11,10 -21,18 -31,22 -10,4 -21,6 -33,6 -23,0 -42,-7 -56,-22 -15,-14 -22,-33 -22,-55 0,-15 3,-28 10,-39 6,-12 16,-21 28,-28 13,-7 26,-10 40,-10 12,0 24,2 35,7 11,6 21,13 29,22z"/>
   <polygon id="9" class="fil1" points="1819,281 1847,281 1847,332 1887,281 1921,281 1869,347 1926,428 1893,428 1847,363 1847,428 1819,428 "/>
   <polygon id="10" class="fil1" points="1946,281 2026,281 2026,309 1974,309 1974,335 2026,335 2026,362 1974,362 1974,401 2026,401 2026,428 1946,428 "/>
   <polygon id="11" class="fil1" points="2038,281 2119,281 2119,309 2092,309 2092,428 2064,428 2064,309 2038,309 "/>
   <path class="fil1" d="M966 1080l55 118 -13 0 -18 -39 -51 0 -18 39 -13 0 55 -118 3 0zm-1 25l-21 43 41 0 -20 -43z"/>
   <path id="1" class="fil1" d="M1039 1198l0 -118 24 0c18,0 31,2 39,4 11,4 20,11 27,21 6,10 9,22 9,36 0,11 -2,22 -7,31 -6,9 -12,15 -20,19 -8,5 -20,7 -34,7l-38 0zm11 -11l14 0c16,0 27,-1 34,-3 8,-3 15,-8 21,-16 5,-7 7,-17 7,-27 0,-12 -3,-21 -8,-29 -6,-8 -13,-14 -23,-17 -7,-2 -19,-3 -36,-3l-9 0 0 95z"/>
   <polygon id="2" class="fil1" points="1156,1198 1172,1080 1175,1080 1223,1177 1270,1080 1272,1080 1289,1198 1277,1198 1266,1114 1224,1198 1221,1198 1179,1113 1167,1198 "/>
   <polygon id="3" class="fil1" points="1310,1080 1322,1080 1322,1198 1310,1198 "/>
   <polygon id="4" class="fil1" points="1337,1092 1337,1080 1401,1080 1401,1092 1375,1092 1375,1198 1363,1198 1363,1092 "/>
   <path id="5" class="fil1" d="M1520 1077c18,0 32,6 44,18 12,12 18,27 18,44 0,17 -6,32 -17,44 -12,12 -27,18 -44,18 -18,0 -32,-6 -44,-18 -12,-12 -18,-26 -18,-43 0,-12 2,-22 8,-32 5,-10 13,-17 22,-23 10,-5 20,-8 31,-8zm0 12c-8,0 -17,2 -24,7 -8,4 -14,10 -19,18 -4,8 -6,16 -6,26 0,13 5,25 14,35 10,10 22,14 35,14 9,0 18,-2 26,-6 7,-5 13,-11 18,-18 4,-8 6,-17 6,-26 0,-9 -2,-18 -6,-25 -5,-8 -11,-14 -19,-18 -7,-5 -16,-7 -25,-7z"/>
   <polygon id="6" class="fil1" points="1606,1198 1606,1080 1609,1080 1687,1170 1687,1080 1699,1080 1699,1198 1696,1198 1618,1109 1618,1198 "/>
   <polygon id="7" class="fil1" points="1727,1080 1795,1080 1795,1092 1739,1092 1739,1129 1794,1129 1794,1140 1739,1140 1739,1186 1794,1186 1794,1198 1727,1198 "/>
   <line class="fil3 str0" x1="386" y1="273" x2="386" y2= "1202" />
   <line class="fil3 str1" x1="2352" y1="273" x2="2352" y2= "1202" />
   <path class="fil4" d="M202 940l0 -3 82 0 0 -14 11 0 0 14 28 0 0 12 -28 0 0 56 -93 -65zm82 9l-49 0 49 35 0 -35z"/>
   <path id="1" class="fil4" d="M205 816l11 0 0 41 32 6c-1,-5 -2,-9 -2,-14 0,-10 4,-19 11,-26 7,-7 16,-11 28,-11 7,0 14,2 21,6 6,3 11,8 15,14 3,6 5,14 5,22 0,9 -3,17 -9,24 -6,6 -13,10 -23,11l0 -12c5,-1 8,-2 11,-4 3,-2 5,-5 7,-9 2,-4 3,-7 3,-11 0,-8 -3,-15 -9,-20 -6,-6 -13,-8 -22,-8 -8,0 -14,2 -19,7 -5,5 -8,12 -8,20 0,7 2,15 7,25l-59 -10 0 -51z"/>
   <path id="2" class="fil4" d="M202 722l7 -9 48 32c-2,-5 -2,-9 -2,-12 0,-10 3,-18 10,-24 6,-7 15,-10 25,-10 6,0 12,2 18,5 5,3 10,7 13,13 3,6 5,12 5,19 0,6 -2,12 -5,18 -3,5 -7,10 -13,13 -6,3 -12,5 -18,5 -5,0 -10,-1 -15,-3 -6,-2 -12,-6 -20,-11l-53 -36zm63 13c0,7 2,13 7,18 5,5 11,7 18,7 6,0 12,-2 17,-7 5,-5 7,-11 7,-18 0,-6 -2,-12 -7,-17 -5,-5 -11,-7 -17,-7 -7,0 -13,2 -18,7 -5,5 -7,11 -7,17z"/>
   <polygon id="3" class="fil4" points="205,657 205,583 326,646 321,655 216,601 216,657 "/>
   <polygon id="4" class="fil4" points="205,544 205,469 326,532 321,542 216,487 216,544 "/>
   <path class="fil4" d="M2547 535l0 2 -82 0 0 14 -11 0 0 -14 -28 0 0 -12 28 0 0 -56 93 66zm-82 -10l49 0 -49 -34 0 34z"/>
   <path id="1" class="fil4" d="M2544 659l-11 0 0 -42 -32 -6c1,5 2,10 2,14 0,11 -4,20 -11,27 -7,7 -16,10 -27,10 -8,0 -15,-2 -22,-5 -6,-4 -11,-9 -15,-15 -3,-6 -5,-13 -5,-21 0,-9 3,-18 9,-24 6,-7 14,-11 23,-12l0 12c-5,1 -8,3 -11,5 -3,2 -5,5 -7,8 -2,4 -3,8 -3,12 0,8 3,14 9,20 6,5 13,8 22,8 8,0 14,-3 19,-8 5,-5 8,-11 8,-20 0,-7 -2,-15 -7,-25l59 11 0 51z"/>
   <path id="2" class="fil4" d="M2547 752l-7 10 -48 -32c2,4 3,8 3,12 0,9 -4,17 -11,24 -6,6 -15,10 -25,10 -6,0 -12,-2 -18,-5 -5,-3 -10,-8 -13,-14 -3,-5 -5,-12 -5,-18 0,-7 2,-13 5,-18 3,-6 7,-10 13,-13 6,-3 12,-5 18,-5 5,0 10,1 15,3 6,2 12,5 20,10l53 36zm-63 -13c0,-7 -2,-12 -7,-17 -5,-5 -11,-8 -18,-8 -6,0 -12,3 -17,8 -5,5 -7,10 -7,17 0,7 2,13 7,18 5,5 11,7 17,7 7,0 13,-2 18,-7 5,-5 7,-11 7,-18z"/>
   <polygon id="3" class="fil4" points="2544,817 2544,892 2423,829 2428,819 2533,874 2533,817 "/>
   <polygon id="4" class="fil4" points="2544,931 2544,1005 2423,942 2428,933 2533,987 2533,931 "/>
  </g>
 </g>
</svg>
