<?xml version="1.0" encoding="UTF-8"?>
<!DOCTYPE svg PUBLIC "-//W3C//DTD SVG 1.1//EN" "http://www.w3.org/Graphics/SVG/1.1/DTD/svg11.dtd">
<!-- Creator: CorelDRAW X8 -->
<svg xmlns="http://www.w3.org/2000/svg" xml:space="preserve" width="100%" height="100%" version="1.1" style="shape-rendering:geometricPrecision; text-rendering:geometricPrecision; image-rendering:optimizeQuality; fill-rule:evenodd; clip-rule:evenodd"
viewBox="0 0 39055 5577"
 xmlns:xlink="http://www.w3.org/1999/xlink">
 <defs>
  <style type="text/css">
   <![CDATA[
    .fil1 {fill:#666666}
    .fil0 {fill:#999999}
   ]]>
  </style>
 </defs>
 <g id="Text">
  <metadata id="CorelCorpID_0Corel-Layer"/>
  <g id="_728895520">
   <polygon class="fil0" points="31468,5292 31933,5521 33226,5521 32787,5292 "/>
   <polygon class="fil0" points="32787,5292 33226,5521 33226,4208 32787,3951 "/>
   <polygon class="fil0" points="32787,3951 33226,4208 35722,4208 35334,3951 "/>
   <polygon class="fil0" points="36668,5292 37029,5521 39055,5521 38735,5292 "/>
   <polygon class="fil0" points="38735,5292 39055,5521 34277,819 33860,494 "/>
   <polygon class="fil0" points="33860,494 34277,819 34246,789 34215,760 34184,732 34152,705 34121,679 34090,654 33668,325 33700,351 33732,377 33764,405 33796,434 33828,463 "/>
   <polygon class="fil0" points="32787,2829 33226,2829 33226,1757 32787,1397 "/>
   <polygon class="fil0" points="0,5292 466,5521 1759,5521 1319,5292 "/>
   <polygon class="fil0" points="1319,5292 1759,5521 1759,4208 1319,3951 "/>
   <polygon class="fil0" points="1319,3951 1759,4208 4255,4208 3866,3951 "/>
   <polygon class="fil0" points="5200,5292 5562,5521 7587,5521 7267,5292 "/>
   <polygon class="fil0" points="7267,5292 7587,5521 2810,819 2392,494 "/>
   <polygon class="fil0" points="2392,494 2810,819 2778,789 2747,760 2716,732 2685,705 2653,679 2622,654 2200,325 2232,351 2264,377 2296,405 2328,434 2360,463 "/>
   <polygon class="fil0" points="1319,2829 1759,2829 1759,1784 1319,1397 "/>
   <polygon class="fil0" points="14675,348 15003,677 15039,719 15071,765 15099,814 15124,867 15145,923 15164,984 15179,1048 15192,1116 15203,1188 15211,1264 15218,1344 15223,1429 15227,1518 15229,1611 15230,1709 15231,1812 15231,1919 15231,2030 15231,2084 15230,2134 15229,2182 15227,2226 15224,2268 15221,2308 15217,2345 15212,2380 15207,2412 15202,2443 15196,2472 15189,2500 15181,2525 15174,2550 15165,2573 15156,2595 15147,2617 15137,2637 15126,2657 15115,2676 15103,2695 15091,2714 15078,2733 15065,2752 15051,2771 15037,2790 15022,2810 15007,2831 14991,2852 14975,2874 14958,2898 14941,2922 14612,2639 14630,2614 14647,2590 14663,2567 14679,2545 14695,2524 14710,2504 14725,2484 14739,2465 14752,2446 14765,2427 14778,2407 14790,2388 14801,2368 14812,2348 14822,2327 14832,2305 14841,2283 14849,2259 14857,2234 14865,2208 14872,2180 14878,2150 14884,2119 14889,2085 14893,2050 14897,2012 14901,1971 14903,1929 14906,1883 14907,1835 14908,1783 14908,1729 14908,1615 14908,1505 14907,1401 14906,1301 14903,1206 14900,1115 14895,1029 14888,947 14879,869 14868,795 14855,726 14839,661 14820,599 14798,541 14773,488 14744,437 14712,391 "/>
   <polygon class="fil0" points="14612,2639 14941,2922 14955,2942 14969,2961 14983,2980 14997,2999 15012,3017 15026,3035 15041,3053 15055,3071 15070,3089 15084,3107 15098,3124 15112,3142 15126,3160 15139,3179 15152,3197 15165,3216 15177,3235 15189,3255 15200,3276 15211,3296 15221,3318 15231,3340 15239,3363 15247,3387 15255,3412 15261,3437 15267,3464 15271,3491 15275,3520 15278,3550 15279,3581 15280,3614 15522,5522 15205,5292 14958,3344 14957,3311 14956,3280 14953,3249 14949,3220 14944,3191 14939,3164 14932,3138 14925,3113 14916,3089 14907,3065 14898,3043 14887,3021 14877,2999 14865,2979 14853,2958 14840,2939 14828,2919 14814,2900 14801,2882 14787,2863 14772,2845 14758,2827 14743,2809 14729,2791 14714,2773 14699,2754 14684,2736 14669,2717 14655,2698 14640,2679 14626,2659 "/>
   <polygon class="fil0" points="15205,5292 15522,5522 14174,5522 13829,5292 "/>
   <polygon class="fil0" points="13596,3344 13673,3614 9437,3614 8996,3344 "/>
   <polygon class="fil0" points="8996,3344 9437,3614 9437,5522 8996,5292 "/>
   <polygon class="fil0" points="8996,5292 9437,5522 8096,5522 7627,5292 "/>
   <polygon class="fil0" points="13596,1411 13623,1719 9437,1719 8996,1411 "/>
   <polygon class="fil0" points="8996,1411 9437,1719 9437,2032 8996,2032 "/>
   <polygon class="fil0" points="25872,325 26293,655 26325,680 26356,706 26387,733 26419,761 26450,790 26481,820 26063,494 26031,463 26000,434 25968,405 25936,377 25904,351 "/>
   <polygon class="fil0" points="26063,494 26481,820 29654,3873 29612,3909 "/>
   <polygon class="fil0" points="30939,71 31259,405 31259,4167 31257,4242 31252,4317 31243,4390 31232,4461 31217,4531 31199,4600 31178,4666 31154,4731 31127,4794 31098,4855 31066,4914 31032,4971 30995,5026 30956,5079 30914,5130 30871,5178 30825,5224 30778,5267 30728,5308 30677,5346 30624,5381 30570,5414 30514,5444 30457,5471 30398,5496 30338,5517 30277,5535 30215,5550 30152,5562 30089,5570 30024,5575 29959,5577 29924,5577 29889,5575 29855,5573 29821,5570 29788,5565 29754,5559 29721,5552 29688,5544 29654,5534 29621,5523 29586,5510 29552,5495 29516,5479 29480,5461 29442,5441 29404,5419 29365,5395 29324,5369 28964,5136 29006,5162 29046,5187 29085,5209 29123,5229 29160,5248 29196,5264 29232,5279 29267,5292 29301,5304 29336,5314 29370,5323 29404,5330 29437,5336 29472,5340 29506,5344 29541,5346 29576,5348 29612,5348 29679,5346 29744,5341 29810,5332 29874,5320 29937,5305 29999,5287 30060,5265 30120,5240 30179,5213 30236,5182 30291,5148 30345,5112 30397,5073 30448,5032 30496,4987 30543,4941 30587,4891 30629,4840 30669,4786 30707,4730 30742,4672 30774,4612 30804,4549 30832,4485 30856,4419 30877,4351 30896,4281 30911,4210 30923,4137 30932,4062 30937,3986 30939,3909 "/>
   <polygon class="fil0" points="24991,1397 25430,1705 25430,5522 24991,5292 "/>
   <polygon class="fil0" points="24991,5292 25430,5522 24137,5522 23671,5292 "/>
   <polygon class="fil0" points="23029,71 23349,405 23349,1719 23029,1411 "/>
   <polygon class="fil0" points="23029,1411 23349,1719 17825,1719 17799,1720 17775,1721 17753,1724 17732,1728 17712,1733 17693,1740 17676,1747 17659,1755 17644,1764 17630,1774 17617,1785 17605,1796 17593,1809 17583,1822 17574,1836 17565,1850 17558,1866 17551,1881 17544,1898 17539,1915 17534,1932 17530,1950 17526,1969 17523,1987 17520,2007 17520,2018 17074,2018 17074,1849 17075,1827 17075,1806 17076,1786 17077,1765 17078,1744 17080,1724 17082,1704 17084,1685 17088,1666 17091,1647 17096,1629 17100,1611 17106,1594 17112,1577 17119,1561 17127,1545 17136,1530 17146,1516 17156,1503 17167,1490 17180,1478 17193,1467 17208,1457 17223,1448 17240,1439 17258,1432 17277,1426 17297,1421 17319,1417 17342,1414 17366,1412 17392,1411 "/>
   <polygon class="fil0" points="23029,2018 23349,2314 23349,3634 23029,3365 "/>
   <polygon class="fil0" points="23029,3365 23349,3634 17520,3634 17081,3365 "/>
   <path class="fil0" d="M17081 3365l439 269 0 118 0 23 1 23 0 22 1 22 2 22 1 20 2 21 4 25 -139 0c-97,2 -150,-23 -180,-42l-14 -10 -13 -10 -12 -12 -11 -12 -11 -13 -9 -14 -8 -14 -8 -15 -7 -16 -6 -17 -6 -17 -5 -18 -4 -19 -4 -19 -3 -20 -2 -20 -2 -21 -2 -22 -1 -22 -1 -22 -1 -23 0 -23 -1 -24 0 -120z"/>
   <polygon class="fil0" points="23029,3930 23349,4187 23349,5522 23029,5292 "/>
   <polygon class="fil0" points="23029,5292 23349,5522 17825,5522 17734,5520 17645,5514 17559,5505 17474,5492 17392,5476 17311,5456 17233,5433 17157,5406 17084,5376 17012,5343 16563,5109 16636,5143 16711,5173 16788,5201 16868,5225 16950,5245 17034,5262 17121,5275 17209,5284 17300,5290 17392,5292 "/>
  </g>
  <g id="_729201840">
   <g>
    <path class="fil1" d="M76 1235l0 3980 1167 0 0 -1264 0 -76 76 0 2547 0 32 0 22 23 1311 1317 1850 0 -4742 -4667c-163,-159 -327,-278 -497,-356 -167,-78 -340,-116 -523,-116 -352,0 -692,87 -926,303 -193,179 -317,451 -317,842l0 14zm-76 0l0 4057 1319 0 0 -1341 2547 0 1334 1341 2067 0 -4875 -4798c-339,-332 -685,-494 -1073,-494 -677,0 -1319,310 -1319,1221l0 14zm1319 162l1426 1432 -1426 0 0 -1432zm54 -54l1425 1433 130 129 -183 0 -1426 0 -76 0 0 -76 0 -1432 0 -184 130 130z"/>
   </g>
   <g>
    <path class="fil1" d="M7634 78l5962 0c1312,0 1312,409 1312,1651 0,599 -105,635 -296,910 148,219 346,346 346,705l247 1948 -1376 0 -233 -1948 -4600 0 0 1948 -1369 0 7 -5214zm1362 1954l4290 0c247,0 310,-303 310,-621l-4600 0 0 621zm4600 -1878l-5886 0 -7 5061 1217 0 0 -1871 0 -76 76 0 4600 0 68 0 8 67 224 1880 1223 0 -237 -1861 0 -7 0 -3c0,-245 -105,-374 -216,-510 -39,-47 -78,-96 -117,-153l-29 -43 30 -42c29,-43 56,-80 82,-114 129,-174 200,-269 200,-753 0,-608 0,-1012 -152,-1251 -148,-232 -457,-324 -1084,-324zm-310 1954l-4290 0 -76 0 0 -76 0 -621 0 -76 76 0 4600 0 76 0 0 76c0,167 -17,332 -68,458 -58,144 -158,239 -318,239z"/>
   </g>
   <g>
    <path class="fil1" d="M23029 71l0 1340 -5637 0c-282,0 -318,212 -318,438l0 169 5955 0 0 1347 -5948 0 0 120c0,254 36,445 311,445l5637 0 0 1362 -5637 0c-995,0 -1672,-657 -1672,-1658l0 -1891c0,-932 719,-1665 1672,-1665l5637 -7zm-76 1264l0 -1188 -5561 7 0 0c-453,0 -851,173 -1136,457 -287,286 -460,685 -460,1132l0 1891c0,478 160,872 437,1147 279,277 680,434 1159,434l5561 0 0 -1209 -5561 0c-170,0 -268,-62 -325,-167 -51,-94 -62,-216 -62,-354l0 -120 0 -76 76 0 5872 0 0 -1195 -5879 0 -76 0 0 -76 0 -169c0,-124 11,-244 63,-340 57,-105 157,-174 331,-174l5561 0z"/>
   </g>
   <g>
    <path class="fil1" d="M23671 1235c0,-692 635,-1235 1320,-1235 388,0 734,162 1072,494l3549 3415 0 -3838 1327 0 0 3838c0,832 -614,1439 -1327,1439 -388,0 -642,-148 -1439,-847l-3182 -3104 0 3895 -1320 0 0 -4057zm441 -809c-221,208 -364,492 -364,809l0 3980 1167 0 0 -3818 0 -180 129 126 3181 3103c394,345 653,554 859,675 198,116 348,151 528,151 341,0 659,-148 888,-397 222,-241 362,-578 362,-966l0 -3762 -1174 0 0 3762 0 179 -129 -124 -3548 -3415 -1 -1c-163,-159 -327,-278 -496,-356 -167,-78 -340,-116 -523,-116 -330,0 -647,133 -879,350z"/>
   </g>
   <g>
    <path class="fil1" d="M31544 1235l0 3980 1167 0 0 -1264 0 -76 76 0 2547 0 32 0 22 23 1311 1317 1850 0 -4743 -4667c-163,-159 -327,-278 -496,-356 -167,-78 -340,-116 -523,-116 -352,0 -692,87 -926,303 -194,179 -317,451 -317,842l0 14zm-76 0l0 4057 1319 0 0 -1341 2547 0 1334 1341 2067 0 -4875 -4798c-339,-332 -685,-494 -1073,-494 -677,0 -1319,310 -1319,1221l0 14zm1319 162l1425 1432 -1425 0 0 -1432zm54 -54l1425 1433 129 129 -183 0 -1425 0 -76 0 0 -76 0 -1432 0 -184 130 130z"/>
   </g>
  </g>
 </g>
</svg>
