<?xml version="1.0" encoding="UTF-8"?>
<!DOCTYPE svg PUBLIC "-//W3C//DTD SVG 1.1//EN" "http://www.w3.org/Graphics/SVG/1.1/DTD/svg11.dtd">
<!-- Creator: CorelDRAW X8 -->
<svg xmlns="http://www.w3.org/2000/svg" xml:space="preserve" width="100%" height="100%" version="1.1" style="shape-rendering:geometricPrecision; text-rendering:geometricPrecision; image-rendering:optimizeQuality; fill-rule:evenodd; clip-rule:evenodd"
viewBox="0 0 48148 5459"
 xmlns:xlink="http://www.w3.org/1999/xlink">
 <defs>
  <style type="text/css">
   <![CDATA[
    .fil1 {fill:gray}
    .fil0 {fill:#999999}
   ]]>
  </style>
 </defs>
 <g id="Text">
  <metadata id="CorelCorpID_0Corel-Layer"/>
  <g id="_728898432">
   <polygon class="fil0" points="39299,285 39626,614 39662,656 39695,701 39723,751 39748,803 39769,860 39788,920 39803,984 39816,1052 39827,1124 39835,1201 39842,1281 39847,1366 39850,1454 39853,1548 39854,1646 39855,1748 39855,1855 39855,1967 39855,2020 39854,2071 39853,2118 39851,2163 39848,2205 39845,2244 39841,2281 39836,2316 39831,2349 39826,2380 39819,2409 39813,2436 39805,2462 39798,2486 39789,2510 39780,2532 39771,2553 39761,2574 39750,2594 39739,2613 39727,2632 39715,2651 39702,2669 39689,2688 39675,2707 39661,2727 39646,2747 39631,2767 39615,2788 39599,2811 39582,2834 39565,2859 39236,2575 39254,2550 39271,2526 39287,2504 39303,2482 39319,2461 39334,2440 39349,2421 39363,2401 39376,2382 39389,2363 39402,2344 39413,2324 39425,2305 39436,2285 39446,2264 39456,2242 39465,2219 39473,2195 39481,2170 39489,2144 39496,2116 39502,2087 39508,2055 39513,2022 39517,1986 39521,1948 39525,1908 39527,1865 39529,1820 39531,1771 39532,1720 39532,1665 39532,1551 39532,1442 39531,1337 39530,1238 39527,1142 39524,1052 39519,965 39512,883 39503,806 39492,732 39479,662 39463,597 39444,536 39422,478 39397,424 39368,374 39335,327 "/>
   <polygon class="fil0" points="39904,3550 40146,5459 39829,5228 39582,3281 39581,3248 39579,3216 39577,3186 39573,3156 39568,3128 39562,3101 39556,3075 39548,3050 39540,3025 39531,3002 39522,2979 39511,2957 39500,2936 39489,2915 39477,2895 39464,2875 39451,2856 39438,2837 39424,2818 39410,2800 39396,2782 39382,2763 39367,2745 39352,2727 39338,2709 39323,2691 39308,2672 39293,2654 39279,2635 39264,2615 39250,2596 39236,2575 39565,2859 39579,2879 39593,2898 39607,2917 39621,2935 39636,2954 39650,2972 39665,2990 39679,3008 39694,3025 39708,3043 39722,3061 39736,3079 39750,3097 39763,3115 39776,3134 39789,3153 39801,3172 39813,3192 39824,3212 39835,3233 39845,3254 39854,3277 39863,3300 39871,3323 39878,3348 39885,3374 39890,3400 39895,3428 39899,3457 39902,3487 39903,3518 "/>
   <polygon class="fil0" points="39829,5228 40146,5459 38797,5459 38453,5228 "/>
   <polygon class="fil0" points="38220,3281 38252,3550 34061,3550 33620,3281 "/>
   <polygon class="fil0" points="33620,3281 34061,3550 34061,5459 33620,5228 "/>
   <polygon class="fil0" points="33620,5228 34061,5459 32720,5459 32251,5228 "/>
   <polygon class="fil0" points="38220,1348 38246,1656 34061,1656 33620,1348 "/>
   <polygon class="fil0" points="33620,1348 34061,1656 34061,1968 33620,1968 "/>
   <polygon class="fil0" points="23224,357 23549,685 23594,733 23635,785 23670,839 23701,896 23728,956 23751,1018 23770,1082 23787,1149 23800,1218 23811,1289 23819,1362 23825,1437 23830,1514 23833,1593 23835,1673 23836,1756 23836,1840 23836,1925 23836,1956 23836,1987 23836,2018 23835,2049 23835,2081 23834,2112 23833,2142 23831,2173 23829,2204 23827,2235 23824,2266 23821,2296 23816,2327 23812,2357 23806,2388 23800,2418 23792,2448 23784,2478 23775,2508 23765,2537 23754,2567 23742,2596 23728,2625 23713,2654 23697,2683 23680,2712 23661,2740 23641,2769 23620,2797 23597,2824 23572,2852 23546,2879 23220,2596 23247,2569 23272,2540 23296,2512 23318,2483 23338,2455 23357,2426 23375,2396 23391,2367 23406,2337 23420,2308 23432,2278 23444,2247 23454,2217 23463,2187 23472,2156 23479,2125 23486,2095 23491,2064 23496,2033 23501,2002 23504,1970 23507,1939 23510,1908 23512,1876 23513,1845 23514,1813 23515,1781 23516,1750 23516,1718 23516,1686 23516,1655 23516,1623 23516,1536 23516,1450 23515,1366 23513,1284 23510,1203 23505,1125 23499,1048 23490,973 23480,901 23466,831 23449,763 23429,697 23406,634 23379,573 23347,515 23311,459 23270,407 "/>
   <polygon class="fil0" points="23220,2596 23546,2879 23563,2905 23581,2931 23599,2957 23616,2982 23634,3008 23652,3034 23669,3060 23687,3086 23704,3113 23721,3139 23738,3166 23754,3194 23771,3221 23786,3250 23801,3278 23816,3307 23830,3337 23844,3367 23857,3398 23869,3429 23880,3461 23891,3494 23901,3528 23910,3563 23918,3598 23926,3635 23932,3672 23937,3711 23941,3750 23944,3790 23946,3832 23947,3875 23946,3961 23945,4045 23943,4128 23939,4209 23933,4288 23926,4365 23916,4440 23904,4513 23890,4584 23872,4653 23851,4719 23827,4783 23799,4845 23767,4904 23731,4960 23691,5014 23646,5065 23595,5114 23540,5159 23479,5202 23413,5241 23340,5278 23262,5311 23176,5341 23085,5368 22986,5392 22880,5412 22766,5428 22645,5441 22515,5451 22378,5456 22232,5458 16555,5458 16087,5228 21879,5228 22028,5226 22169,5220 22301,5211 22424,5198 22540,5181 22649,5160 22749,5136 22843,5109 22930,5078 23010,5044 23084,5007 23152,4966 23214,4923 23271,4876 23322,4827 23368,4775 23409,4720 23446,4662 23479,4602 23507,4539 23532,4474 23553,4406 23571,4336 23586,4264 23598,4189 23608,4113 23615,4034 23621,3953 23625,3871 23627,3786 23629,3700 23629,3612 23628,3569 23627,3526 23623,3485 23619,3445 23614,3405 23608,3367 23600,3330 23592,3294 23583,3259 23573,3224 23562,3191 23550,3158 23537,3126 23524,3094 23510,3063 23496,3033 23481,3003 23465,2974 23449,2946 23433,2917 23416,2889 23399,2862 23382,2835 23364,2808 23346,2781 23328,2754 23310,2728 23292,2702 23274,2675 23256,2649 23238,2623 "/>
   <path class="fil0" d="M22014 1406c132,113 147,206 148,249l-4252 0 -440 -307 4353 0 27 0 26 3 24 4 23 5 21 6 19 8 19 10 16 10 16 12z"/>
   <polygon class="fil0" points="17470,1348 17910,1655 17910,1942 17470,1933 "/>
   <polygon class="fil0" points="22126,3281 22162,3550 17910,3550 17470,3281 "/>
   <polygon class="fil0" points="17470,3281 17910,3550 17910,3881 17470,3881 "/>
   <polygon class="fil0" points="25014,5023 25464,5257 25533,5291 25604,5323 25677,5351 25752,5376 25829,5397 25909,5416 25990,5431 26073,5443 26159,5452 26245,5457 26334,5458 30282,5458 30373,5457 30462,5452 30549,5444 30634,5432 30716,5418 30797,5400 30875,5379 30950,5355 31023,5328 31094,5298 31162,5265 31228,5229 31291,5190 31351,5148 31408,5103 31463,5055 31515,5004 31563,4950 31609,4894 31652,4834 31692,4772 31728,4707 31761,4639 31791,4569 31818,4496 31841,4420 31861,4341 31878,4260 31890,4176 31900,4090 31905,4001 31907,3910 31907,1967 31906,1878 31901,1791 31893,1706 31881,1623 31867,1542 31849,1462 31828,1385 31804,1310 31777,1237 31746,1167 31712,1099 31676,1033 31636,970 31592,909 31546,852 31497,796 31444,744 31115,417 31169,471 31219,527 31267,586 31311,648 31351,713 31389,780 31423,849 31455,921 31482,995 31507,1072 31528,1151 31547,1231 31561,1314 31573,1399 31581,1486 31586,1575 31588,1665 31588,3648 31586,3741 31580,3832 31571,3920 31558,4005 31541,4088 31521,4168 31497,4246 31470,4320 31439,4392 31405,4461 31368,4528 31327,4591 31284,4652 31237,4710 31187,4764 31134,4816 31079,4865 31020,4911 30959,4954 30895,4994 30828,5031 30758,5065 30686,5096 30611,5123 30534,5148 30455,5169 30373,5187 30289,5202 30202,5213 30113,5222 30023,5226 29930,5228 25901,5228 25810,5226 25722,5221 25635,5212 25550,5200 25467,5185 25386,5166 25307,5144 25230,5118 25155,5090 25083,5058 "/>
   <path class="fil0" d="M25714 3818c78,75 202,79 316,69l3 -27 -3 -19 -2 -21 -2 -20 -1 -22 -1 -22 -1 -22 0 -23 0 -23 0 -1701 0 -15 0 -16 0 -15 1 -16 0 -15 1 -15 1 -15 2 -14 2 -15 2 -14 4 -14 3 -14 5 -13 5 -13 6 -12 7 -12 8 -11 8 -11 10 -10 11 -10 12 -9 13 -9 14 -8 16 -7 17 -6 19 -6 20 -5 21 -4 24 -3 24 -3 27 -1 28 0 3948 0c-11,-60 -49,-183 -155,-251l-14 -10 -15 -10 -16 -8 -18 -8 -18 -6 -21 -6 -21 -4 -23 -3 -25 -2 -26 0 -4029 0 -29 0 -27 2 -25 2 -24 3 -22 4 -20 5 -19 6 -18 7 -16 7 -14 8 -14 9 -12 9 -11 10 -10 11 -9 11 -8 11 -7 13 -6 12 -5 13 -5 14 -4 14 -3 14 -3 14 -2 15 -1 15 -1 15 -1 16 -1 15 0 16 0 16 -1 15 0 16 0 1736 1 24 0 23 1 22 0 23 2 21 2 22 2 20 2 20 3 20 4 19 4 18 5 18 6 17 6 16 7 16 7 15 9 14 9 14 11 12 11 12 12 11 13 10 14 9z"/>
   <polygon class="fil0" points="42030,1348 42464,1656 48148,1656 47830,1348 "/>
   <polygon class="fil0" points="47830,1348 48148,1656 48148,342 47830,7 "/>
   <polygon class="fil0" points="41201,5045 41652,5279 41723,5313 41797,5343 41873,5369 41951,5393 42031,5413 42114,5429 42198,5442 42285,5451 42374,5457 42464,5458 48148,5458 47830,5228 42030,5228 41938,5226 41847,5221 41759,5211 41672,5198 41588,5181 41506,5161 41426,5137 41349,5110 41274,5079 "/>
   <polygon class="fil0" points="47830,5228 48148,5458 48148,2250 47830,1954 "/>
   <polygon class="fil0" points="44140,3302 44532,3571 46501,3571 46468,3302 "/>
   <path class="fil0" d="M41850 3824c71,79 267,77 326,76l-3 -19 -4 -20 -2 -20 -2 -20 -2 -21 -1 -21 -1 -22 -1 -23 0 -22 0 -24 0 -1611 0 -20 0 -20 1 -19 1 -20 1 -19 2 -20 2 -19 2 -18 4 -18 3 -18 4 -18 5 -17 5 -16 7 -16 6 -16 8 -14 8 -15 9 -13 10 -13 11 -13 12 -11 13 -11 14 -10 15 -9 16 -8 17 -7 18 -7 20 -5 20 -5 22 -3 24 -2 24 -1 -434 -308 -25 1 -24 2 -22 4 -21 4 -20 6 -19 6 -17 8 -17 8 -15 9 -14 11 -13 10 -12 12 -11 13 -11 13 -9 14 -8 14 -8 16 -7 15 -6 17 -6 17 -5 17 -4 18 -4 18 -3 18 -2 19 -2 20 -2 19 -1 20 -1 20 -1 20 0 21 -1 20 0 1644 1 24 0 23 1 23 1 22 1 22 2 21 2 21 2 21 3 19 4 20 4 18 5 18 6 18 6 16 7 16 8 15 8 15 9 14 11 13 11 12 12 11 13 11 14 9z"/>
   <polygon class="fil0" points="9723,5228 10156,5458 14111,5458 14202,5457 14291,5452 14378,5444 14463,5432 14545,5418 14625,5400 14703,5379 14779,5355 14852,5328 14923,5298 14991,5265 15057,5229 15119,5190 15180,5148 15237,5103 15292,5055 15343,5004 15392,4950 15438,4894 15481,4834 15520,4772 15557,4707 15590,4639 15620,4569 15647,4496 15670,4420 15690,4341 15706,4260 15719,4176 15728,4090 15734,4001 15736,3910 15736,342 15416,7 15416,3648 15414,3741 15409,3832 15399,3920 15386,4005 15370,4088 15349,4168 15325,4246 15298,4320 15268,4392 15234,4461 15196,4528 15156,4591 15112,4652 15066,4710 15016,4764 14963,4816 14907,4865 14849,4911 14787,4954 14723,4994 14656,5031 14587,5065 14515,5096 14440,5123 14363,5148 14283,5169 14201,5187 14117,5202 14031,5213 13942,5222 13851,5226 13758,5228 "/>
   <path class="fil0" d="M9529 1664c130,89 254,100 332,94l-2 -19 -2 -21 -2 -20 -1 -22 -1 -22 -1 -22 0 -23 0 -23 0 -1244 -440 -335 0 1270 0 24 1 23 0 23 1 22 1 22 2 21 2 20 3 21 3 19 4 19 4 18 5 18 5 17 7 16 6 16 8 15 9 14 9 14 10 12 11 12 13 11 13 10z"/>
   <path class="fil0" d="M8775 2840l452 278 66 37 68 34 71 32 73 28 75 25 78 21 79 19 82 15 83 12 85 9 87 5 89 1 3948 0 18 0c-29,-126 -31,-216 -74,-287l-19 1 -18 2 -19 1 -18 1 -19 2 -18 1 -19 1 -19 1 -18 1 -19 1 -18 0 -19 1 -18 1 -19 0 -18 0 -19 0 -4028 0 -91 -1 -89 -6 -86 -9 -85 -12 -84 -15 -81 -19 -79 -22 -76 -26 -75 -28 -72 -32 -70 -35 -67 -38z"/>
   <path class="fil0" d="M1478 3811c37,46 218,83 326,80l-4 -18 -3 -20 -2 -19 -2 -21 -2 -20 -1 -22 -1 -22 -1 -22 0 -23 0 -23 0 -1701 0 -15 0 -16 0 -15 0 -15 1 -16 1 -15 1 -15 2 -14 2 -15 2 -14 3 -14 4 -14 5 -13 5 -12 6 -13 7 -12 7 -11 9 -11 10 -10 11 -10 12 -9 13 -9 14 -8 16 -7 17 -6 19 -6 20 -5 21 -4 23 -3 25 -3 27 -1 28 0 5621 0 -319 -308 -5736 0 -29 0 -27 1 -25 3 -24 3 -22 4 -20 5 -19 6 -17 7 -16 7 -15 8 -14 9 -12 9 -11 10 -10 11 -9 11 -8 11 -7 13 -6 12 -5 13 -5 14 -3 13 -4 15 -2 14 -2 15 -2 15 -1 15 -1 15 -1 16 0 16 0 16 0 15 0 16 0 1736 0 23 0 24 1 22 1 23 1 21 2 22 2 20 2 20 4 20 3 19 4 18 5 18 6 17 6 16 7 16 8 15 8 14 10 13 10 13 11 12 12 11 13 10 14 9z"/>
   <polygon class="fil0" points="7401,1341 7720,1649 7720,342 7401,7 "/>
   <polygon class="fil0" points="778,5016 1229,5250 1298,5284 1368,5316 1441,5344 1517,5369 1594,5390 1673,5409 1755,5424 1838,5436 1923,5445 2010,5450 2099,5451 7734,5451 7415,5221 1665,5221 1575,5219 1486,5214 1399,5205 1314,5193 1231,5178 1150,5159 1071,5137 994,5111 920,5082 847,5051 "/>
   <polygon class="fil0" points="7415,5221 7734,5451 7734,4110 7415,3852 "/>
  </g>
  <g id="_734279376">
   <g>
    <path class="fil1" d="M1658 3929c-170,0 -268,-61 -325,-163 -51,-92 -62,-213 -62,-351l0 -1736c0,-207 0,-415 394,-415l5660 0 0 -1181 -5653 0c-446,0 -820,148 -1093,393 -286,255 -464,616 -503,1027l0 2138c0,458 160,830 432,1089 281,267 684,415 1157,415l5674 0 0 -1216 -5681 0zm0 -77c-275,0 -310,-183 -310,-437l0 -1736c0,-169 0,-338 317,-338l5736 0 0 -1334 -5729 0c-952,0 -1594,649 -1672,1496l0 2138c0,973 691,1580 1665,1580l5750 0 0 -1369 -5757 0z"/>
   </g>
   <g>
    <path class="fil1" d="M14131 3492c0,231 0,444 -387,444l-3945 0 0 1216 3959 0c488,0 889,-140 1165,-402 266,-254 417,-627 417,-1102l0 -3565 -1202 0 0 1363 0 1 -1 7c-8,89 -28,170 -89,234 -60,63 -153,103 -304,103l-4021 0c-170,0 -268,-61 -325,-163 -52,-92 -62,-213 -62,-351l0 -1194 -1195 0 0 1420c0,458 159,831 432,1089 281,267 683,415 1157,415l4028 0c51,0 99,-2 145,-4 43,-2 95,-6 146,-10l82 -6 0 82 0 423zm-76 0c0,191 0,367 -311,367l-4021 0 0 1369 4035 0c1002,0 1658,-571 1658,-1580l0 -3641 -1354 0 0 1439c-14,149 -64,268 -318,268l-4021 0c-276,0 -311,-183 -311,-437l0 -1270 -1347 0 0 1496c0,974 691,1580 1665,1580l4028 0c99,0 198,-7 297,-14l0 423z"/>
   </g>
   <g>
    <path class="fil1" d="M16094 0l5778 0c1644,0 1644,684 1644,1623 0,338 0,677 -296,973 190,283 409,544 409,1016 0,946 -113,1616 -1750,1616l-5792 0 7 -5228zm6032 1933c0,-317 0,-585 -303,-585l-4353 0 0 585 4656 0zm-303 1955c296,0 296,-283 303,-607l-4656 0 0 600 4353 7zm49 -3812l-5702 0 -7 5076 5716 0c792,0 1212,-157 1430,-425 218,-267 244,-657 244,-1115 0,-399 -168,-643 -335,-884 -25,-35 -49,-71 -61,-89l-35 -52 44 -44c274,-274 274,-597 274,-920 0,-457 0,-851 -191,-1119 -191,-269 -584,-428 -1377,-428zm-49 1195c379,0 379,303 379,662l0 76 -76 0 -4656 0 -77 0 0 -76 0 -585 0 -77 77 0 4353 0zm379 2031c-8,356 -14,662 -379,662l0 0 -4353 -8 -77 0 0 -75 0 -600 0 -76 77 0 4656 0 78 0 -2 77 0 20z"/>
   </g>
   <g>
    <path class="fil1" d="M31512 1665c0,-480 -142,-886 -422,-1165 -263,-264 -651,-417 -1160,-417l-4022 0c-445,0 -818,149 -1092,395 -286,257 -465,621 -504,1033l0 2137c0,458 160,831 432,1089 281,267 684,415 1157,415l4029 0c488,0 889,-140 1164,-402 267,-254 418,-627 418,-1102l0 -1983zm76 0c0,-974 -565,-1658 -1658,-1658l-4022 0c-953,0 -1595,656 -1672,1503l0 2138c0,973 691,1580 1665,1580l4029 0c1002,0 1658,-571 1658,-1580l0 -1983zm-1362 1827c0,191 0,367 -310,367l-4022 0c-275,0 -311,-183 -311,-437l0 -1736c0,-169 0,-338 318,-338l4029 0c289,0 296,218 296,437l0 1707zm76 0c0,231 0,444 -386,444l-4022 0c-170,0 -268,-61 -325,-163 -51,-92 -62,-213 -62,-351l0 -1736c0,-207 0,-415 394,-415l4029 0c181,0 275,73 325,181 45,97 47,215 47,333l0 1707z"/>
   </g>
   <g>
    <path class="fil1" d="M32258 14l5962 0c1312,0 1312,409 1312,1651 0,600 -106,635 -296,910 148,219 346,346 346,706l247 1947 -1376 0 -233 -1947 -4600 0 0 1947 -1369 0 7 -5214zm1362 1954l4289 0c247,0 311,-303 311,-620l-4600 0 0 620zm4600 -1878l-5886 0 -7 5062 1217 0 0 -1871 0 -76 76 0 4600 0 67 0 9 67 224 1880 1222 0 -236 -1862 -1 -7 0 -2c0,-246 -104,-375 -215,-510 -39,-48 -78,-96 -117,-153l-29 -43 29 -43c30,-43 57,-79 83,-113 129,-175 200,-270 200,-754 0,-608 0,-1012 -152,-1250 -148,-232 -457,-325 -1084,-325zm-311 1955l-4289 0 -76 0 0 -77 0 -620 0 -77 76 0 4600 0 76 0 0 77c0,167 -17,332 -68,458 -59,144 -158,239 -319,239z"/>
   </g>
   <g>
    <path class="fil1" d="M42030 1271l5723 0 0 -1188 -5723 0c-452,0 -850,175 -1134,460 -288,288 -462,689 -462,1136l0 1891c0,478 160,873 437,1148 279,277 680,434 1159,434l5723 0 0 -3121 -3537 0 0 1195 2252 0 76 0 0 76c0,185 -10,335 -55,444 -54,127 -147,197 -310,197l-4149 0c-170,0 -268,-63 -325,-167 -51,-94 -62,-216 -62,-354l0 -1644c0,-120 11,-237 62,-331 56,-103 153,-171 323,-175l2 -1zm0 77l5800 0 0 -1341 -5800 0c-953,0 -1672,741 -1672,1672l0 1891c0,1002 677,1658 1672,1658l5800 0 0 -3274 -3690 0 0 1348 2328 0c0,353 -35,564 -289,564l-4149 0c-275,0 -311,-190 -311,-444l0 -1644c0,-219 36,-423 311,-430z"/>
   </g>
  </g>
 </g>
</svg>
