<?xml version="1.0" encoding="UTF-8"?>
<!DOCTYPE svg PUBLIC "-//W3C//DTD SVG 1.1//EN" "http://www.w3.org/Graphics/SVG/1.1/DTD/svg11.dtd">
<!-- Creator: CorelDRAW X8 -->
<svg xmlns="http://www.w3.org/2000/svg" xml:space="preserve" width="100%" height="100%" version="1.1" style="shape-rendering:geometricPrecision; text-rendering:geometricPrecision; image-rendering:optimizeQuality; fill-rule:evenodd; clip-rule:evenodd"
viewBox="0 0 22689 6252"
 xmlns:xlink="http://www.w3.org/1999/xlink">
 <defs>
  <style type="text/css">
   <![CDATA[
    .fil2 {fill:gray;fill-rule:nonzero}
    .fil3 {fill:url(#id0);fill-rule:nonzero}
    .fil0 {fill:url(#id1);fill-rule:nonzero}
    .fil6 {fill:url(#id2);fill-rule:nonzero}
    .fil8 {fill:url(#id3);fill-rule:nonzero}
    .fil9 {fill:url(#id4);fill-rule:nonzero}
    .fil4 {fill:url(#id5);fill-rule:nonzero}
    .fil17 {fill:url(#id6);fill-rule:nonzero}
    .fil7 {fill:url(#id7);fill-rule:nonzero}
    .fil14 {fill:url(#id8);fill-rule:nonzero}
    .fil12 {fill:url(#id9);fill-rule:nonzero}
    .fil5 {fill:url(#id10);fill-rule:nonzero}
    .fil1 {fill:url(#id11);fill-rule:nonzero}
    .fil11 {fill:url(#id12);fill-rule:nonzero}
    .fil13 {fill:url(#id13);fill-rule:nonzero}
    .fil10 {fill:url(#id14);fill-rule:nonzero}
    .fil16 {fill:url(#id15);fill-rule:nonzero}
    .fil15 {fill:url(#id16);fill-rule:nonzero}
   ]]>
  </style>
  <linearGradient id="id0" gradientUnits="objectBoundingBox" x1="0%" y1="50%" x2="100%" y2="50%">
   <stop offset="0" style="stop-opacity:1; stop-color:#666666"/>
   <stop offset="1" style="stop-opacity:1; stop-color:#CCCCCC"/>
  </linearGradient>
  <linearGradient id="id1" gradientUnits="objectBoundingBox" xlink:href="#id0" x1="0%" y1="50%" x2="100%" y2="50%">
  </linearGradient>
  <linearGradient id="id2" gradientUnits="objectBoundingBox" xlink:href="#id0" x1="0%" y1="50%" x2="100%" y2="50%">
  </linearGradient>
  <linearGradient id="id3" gradientUnits="userSpaceOnUse" xlink:href="#id0" x1="7954.51" y1="3044.66" x2="11609.7" y2="3044.66">
  </linearGradient>
  <linearGradient id="id4" gradientUnits="userSpaceOnUse" xlink:href="#id0" x1="9356.13" y1="2871.23" x2="11008.5" y2="2871.23">
  </linearGradient>
  <linearGradient id="id5" gradientUnits="userSpaceOnUse" xlink:href="#id0" x1="1581.04" y1="3109.48" x2="3586.48" y2="3109.48">
  </linearGradient>
  <linearGradient id="id6" gradientUnits="userSpaceOnUse" xlink:href="#id0" x1="4762.14" y1="3283.64" x2="7410.9" y2="3283.64">
  </linearGradient>
  <linearGradient id="id7" gradientUnits="userSpaceOnUse" xlink:href="#id0" x1="7153.1" y1="3218.23" x2="9406.77" y2="3218.23">
  </linearGradient>
  <linearGradient id="id8" gradientUnits="userSpaceOnUse" xlink:href="#id0" x1="12692.5" y1="3044.71" x2="13944.6" y2="3044.71">
  </linearGradient>
  <linearGradient id="id9" gradientUnits="userSpaceOnUse" xlink:href="#id0" x1="20209.8" y1="2930.16" x2="22688.9" y2="2930.16">
  </linearGradient>
  <linearGradient id="id10" gradientUnits="userSpaceOnUse" xlink:href="#id0" x1="1671.66" y1="3632.13" x2="3624.45" y2="3632.13">
  </linearGradient>
  <linearGradient id="id11" gradientUnits="userSpaceOnUse" xlink:href="#id0" x1="5162.03" y1="4322.53" x2="7610.76" y2="4322.53">
  </linearGradient>
  <linearGradient id="id12" gradientUnits="userSpaceOnUse" xlink:href="#id0" x1="14670.6" y1="2329.07" x2="15584.6" y2="2329.07">
  </linearGradient>
  <linearGradient id="id13" gradientUnits="userSpaceOnUse" xlink:href="#id0" x1="20903.8" y1="2429.26" x2="22688.9" y2="2429.26">
  </linearGradient>
  <linearGradient id="id14" gradientUnits="userSpaceOnUse" xlink:href="#id0" x1="4206.34" y1="2629.61" x2="4603.2" y2="2629.61">
  </linearGradient>
  <linearGradient id="id15" gradientUnits="userSpaceOnUse" xlink:href="#id0" x1="4765.5" y1="2584.85" x2="5011.88" y2="2584.85">
  </linearGradient>
  <linearGradient id="id16" gradientUnits="userSpaceOnUse" xlink:href="#id0" x1="19456.8" y1="1187.98" x2="19853.7" y2="1187.98">
  </linearGradient>
 </defs>
 <g id="Layer_x0020_1">
  <metadata id="CorelCorpID_0Corel-Layer"/>
  <path class="fil0" d="M5665 3642l-300 -519c-7,-12 -3,-27 9,-34 5,-3 9,-4 14,-3l1184 0 171 -297 -1913 0 978 1694c5,8 4,18 0,25l-792 1373 171 296 971 -1681 -493 -854zm-235 -507l778 1348c4,8 5,17 0,25l-999 1730c-2,4 -5,8 -10,11 -11,6 -27,2 -34,-10l-200 -346c-4,-7 -4,-17 0,-25l793 -1372 -991 -1717c-3,-4 -5,-9 -5,-15 0,-14 11,-25 25,-25l1998 0c5,0 9,1 14,4 12,7 16,22 9,34l-200 346c-4,7 -13,12 -22,12l-1156 0z"/>
  <path class="fil1" d="M7557 2764l-171 -296 -978 1694c-7,12 -22,16 -34,9 -4,-2 -7,-6 -9,-9l-593 -1026 -342 0 778 1347c5,8 4,18 0,25l-978 1694 342 0 1985 -3438zm-149 -358l199 346c5,7 5,17 0,25l-1997 3460c-4,9 -13,15 -23,15l-400 0 0 0c-4,0 -9,-1 -12,-3 -12,-7 -16,-23 -10,-34l993 -1719 -792 -1371c-2,-4 -4,-9 -4,-14 0,-14 11,-25 25,-25l400 0c10,0 18,5 22,14l577 1000 978 -1694c3,-4 6,-7 10,-10 11,-6 27,-2 34,10z"/>
  <path class="fil2" d="M4438 5552c0,93 -12,174 -35,243 -24,69 -59,127 -104,172 -46,46 -101,80 -168,102 -66,23 -145,34 -236,34l-227 0c-12,0 -24,-4 -36,-13 -11,-8 -17,-23 -17,-45l0 -954c0,-22 6,-37 17,-45 12,-9 24,-13 36,-13l242 0c93,0 172,12 236,36 63,24 117,59 160,103 44,45 76,100 99,164 22,64 33,136 33,216zm-149 6c0,-57 -7,-111 -21,-161 -15,-50 -37,-93 -68,-130 -30,-36 -69,-64 -116,-85 -47,-20 -107,-30 -181,-30l-145 0 0 833 146 0c69,0 126,-9 173,-26 47,-17 86,-43 118,-79 31,-35 55,-79 71,-132 15,-53 23,-117 23,-190z"/>
  <path id="1" class="fil2" d="M7358 6044c0,10 -1,19 -2,26 -1,8 -3,14 -6,19 -2,5 -5,9 -9,11 -4,2 -8,3 -12,3l-514 0c-13,0 -25,-4 -36,-13 -12,-8 -17,-23 -17,-45l0 -954c0,-22 5,-37 17,-45 11,-9 23,-13 36,-13l508 0c4,0 8,1 12,3 4,3 6,6 9,11 2,5 4,11 5,19 1,7 2,16 2,27 0,11 -1,19 -2,27 -1,7 -3,13 -5,18 -3,4 -6,8 -9,10 -4,2 -8,4 -12,4l-419 0 0 335 360 0c4,0 8,1 12,3 3,3 6,6 9,11 2,4 4,10 5,18 1,8 2,17 2,27 0,11 -1,19 -2,26 -1,7 -3,13 -5,18 -3,4 -6,7 -9,9 -4,2 -8,3 -12,3l-360 0 0 383 425 0c4,0 8,1 12,3 4,2 7,6 9,10 3,5 5,11 6,19 1,7 2,16 2,27z"/>
  <path id="2" class="fil2" d="M10253 5803c0,50 -10,94 -28,134 -19,39 -44,72 -77,99 -33,27 -72,48 -116,62 -44,14 -92,20 -143,20 -36,0 -70,-3 -100,-9 -31,-6 -58,-13 -82,-22 -24,-9 -44,-18 -61,-28 -16,-9 -27,-17 -34,-24 -6,-6 -11,-15 -14,-25 -3,-10 -4,-24 -4,-41 0,-12 0,-22 2,-30 1,-8 2,-14 4,-19 3,-5 5,-8 9,-10 3,-2 7,-3 11,-3 8,0 19,5 33,14 14,9 32,19 54,30 22,11 49,21 80,31 31,10 67,14 108,14 31,0 59,-4 85,-12 26,-8 48,-20 66,-35 19,-15 33,-34 43,-56 9,-22 15,-47 15,-75 0,-30 -7,-56 -21,-77 -14,-22 -32,-41 -55,-57 -22,-16 -48,-31 -77,-45 -29,-13 -59,-27 -89,-41 -30,-14 -60,-29 -88,-47 -29,-17 -55,-37 -77,-60 -23,-23 -41,-50 -55,-81 -14,-31 -21,-69 -21,-112 0,-45 8,-85 24,-120 17,-34 39,-64 68,-87 29,-24 63,-42 103,-55 40,-12 83,-18 130,-18 23,0 47,2 71,6 24,4 46,10 68,17 21,6 40,14 56,23 17,8 28,15 33,20 5,6 9,10 10,13 2,3 3,7 4,11 1,5 2,11 3,18 0,6 1,15 1,25 0,10 -1,19 -2,27 0,7 -2,14 -3,19 -2,5 -4,9 -7,12 -3,2 -7,3 -11,3 -6,0 -15,-3 -28,-11 -13,-8 -29,-16 -48,-26 -19,-10 -41,-19 -66,-27 -26,-8 -55,-12 -87,-12 -29,0 -55,4 -77,12 -22,8 -41,19 -55,32 -14,13 -25,29 -32,47 -7,18 -11,37 -11,58 0,29 7,55 20,76 14,22 33,41 56,57 23,17 49,32 78,46 29,14 59,28 89,42 31,14 61,29 90,46 29,17 55,37 78,60 23,22 41,49 55,81 15,31 22,67 22,110z"/>
  <path id="3" class="fil2" d="M12702 6082c0,4 -1,8 -3,11 -3,4 -6,6 -12,8 -5,2 -13,4 -22,5 -9,2 -20,2 -34,2 -13,0 -25,0 -34,-2 -9,-1 -17,-3 -22,-5 -6,-2 -10,-4 -12,-8 -2,-3 -3,-7 -3,-11l0 -1028c0,-4 1,-8 3,-11 3,-4 7,-6 13,-8 6,-2 13,-4 22,-5 9,-2 20,-2 33,-2 14,0 25,0 34,2 9,1 17,3 22,5 6,2 9,4 12,8 2,3 3,7 3,11l0 1028z"/>
  <path id="4" class="fil2" d="M15894 5179c0,11 -1,20 -2,28 -1,8 -3,15 -5,20 -2,5 -5,9 -8,11 -3,2 -7,3 -11,3 -6,0 -17,-5 -33,-16 -15,-10 -36,-22 -62,-35 -26,-12 -57,-24 -93,-35 -36,-10 -79,-15 -128,-15 -60,0 -112,10 -159,32 -47,22 -87,51 -119,89 -33,38 -58,84 -76,136 -17,53 -25,109 -25,171 0,68 9,129 28,182 19,53 45,97 79,134 34,36 74,64 121,83 46,18 98,28 153,28 34,0 67,-4 101,-12 34,-8 66,-20 95,-36l0 -313 -248 0c-9,0 -16,-5 -21,-14 -5,-9 -7,-24 -7,-44 0,-10 1,-19 2,-27 1,-7 2,-13 5,-18 3,-5 5,-8 9,-10 3,-3 7,-4 12,-4l340 0c6,0 12,1 18,4 6,2 12,5 16,10 5,4 9,10 12,18 3,8 4,16 4,26l0 409c0,14 -2,26 -7,37 -5,10 -16,20 -32,27 -16,8 -36,17 -62,26 -25,10 -51,18 -78,25 -27,6 -55,11 -82,14 -28,4 -55,5 -82,5 -83,0 -157,-12 -222,-38 -65,-26 -120,-62 -165,-110 -45,-47 -79,-104 -103,-170 -24,-67 -35,-140 -35,-222 0,-85 12,-162 38,-231 26,-69 62,-127 108,-176 47,-49 103,-86 168,-113 65,-27 138,-40 217,-40 41,0 79,3 115,10 36,8 68,16 95,26 28,10 52,20 71,32 19,11 32,20 39,28 7,7 12,15 15,25 2,9 4,22 4,40z"/>
  <path id="5" class="fil2" d="M19074 6044c0,11 -2,20 -6,28 -4,7 -8,14 -14,19 -6,5 -13,8 -20,10 -8,3 -15,4 -23,4l-47 0c-15,0 -27,-2 -39,-5 -11,-3 -21,-8 -31,-16 -10,-8 -20,-19 -30,-32 -10,-14 -21,-32 -32,-53l-327 -609c-17,-31 -34,-64 -52,-99 -17,-34 -33,-68 -48,-100l-2 0c1,40 2,80 3,122 0,41 0,82 0,123l0 646c0,4 -1,7 -3,11 -2,3 -6,6 -12,8 -5,2 -12,4 -21,5 -10,2 -21,2 -35,2 -14,0 -26,0 -35,-2 -9,-1 -16,-3 -21,-5 -5,-2 -9,-5 -11,-8 -3,-4 -4,-7 -4,-11l0 -988c0,-22 6,-38 19,-47 13,-9 26,-14 41,-14l70 0c16,0 30,1 41,4 12,3 21,8 30,14 9,6 18,15 26,26 8,12 17,26 26,43l251 470c16,28 31,56 45,84 14,27 28,54 42,80 13,27 26,53 39,79 13,25 26,51 39,77l1 0c-1,-44 -2,-89 -2,-136 -1,-47 -1,-93 -1,-136l0 -580c0,-4 2,-8 4,-11 2,-3 6,-6 12,-9 5,-2 13,-4 21,-5 9,-1 21,-2 36,-2 13,0 24,1 33,2 9,1 17,3 22,5 5,3 9,6 11,9 3,3 4,7 4,11l0 986z"/>
  <path class="fil3" d="M1710 1227l-1698 -980c-11,-7 -16,-22 -9,-34 3,-4 6,-7 9,-9l347 -201c9,-5 19,-4 27,1l2081 1202c11,6 16,22 9,33 -3,4 -6,8 -9,10l-1735 1001c-12,7 -28,3 -35,-9 -2,-4 -3,-9 -3,-13l0 -400c0,-9 5,-17 13,-21l1003 -580zm-1635 -1002l1698 981c3,2 6,5 9,9 7,12 3,27 -9,34l-1029 594 0 343 1660 -959 -2032 -1173 -297 171z"/>
  <path class="fil3" d="M744 2186l1698 -980c12,-7 27,-3 34,9 2,4 3,8 3,12l0 401c0,10 -6,18 -14,22l-1721 994 0 1588c0,10 -5,18 -13,22l-347 200c-11,7 -27,3 -34,-9 -2,-4 -3,-9 -3,-13l0 -3606c0,-13 11,-24 25,-24 5,0 9,1 13,3l346 200c8,5 13,13 13,22l0 1159zm1685 -916l-1697 980c-4,3 -8,4 -13,4 -14,0 -25,-11 -25,-25l0 -1188 -297 -171 0 3520 297 -172 0 -1587c0,-9 4,-18 13,-23l1722 -995 0 -343z"/>
  <path class="fil3" d="M397 870l0 3563c0,14 -11,25 -25,25 -10,0 -18,-6 -22,-13l-347 -601c-2,-4 -3,-9 -3,-14l0 -3605c0,-13 11,-25 25,-25 5,0 9,2 12,4l1736 1002c12,6 16,22 9,34 -3,4 -6,7 -9,9l-347 200c-8,5 -18,4 -25,0l-1004 -579zm-50 3470l0 -3512c0,-5 1,-10 3,-14 7,-12 23,-16 35,-9l1028 594 297 -172 -1660 -958 0 3556 297 515z"/>
  <path class="fil4" d="M3373 2706c-100,-138 -231,-252 -383,-330 -147,-76 -314,-118 -491,-118 -176,0 -343,42 -490,118 -19,10 -38,20 -57,31 17,-6 34,-12 51,-17 162,-48 338,-47 505,10 25,8 50,18 74,29 24,11 48,24 72,37l2 1c105,61 191,142 257,234 70,97 117,207 139,322 18,86 21,176 10,265 -11,85 -36,171 -75,252 -8,19 -17,38 -28,57 -11,18 -22,36 -35,53 -49,66 -113,120 -187,157 -72,36 -152,56 -238,56 -56,0 -110,-9 -162,-26 54,35 111,62 170,82 105,36 217,49 328,39 107,-11 213,-44 312,-101l2 -1c21,-12 42,-26 62,-40 21,-15 41,-31 60,-47 125,-109 209,-254 245,-409 36,-155 25,-321 -39,-476l0 0c-15,-31 -30,-61 -48,-91 -17,-30 -36,-59 -56,-87zm-361 -375c160,82 297,201 401,346 22,29 41,60 60,91 17,31 34,62 49,95l1 2c68,164 80,341 42,506 -39,166 -128,319 -261,435 -21,18 -42,35 -64,50 -21,15 -43,30 -66,43l-2 1c-105,61 -218,96 -332,107 -119,12 -238,-2 -349,-40 -83,-29 -163,-71 -234,-125 -69,-53 -130,-116 -181,-191l-1 -1c-8,-11 -6,-27 5,-35 11,-8 27,-6 35,5 44,60 103,109 170,142 64,33 137,51 214,51 78,0 151,-18 215,-51 67,-33 125,-82 170,-142 12,-15 22,-31 32,-48 9,-16 18,-34 25,-52l1 0c37,-77 60,-158 70,-239 11,-83 8,-167 -9,-248 -21,-109 -65,-212 -130,-303 -63,-87 -144,-163 -242,-220l-2 0c-22,-13 -44,-25 -67,-35 -24,-11 -47,-20 -71,-28 -156,-54 -322,-54 -474,-9 -152,46 -290,137 -391,268 -8,11 -24,13 -35,5 -11,-8 -13,-23 -5,-34l0 -1c104,-144 242,-263 401,-345 154,-79 328,-123 512,-123 185,0 359,44 513,123z"/>
  <path class="fil5" d="M3523 2865l0 1c33,72 59,148 76,227 17,77 25,158 25,240 0,290 -110,555 -290,755 -183,201 -437,336 -723,364 -19,2 -37,3 -56,4 -19,1 -38,2 -56,2 -17,0 -36,-1 -55,-2 -19,-1 -37,-2 -55,-4l-2 0c-175,-24 -333,-102 -455,-218 -123,-116 -211,-269 -245,-442 -5,-25 -9,-52 -11,-79 -3,-27 -4,-54 -4,-81 0,-122 26,-237 73,-342 49,-108 121,-204 210,-281 66,-58 142,-106 225,-141 80,-33 167,-55 258,-61 13,-1 25,8 27,22 1,13 -9,26 -22,27 -120,14 -227,73 -303,158 -75,85 -120,197 -120,319 0,33 3,65 9,96 6,31 16,62 29,91 7,18 16,36 25,52 9,16 20,32 32,48l0 1c48,71 107,131 172,181 67,51 142,91 220,117 105,36 217,49 328,39 107,-11 213,-44 312,-101 23,-13 44,-26 64,-41 21,-15 41,-31 60,-47 125,-109 209,-254 245,-409 36,-155 25,-321 -39,-476 -5,-12 0,-26 13,-32 12,-5 27,0 33,13l0 0zm51 458c-2,16 -6,32 -9,48 -39,166 -128,319 -261,435 -21,18 -42,35 -64,50 -21,16 -44,30 -68,44 -105,61 -218,96 -332,107 -119,12 -238,-2 -349,-40 -83,-29 -163,-71 -234,-125 -69,-53 -131,-117 -182,-192 -13,-17 -24,-34 -35,-53 -11,-19 -20,-38 -28,-57 -14,-32 -25,-66 -32,-101 -7,-35 -10,-70 -10,-106 0,-135 50,-258 133,-352 13,-14 27,-28 41,-41 -57,29 -109,65 -157,106 -83,73 -150,163 -196,265 -45,98 -69,206 -69,321 0,26 1,52 3,76 3,25 6,50 11,75 32,162 114,306 230,415 115,109 263,182 428,205 17,1 34,3 52,4 17,0 35,1 53,1 19,0 37,-1 54,-1 18,-1 35,-3 53,-4 273,-27 516,-156 691,-349 172,-190 277,-444 277,-721l0 -10z"/>
  <path class="fil6" d="M3062 3288c-11,85 -36,170 -75,251l0 1c-5,13 -20,19 -32,13 -13,-5 -19,-20 -14,-33 13,-29 22,-60 29,-91 6,-31 9,-63 9,-96 0,-122 -45,-234 -120,-319 -77,-85 -183,-144 -303,-158 -9,-1 -19,-2 -28,-2l0 0c-9,-1 -18,-1 -29,-1 -10,0 -19,0 -28,1l0 0c-9,0 -19,1 -28,2l-1 0c-86,7 -167,27 -243,58 -78,33 -149,78 -212,132 -83,73 -150,163 -196,265 -45,98 -69,206 -69,321 0,26 1,52 3,76 3,25 6,50 11,75 32,162 114,306 230,415 115,109 263,182 428,205 13,2 23,14 21,27 -1,14 -13,24 -27,22l-1 0c-285,-28 -539,-163 -722,-364 -180,-200 -291,-465 -291,-755 0,-82 9,-163 26,-240 17,-80 43,-156 76,-228 16,-34 32,-66 50,-97 18,-31 38,-61 59,-91l1 -1c108,-140 255,-237 417,-286 162,-48 338,-47 505,10 25,8 50,18 74,29 24,11 48,24 72,37 106,61 193,142 259,235 70,97 117,207 139,322 18,86 21,176 10,265zm-45 -67c3,-63 -1,-127 -14,-188 -21,-109 -65,-212 -130,-303 -63,-87 -145,-163 -244,-220 -22,-13 -44,-25 -67,-35 -24,-11 -47,-20 -71,-28 -156,-54 -322,-54 -474,-9 -152,46 -290,137 -391,268l0 0c-20,28 -39,57 -56,87 -18,30 -34,61 -48,92 -32,69 -56,142 -73,218 -16,74 -25,151 -25,230 0,277 106,530 278,721 78,86 168,158 269,216 -13,-12 -26,-23 -39,-36 -123,-116 -211,-269 -245,-442 -5,-25 -9,-52 -11,-79 -3,-27 -4,-54 -4,-81 0,-122 26,-237 73,-342 49,-108 121,-204 210,-281 66,-58 142,-106 225,-141 80,-33 167,-55 257,-61 10,-2 21,-2 31,-3l1 0c10,-1 21,-1 30,-1 10,0 21,0 32,1l0 0c11,1 21,1 31,3 132,15 250,80 334,174 59,67 102,149 121,240z"/>
  <path class="fil3" d="M8023 4061l3159 0 2 0 401 0c14,0 25,11 25,25 0,5 -2,10 -5,14l-199 345c-5,9 -14,13 -23,13l-4006 0c-14,0 -25,-11 -25,-25 0,-5 1,-9 3,-13 234,-405 368,-636 502,-867 134,-232 268,-463 502,-868 6,-12 22,-16 34,-9 4,2 7,6 9,9l200 347c5,9 4,19 -1,27l-578 1002zm3161 50l-3205 0c-4,0 -8,-1 -12,-4 -12,-6 -16,-22 -9,-34l594 -1028 -172 -297c-220,381 -350,606 -480,830 -130,224 -260,448 -480,830l3950 0 172 -297 -358 0z"/>
  <path class="fil7" d="M8380 2748l-255 440c-252,436 -504,872 -727,1257 -6,12 -22,16 -34,9 -4,-2 -7,-5 -9,-9l-199 -347c-5,-8 -4,-19 2,-26l1201 -2081c6,-12 22,-16 34,-9 3,2 7,6 9,9l1001 1735c7,12 3,28 -9,34 -4,3 -8,4 -12,4l0 0 -401 0c-10,0 -19,-6 -23,-15l-578 -1001zm-298 415l277 -478c2,-3 5,-7 9,-9 12,-7 27,-3 34,9l593 1029 344 0 -959 -1661 -1173 2033 170 297c253,-438 479,-829 705,-1220z"/>
  <path class="fil8" d="M10941 3714l-981 -1698c-7,-12 -2,-27 9,-34 4,-2 9,-3 13,-3l0 0 401 0c9,0 18,5 22,14l1201 2080c7,12 3,27 -9,34 -4,3 -9,4 -14,4l-3604 0c-13,0 -24,-11 -24,-25 0,-5 1,-9 3,-13l200 -347c5,-8 14,-13 23,-12l2760 0zm-916 -1685l980 1697c2,3 4,8 4,13 0,14 -12,25 -25,25l-2790 0 -171 297 3519 0 -1174 -2032 -343 0z"/>
  <path class="fil9" d="M9982 2747c-62,108 -246,424 -380,656 -6,12 -22,16 -34,9 -4,-2 -7,-5 -9,-9l-200 -346c-4,-8 -4,-18 0,-25l601 -1041c7,-12 22,-16 34,-9 5,3 8,6 10,11l1001 1733c7,12 3,28 -9,34 -4,3 -8,4 -12,4l0 0 -401 0c-10,0 -19,-6 -23,-15l-578 -1002zm-401 594c162,-282 379,-655 379,-656 3,-4 6,-7 9,-9 12,-7 28,-3 34,9l594 1029 343 0 -958 -1661 -572 991 171 297z"/>
  <path class="fil3" d="M9360 3751l-1001 -1735c-7,-12 -3,-27 9,-34 4,-2 8,-3 12,-3l401 0c9,0 18,5 22,13l778 1349c45,-78 62,-107 79,-137 33,-57 66,-113 300,-519 7,-12 22,-16 34,-9 4,2 7,6 9,9l201 347c5,9 4,19 -1,27l-400 692c-4,8 -13,13 -21,13l-400 0c-10,0 -18,-6 -22,-13zm-937 -1722l973 1685 371 0 386 -669 -171 -297c-215,371 -247,426 -279,481 -19,34 -39,68 -101,174 -2,4 -5,7 -9,9 -12,7 -27,3 -34,-9l-793 -1374 -343 0z"/>
  <path class="fil10" d="M4590 4254l-346 200c-12,7 -28,3 -34,-9 -3,-4 -4,-8 -4,-12l0 -3607c0,-13 12,-24 25,-24 5,0 10,1 13,3l347 200c8,5 12,13 12,22l0 3205c0,10 -5,18 -13,22zm-334 136l297 -172 0 -3177 -297 -171 0 3520z"/>
  <path class="fil3" d="M4256 826l0 3607c0,14 -11,25 -25,25 -9,0 -18,-6 -22,-13l-346 -601c-3,-4 -4,-9 -4,-14l0 -3605c0,-13 12,-25 25,-25 10,0 18,6 22,14l347 600c2,4 3,8 3,12zm-50 3514l0 -3507 -297 -515 0 3507 297 515z"/>
  <path class="fil3" d="M4463 931l-427 -492 213 369 214 123zm-560 -722l694 801c7,8 8,20 3,29 -7,12 -22,16 -34,9l-347 -200c-4,-2 -7,-5 -9,-9l-347 -600c-6,-10 -5,-24 5,-33 10,-9 26,-7 35,3z"/>
  <path class="fil3" d="M15018 2044l0 -1218c0,-13 11,-24 25,-24 4,0 9,1 13,3l346 200c8,5 13,13 13,22l0 0 0 645 145 0c13,0 25,11 25,25 0,4 -2,8 -4,12l-200 347c-5,9 -14,13 -23,13l-315 0c-14,0 -25,-12 -25,-25zm49 -1174l0 1149 278 0 172 -297 -127 0c-14,0 -25,-12 -25,-25l0 -656 -298 -171z"/>
  <path class="fil3" d="M15402 4254l-347 200c-12,7 -27,3 -34,-9 -3,-4 -4,-9 -3,-13l0 -2041c0,-14 11,-25 25,-25l347 0c13,0 25,11 25,25l-1 1841c0,10 -5,18 -12,22zm-335 136l298 -172 0 -1802 -298 0 0 1974z"/>
  <path class="fil11" d="M15067 826l0 1193 292 0c10,0 18,5 22,12l200 347c7,12 3,27 -9,34 -4,3 -9,4 -14,4l-491 0 0 2017c0,14 -11,25 -24,25 -10,0 -18,-5 -22,-13l-347 -601c-3,-4 -4,-9 -3,-14l0 -3605c0,-13 11,-25 25,-25 9,0 17,6 22,14l346 600c2,4 3,8 3,12zm-49 1218l0 -1211 -298 -515 0 3507 298 515 0 -1949c0,-14 11,-25 25,-25l474 0 -172 -297 -302 0c-14,0 -25,-12 -25,-25z"/>
  <path class="fil3" d="M15274 931l-426 -492 213 369 213 123zm-560 -722l694 801c7,8 9,20 3,29 -7,12 -22,16 -34,9l-347 -200c-4,-2 -7,-5 -9,-9l-346 -600c-7,-10 -5,-24 4,-33 11,-9 26,-7 35,3z"/>
  <path class="fil3" d="M15781 2058l-200 345c-7,12 -22,16 -34,9 -4,-2 -7,-5 -9,-9l-200 -347c-5,-8 -4,-17 0,-25l200 -347c7,-12 22,-16 34,-9 4,2 7,6 9,9l201 347c5,9 4,19 -1,27zm-221 283l171 -297 -171 -297 -172 297 172 297z"/>
  <path class="fil3" d="M16778 3154l-347 600c-7,12 -22,16 -34,9 -8,-4 -12,-13 -12,-21l0 -2916c0,-13 11,-24 25,-24 4,0 9,1 13,3l346 200c8,5 12,13 12,22l0 2113c0,5 -1,10 -3,14zm-344 495l298 -515 0 -2093 -298 -171 0 2779z"/>
  <path class="fil6" d="M17635 2340l917 1589 285 493c7,12 3,27 -9,34 -4,3 -9,4 -13,4l-401 0c-9,0 -18,-6 -22,-14l-500 -866c-1,-3 -2,-5 -3,-7l-498 -863c-4,-8 -4,-18 0,-25l200 -347c7,-11 23,-16 35,-9 4,3 7,7 9,11zm874 1614l-896 -1553 -172 297 494 855c2,2 3,5 4,9l490 848 343 0 -263 -456z"/>
  <path class="fil0" d="M16434 826l0 2823 957 -1658c5,-8 13,-12 22,-12l0 0 401 0c13,0 25,11 25,25 0,5 -2,10 -5,14l-1403 2427c-7,12 -22,16 -34,9 -4,-2 -7,-5 -9,-9l-347 -601c-3,-4 -4,-9 -3,-14l0 -3605c0,-13 11,-25 25,-25 9,0 17,6 21,14l347 600c2,4 3,8 3,12zm-49 2916l0 -2909 -298 -515 0 3507 322 558 1361 -2354 -343 0 -996 1724c-4,8 -12,14 -22,14 -13,0 -24,-12 -24,-25z"/>
  <path class="fil3" d="M16641 931l-426 -492 213 369 213 123zm-560 -722l694 801c7,8 9,20 3,29 -7,12 -22,16 -34,9l-347 -200c-4,-2 -7,-5 -9,-9l-346 -600c-7,-10 -5,-24 4,-33 11,-9 26,-7 35,3z"/>
  <path class="fil3" d="M16389 4419l1002 -1734c7,-12 22,-16 34,-9 4,2 7,5 9,9l201 347c4,8 4,18 0,25l-803 1388c-5,8 -13,13 -22,13l-401 0c-13,0 -25,-11 -25,-25 0,-5 2,-10 5,-14zm1024 -1672l-960 1661 343 0 788 -1363 -171 -298z"/>
  <path class="fil3" d="M17836 1993l1200 2080c5,8 4,18 0,25l-201 347c-7,12 -22,16 -34,9 -4,-2 -7,-6 -10,-10l-1200 -2081c-4,-8 -4,-17 1,-25l200 -347c7,-12 22,-16 34,-9 4,3 8,6 10,11zm1150 2093l-1172 -2033 -172 298 1172 2032 172 -297z"/>
  <path class="fil12" d="M20916 2808l1698 -980 -297 -171 -2032 1173 2354 1359 0 -343 -1723 -994c-12,-7 -16,-23 -9,-35 2,-3 6,-6 9,-9zm1760 -958l-1697 980 1696 979c8,4 14,13 14,23l0 401c0,4 -1,8 -3,12 -7,12 -23,16 -35,9l-2429 -1402c-3,-3 -7,-6 -9,-10 -7,-12 -3,-27 9,-34l2081 -1201c8,-5 18,-6 26,-1l347 201c4,2 7,5 9,9 7,12 3,27 -9,34z"/>
  <path class="fil3" d="M20260 2873l0 343 2057 1188 297 -171 -2354 -1360zm-50 358l0 -401c0,-4 1,-9 3,-13 7,-11 22,-16 34,-9l2429 1403c4,2 7,5 10,9 6,12 2,27 -10,34l-345 200c-8,5 -18,5 -27,0l-2080 -1201c-9,-4 -14,-12 -14,-22z"/>
  <path class="fil13" d="M22639 2215l0 -344 -1660 959 297 172 1363 -787zm50 -387l0 401c0,9 -5,17 -13,22l-1388 801c-7,4 -17,5 -25,0l-347 -200c-3,-3 -7,-6 -9,-10 -7,-11 -3,-27 9,-34l1734 -1001c4,-2 9,-4 14,-4 14,0 25,11 25,25z"/>
  <path class="fil3" d="M13275 2029l-343 0 -1188 2057 172 297 1359 -2354zm-357 -50l401 0c4,0 8,1 12,3 12,7 16,22 9,34l-1402 2429c-3,4 -6,7 -10,9 -12,7 -27,3 -34,-9l-199 -345c-5,-8 -6,-18 -1,-27l1201 -2080c4,-9 13,-14 23,-14z"/>
  <path class="fil3" d="M12918 2748l-959 1660 343 0 194 -335c4,-8 13,-13 23,-12l1200 0c10,0 18,5 22,13l193 334 343 0 -372 -644 -1188 0c-13,0 -24,-12 -24,-25 0,-5 1,-9 3,-13l393 -681 -171 -297zm-1024 1672l1002 -1735c2,-3 5,-7 9,-9 12,-7 28,-3 34,9l200 346c5,8 6,18 1,26l-379 657 1159 0 0 0c8,0 17,4 21,12l400 692c3,4 4,9 4,15 0,14 -11,25 -25,25l-400 0 0 0c-9,0 -17,-5 -22,-13l-193 -334 -1173 0 -193 333c-4,8 -12,14 -22,14l-401 0c-4,0 -9,-1 -13,-4 -11,-6 -15,-22 -9,-34z"/>
  <path class="fil6" d="M13940 3725c1,1 2,2 2,3l378 655 172 -297 -1173 -2032 -172 297 793 1374zm-42 26l-801 -1388c-5,-8 -5,-17 0,-25l200 -347c7,-12 22,-16 34,-9 4,2 7,5 9,9l1202 2082c5,8 5,18 0,25l-200 347c-7,12 -22,16 -34,9 -4,-2 -7,-5 -9,-9l-401 -694z"/>
  <path class="fil14" d="M13304 3417l-372 0 -171 297 715 0 -172 -297zm-386 -50l357 0 -379 -657c-4,-7 -4,-17 0,-25l201 -347c2,-3 5,-7 9,-9 12,-7 27,-3 34,9l800 1387c3,4 5,9 5,14 0,14 -12,25 -25,25l-1201 0c-5,0 -10,-1 -14,-4 -12,-7 -16,-22 -9,-34l200 -347c5,-7 13,-12 22,-12zm615 347l343 0 -758 -1313 -171 297 586 1016z"/>
  <path class="fil3" d="M19841 4237l-347 200c-12,7 -27,3 -34,-9 -2,-4 -3,-9 -3,-13l0 -1602c0,-14 11,-25 25,-25 4,0 9,1 12,3l347 201c9,5 13,14 13,23l0 1200c0,10 -5,18 -13,22zm-334 136l297 -172 0 -1173 -297 -172 0 1517z"/>
  <path class="fil3" d="M19507 2814l0 1602c0,14 -11,25 -25,25 -9,0 -17,-5 -22,-13l-347 -601c-2,-4 -3,-9 -3,-14l0 -1601c0,-14 11,-25 25,-25 9,0 18,5 22,13l346 600c3,5 4,10 4,14zm-50 1509l0 -1503 -297 -515 0 1503 297 515z"/>
  <path class="fil3" d="M19110 966l0 -758c0,-13 11,-25 25,-25 9,0 18,6 22,14l346 600c3,4 4,8 4,12l0 0 0 758c0,13 -11,25 -25,25 -10,0 -19,-6 -23,-15l-346 -599c-2,-4 -3,-8 -3,-12zm50 -278l0 271 297 514 0 -657 -297 -515 0 387z"/>
  <path class="fil3" d="M19713 914l-426 -492 213 369 213 123zm-559 -722l694 801c6,8 8,20 2,29 -6,12 -22,16 -34,9l-347 -200c-3,-2 -6,-5 -9,-9l-346 -600c-7,-10 -5,-24 4,-32 11,-9 27,-8 36,2z"/>
  <path class="fil3" d="M19154 2196l694 801c9,10 8,26 -3,35 -8,7 -20,8 -29,3l-347 -200c-4,-3 -7,-7 -10,-11l-346 -600c-7,-12 -3,-27 9,-34 11,-6 24,-3 32,6zm559 722l-426 -492 213 369 213 123z"/>
  <path class="fil15" d="M19496 789l345 199c8,5 13,13 13,22l-1 357c0,9 -5,17 -13,22l-346 199c-12,7 -27,3 -34,-9 -2,-4 -3,-8 -3,-12l0 0 0 -758c0,-13 11,-25 25,-25 5,0 10,2 14,5zm308 235l-297 -171 0 670 296 -171 1 -328z"/>
  <path class="fil16" d="M4987 2393l0 0c4,0 8,1 12,3 12,7 16,23 10,34l-200 347 -43 -25 198 -344c4,-9 13,-15 23,-15z"/>
  <path class="fil17" d="M6386 4100l957 -1657 -2342 0 -171 296 1956 0c14,0 25,12 25,25 0,5 -1,9 -3,13l-593 1026 171 297zm422 -631l-399 691c-2,5 -6,8 -10,11 -12,7 -27,3 -34,-9l-200 -346c-4,-8 -5,-17 0,-25l499 -864c0,-1 1,-3 2,-4l77 -134 -1154 0 -2 0 -800 0c-4,0 -8,-1 -12,-3 -12,-7 -16,-22 -9,-34l199 -346c5,-8 13,-13 22,-13l2399 0c4,0 9,1 12,3 12,7 16,23 10,35l-600 1038z"/>
 </g>
</svg>
