<?xml version="1.0" encoding="UTF-8"?>
<!DOCTYPE svg PUBLIC "-//W3C//DTD SVG 1.1//EN" "http://www.w3.org/Graphics/SVG/1.1/DTD/svg11.dtd">
<!-- Creator: CorelDRAW X8 -->
<svg xmlns="http://www.w3.org/2000/svg" xml:space="preserve" width="100%" height="100%" version="1.1" style="shape-rendering:geometricPrecision; text-rendering:geometricPrecision; image-rendering:optimizeQuality; fill-rule:evenodd; clip-rule:evenodd"
viewBox="0 0 358 420" xmlns:xlink="http://www.w3.org/1999/xlink">
 <defs>
  <style type="text/css">
   <![CDATA[
    .fil0 {fill:#fff}
   ]]>
  </style>
 </defs>
 <g id="Layer_x0020_1">
  <metadata id="CorelCorpID_0Corel-Layer"/>
  <path class="fil0" d="M81 120c-2,15 -1,31 2,45l2 9c5,18 5,17 13,32 0,1 1,2 2,3 1,3 2,5 4,7l7 9c0,1 1,2 2,3 2,3 9,9 10,11 -6,1 -11,6 -14,11l-47 59c-4,5 -7,9 -11,15l-6 7c-1,1 -2,2 -3,4 -1,1 -2,2 -3,4 -5,5 -8,7 -9,18 -7,1 -12,7 -15,12 -8,11 -18,19 -14,34 1,5 5,10 10,13 8,5 16,5 24,0 5,-2 11,-10 15,-15 4,-7 9,-11 10,-21 5,0 9,-4 12,-7 4,-4 12,-16 17,-22l14 -18c2,-3 4,-5 6,-8 2,-2 4,-4 6,-7l17 -22c1,-1 2,-2 3,-3 1,-2 2,-3 3,-4 5,-7 14,-16 15,-25 0,-2 0,-2 0,-4l7 4c3,1 5,2 8,3 25,10 55,13 82,7 2,-1 4,-2 7,-3 6,-1 13,-4 18,-6 5,-2 10,-5 14,-7 1,-1 2,-1 3,-2 4,-3 8,-6 12,-8l12 -11c1,-1 1,-1 2,-2l17 -21 8 -14c11,-22 17,-53 13,-79l-1 -10c-3,-14 -7,-23 -13,-36 -8,-16 -20,-30 -34,-43 -6,-5 -14,-10 -21,-14 -30,-17 -63,-22 -97,-15 -5,1 -8,2 -13,3 -12,3 -23,10 -33,16 -5,2 -9,6 -13,9 -9,7 -12,11 -19,19 -5,5 -8,10 -11,15 -10,16 -17,36 -20,55zm122 114c18,2 28,1 44,-3 8,-2 17,-6 23,-11l8 -4c0,-1 4,-4 6,-6 0,-1 2,-1 3,-2 6,-7 11,-13 15,-21 3,-5 4,-6 7,-12 6,-14 8,-34 6,-49 -2,-13 -5,-22 -11,-34 -1,-1 -1,-2 -2,-3 -1,-2 -2,-3 -2,-4 -2,-3 -4,-6 -7,-9l-7 -7c-1,-1 -2,-2 -3,-3l-10 -8c-1,-1 -3,-2 -4,-3 -2,-1 -5,-3 -8,-4 -9,-5 -20,-8 -30,-9 -3,-1 -7,-1 -11,-1 -3,0 -7,0 -10,1 -6,0 -14,2 -19,3 -8,3 -17,6 -24,11l-5 4c-2,1 -3,2 -5,4 -4,3 -6,4 -9,9 -9,9 -15,18 -20,30 -4,12 -5,20 -6,32 -1,7 0,14 1,20 2,11 7,24 13,34 1,1 1,2 2,3l8 10c4,5 4,5 9,10 9,7 17,12 27,16 6,3 15,5 21,6z"/>
 </g>
</svg>
