<?xml version="1.0" encoding="UTF-8"?>
<!DOCTYPE svg PUBLIC "-//W3C//DTD SVG 1.1//EN" "http://www.w3.org/Graphics/SVG/1.1/DTD/svg11.dtd">
<!-- Creator: CorelDRAW X8 -->
<svg xmlns="http://www.w3.org/2000/svg" xml:space="preserve" width="100%" height="100%" version="1.1" style="shape-rendering:geometricPrecision; text-rendering:geometricPrecision; image-rendering:optimizeQuality; fill-rule:evenodd; clip-rule:evenodd"
viewBox="0 0 1869 1151"
 xmlns:xlink="http://www.w3.org/1999/xlink">
 <defs>
  <style type="text/css">
   <![CDATA[
    .fil0 {fill:white}
   ]]>
  </style>
 </defs>
 <g id="ticket">
  <metadata id="CorelCorpID_0Corel-Layer"/>
  <g id="_759472288">
   <g>
    <path class="fil0" d="M1133 502c0,26 0,34 4,60 7,56 31,124 64,168 3,4 6,8 9,12 16,22 30,36 50,55 3,4 3,3 7,6 25,19 35,31 69,47l30 16c38,16 92,30 134,30 70,0 108,-3 172,-30l43 -23c4,-2 7,-3 11,-6 4,-2 6,-4 10,-6l37 -29c15,-11 35,-35 48,-50 9,-12 35,-47 39,-60 -7,-2 -16,-9 -24,-13l-71 -41c-33,-18 -62,-37 -95,-54l-17 27c-11,14 -22,25 -37,36 -14,9 -22,14 -38,20 -41,16 -94,13 -133,-6 -8,-5 -16,-10 -25,-16 -25,-18 -39,-39 -53,-67 -38,-74 -1,-177 76,-215 55,-28 119,-24 170,10 15,9 47,41 51,58 10,-1 40,-22 49,-27l116 -69c6,-4 19,-12 25,-14 -1,-5 -2,-6 -4,-10 -23,-36 -63,-84 -98,-108l-38 -26c-4,-2 -6,-3 -10,-5 -4,-3 -6,-4 -11,-6l-44 -19c-17,-5 -32,-10 -50,-14 -75,-15 -142,-8 -213,15 -28,10 -68,31 -92,49 -4,4 -8,6 -12,10 -3,2 -5,3 -7,4 -3,3 -4,4 -6,7 -3,2 -3,1 -7,4 -20,18 -56,58 -69,82 -29,50 -49,94 -56,154 -2,15 -4,27 -4,44z"/>
    <path class="fil0" d="M719 332l-161 -23c-20,-3 -14,-8 -23,47 -10,63 0,46 -25,50l-50 5c-8,1 0,0 -8,1 -2,1 -7,0 -9,0 -9,2 -3,8 -1,30 0,6 1,9 2,16l4 32c4,25 -9,15 72,8 3,-31 12,-49 23,-72 3,-5 4,-8 8,-12 29,-37 74,-69 122,-69 46,0 76,4 114,32 11,9 21,19 30,30 13,17 13,17 23,38 28,56 13,136 -32,180 -8,8 -12,13 -21,20 -4,2 -8,5 -12,8 -111,67 -255,-11 -255,-142l-82 2 2 91 95 0 0 102 -66 0c2,-5 9,-90 9,-90 -3,-4 -19,-4 -22,-4l-47 -4c-11,0 -13,-2 -24,-2l-9 93c11,0 24,2 35,3 12,2 23,2 36,2l-18 2 0 86c0,8 3,9 7,12 14,11 18,16 38,29 20,13 34,21 55,30 119,54 262,42 370,-29l75 -64 21 -27c4,-5 7,-8 10,-13 47,-71 68,-139 68,-226 0,-55 -17,-119 -37,-158l-24 -43c-16,-25 -47,-65 -70,-82l-64 -46c-5,-2 -9,-4 -14,-7 -15,-10 -61,-26 -80,-31 -12,-3 -24,-5 -36,-7 -3,14 -5,33 -7,49 -3,22 -22,139 -22,153z"/>
    <path class="fil0" d="M137 308l73 15 -7 71 69 8c11,0 14,1 24,1 0,-18 8,-77 9,-93l-71 -7c0,-10 5,-24 6,-33 3,-11 6,-25 6,-35l-78 -16c-1,4 -29,69 -31,89z"/>
    <path class="fil0" d="M230 449c0,13 3,35 5,46l4 47c7,0 20,-1 27,-3 5,-1 21,-2 26,-2 0,20 -4,39 -4,60 8,0 12,1 22,2l71 5c0,-12 2,-17 2,-29 0,-9 2,-8 2,-29 -9,-3 -28,-29 -35,-39l-18 0c-3,-7 -9,-60 -9,-67 -19,0 -50,5 -69,7l-24 2z"/>
    <path class="fil0" d="M1622 1150l31 0 2 -68c0,9 6,26 8,34 2,11 6,22 9,34 38,0 29,11 43,-46 1,-5 2,-7 3,-12 0,0 1,-6 1,-6l4 -6c-1,6 -2,7 -2,13 0,68 -9,57 31,57 4,-18 2,-87 2,-110 0,-9 -21,-5 -48,-5 -1,10 -16,62 -16,76l-4 0c0,-13 -9,-41 -12,-57 -2,-7 -4,-13 -4,-19l-48 0 0 115z"/>
    <path class="fil0" d="M507 1040l0 104c0,9 11,6 31,6l0 -70c6,4 24,42 30,53 4,6 7,11 10,17l39 0 0 -115 -31 0 0 60c0,6 1,7 2,13 -5,-4 -3,-2 -6,-8l-36 -65c-23,0 -39,-4 -39,5z"/>
    <path class="fil0" d="M608 221l0 84c0,4 1,5 5,5l84 0c4,0 6,-1 6,-5l0 -84c0,-4 -2,-6 -6,-6l-84 0c-4,0 -5,2 -5,6z"/>
    <path class="fil0" d="M392 294c0,23 9,67 11,93 5,-1 17,-2 23,-3l70 -8 -5 -46c-1,-14 -6,-32 -6,-47l-69 8c-5,0 -18,2 -24,3z"/>
    <path class="fil0" d="M480 182l24 90c8,0 15,-2 23,-4l68 -20 -24 -89 -91 23z"/>
    <path class="fil0" d="M620 164c9,2 13,7 21,11 8,3 13,6 21,10l20 11c7,3 15,9 22,10l42 -82c-15,-8 -70,-33 -85,-33 -4,0 -18,30 -21,36l-20 37z"/>
    <path class="fil0" d="M77 449c0,7 4,11 9,21 5,8 35,59 40,59 6,0 29,-12 36,-15l37 -16c-1,-5 -2,-5 -4,-10l-14 -32c-4,-11 -17,-35 -19,-44 -7,2 -77,35 -85,37z"/>
    <path class="fil0" d="M1288 1080c-17,4 -11,4 -29,4 0,-27 -6,-30 29,-22 1,5 4,10 0,18zm-60 70l31 0 0 -44c40,0 20,16 35,44l31 0c-1,-10 -5,-9 -7,-31 -2,-19 -10,-19 -15,-26 27,-6 34,-58 -22,-58l-53 0 0 115z"/>
    <path class="fil0" d="M323 172c3,4 13,10 18,14l57 42c9,-13 52,-65 55,-77l-42 -29c0,-1 -2,-2 -3,-3l-3 -2c-9,2 -18,2 -29,4 -2,0 -11,1 -14,2 -6,2 -6,4 -9,9l-30 40z"/>
    <path class="fil0" d="M266 724c1,9 6,17 11,25 3,4 4,6 6,10 2,5 4,7 7,12 5,10 3,8 20,13 9,3 20,6 29,8 18,-9 35,-20 53,-29l-11 -20c-5,-9 -31,-54 -32,-60 -11,0 -5,-1 -11,3l-61 33c-4,3 -4,4 -11,5z"/>
    <path class="fil0" d="M1405 1128c-28,0 -29,-20 -29,-42 0,-37 53,-48 53,9 0,16 -8,33 -24,33zm-2 23l-5 0c-28,0 -55,-19 -55,-60 0,-6 3,-19 5,-24 10,-28 32,-34 59,-34 29,0 53,22 53,51l0 18c0,30 -28,49 -57,49z"/>
    <path class="fil0" d="M1513 1095c0,-17 2,-38 26,-39 35,-3 36,72 3,72 -9,0 -17,-1 -23,-10 -4,-6 -6,-14 -6,-23zm32 56l-12 0c-7,0 -14,-2 -20,-5 -13,-5 -24,-17 -29,-30 -1,-5 -4,-20 -4,-25 0,-3 3,-19 4,-23 11,-31 36,-35 63,-35 35,0 55,39 51,63 -2,13 -4,29 -17,40 -10,9 -23,14 -36,15z"/>
    <path class="fil0" d="M203 1128c-21,0 -31,-11 -31,-35 0,-52 54,-48 54,-2 0,16 -8,37 -23,37zm0 23l-11 0c-26,-2 -51,-19 -51,-62 0,-17 5,-30 15,-39 16,-17 25,-17 48,-17 56,0 67,72 38,102 -9,9 -24,15 -39,16z"/>
    <path class="fil0" d="M47 161l66 19c9,3 13,6 24,6 1,-13 25,-75 25,-89 -11,-1 -46,-15 -51,-15 -4,0 -18,9 -22,12 -32,20 -21,-5 -34,38 -3,9 -8,17 -8,29z"/>
    <path class="fil0" d="M394 1040l0 104c0,4 1,6 6,6l78 0c8,0 6,-6 6,-20 0,-5 -2,-6 -6,-6l-51 0 0 -20 51 0c0,-33 9,-25 -51,-25l0 -21 55 0 0 -23 -82 0c-5,0 -6,1 -6,5z"/>
    <path class="fil0" d="M933 1066c1,8 6,22 9,29l-19 0 7 -26c2,-2 2,-2 3,-3zm-28 84l10 -29 34 -1 9 30 33 0c0,-7 -7,-24 -9,-30 -2,-4 -3,-8 -5,-13l-21 -57c-2,-5 -3,-11 -5,-15l-37 0c-7,13 -30,85 -38,104 -6,13 -5,11 29,11z"/>
    <path class="fil0" d="M1838 1119c-5,8 -5,9 -17,9 -10,0 -14,-7 -16,-15l-31 0c0,26 22,37 45,38l7 0c22,-1 43,-11 43,-29l0 -4c0,-13 -2,-27 -24,-34 -7,-3 -35,-8 -35,-16 0,-18 24,-16 26,3l31 0c-1,-38 -43,-45 -69,-34 -14,6 -26,25 -17,45 11,26 45,14 57,37z"/>
    <path class="fil0" d="M1115 1062c0,31 11,35 44,44 33,9 3,32 -13,18 -5,-5 -3,-5 -5,-11l-31 0c3,16 2,18 14,28 6,6 17,10 28,10l10 0c22,-1 44,-12 44,-32 0,-42 -47,-36 -57,-48 -6,-7 0,-21 16,-13 7,3 6,7 8,13l30 0c0,-9 -2,-16 -9,-24 -3,-5 0,-1 -4,-5 -24,-19 -75,-8 -75,20z"/>
    <path class="fil0" d="M1004 1066c0,18 7,26 20,32 17,8 20,3 38,15l-2 13c-10,2 -27,5 -29,-13l-31 0c0,23 20,36 41,38l15 0c21,-2 39,-14 39,-36 0,-17 -10,-25 -23,-30 -20,-10 -35,-4 -35,-25 12,-8 21,-5 25,11l31 0c-5,-56 -89,-45 -89,-5z"/>
    <path class="fil0" d="M642 1086c0,20 1,37 16,51 10,9 23,14 37,14l7 0c24,-1 47,-15 48,-43l-31 0c-4,18 -10,20 -24,20 -21,0 -24,-37 -18,-55 7,-23 40,-24 42,2l31 0c0,-25 -21,-42 -46,-42 -25,0 -47,6 -57,32 -3,5 -5,14 -5,21z"/>
    <path class="fil0" d="M321 1086c-11,0 -9,1 -9,-22 0,-10 30,-7 31,7 0,13 -11,15 -22,15zm-40 58c0,9 10,6 31,6l0 -40c35,0 62,2 62,-42 0,-42 -60,-33 -93,-33l0 109z"/>
    <path class="fil0" d="M473 27c-3,11 -12,30 -15,41l88 32c1,-6 5,-13 7,-18 4,-10 19,-51 20,-58 -35,0 -57,-7 -100,3z"/>
    <path class="fil0" d="M58 593l0 4c16,10 73,36 93,36l0 -80 -93 0 0 40z"/>
    <path class="fil0" d="M173 673c16,9 73,22 95,24 5,-3 5,-3 8,-7l18 -26c-4,-5 -11,-10 -17,-14l-56 -40c-6,0 -5,2 -7,5 -6,8 -39,52 -41,58z"/>
    <path class="fil0" d="M223 60c3,5 9,7 15,11l34 20c6,4 11,8 18,9l46 -78 -33 -22c-9,0 -71,46 -80,60z"/>
    <path class="fil0" d="M774 1144c0,4 1,6 5,6l79 0c7,0 5,-7 5,-22 0,-4 -1,-6 -5,-6l-53 0 0 -87 -31 0 0 109z"/>
    <path class="fil0" d="M372 66l0 3c17,2 36,10 53,11l9 -38c-14,0 -49,21 -62,24z"/>
    <path class="fil0" d="M201 181l33 16c2,-4 3,-7 5,-11l13 -24c3,-5 5,-5 5,-12 -9,2 -21,9 -30,13 -14,7 -24,9 -26,18z"/>
    <path class="fil0" d="M0 350c36,-17 41,0 27,-38 -2,-6 -7,-17 -9,-24 -9,7 -18,52 -18,62l0 0z"/>
    <path class="fil0" d="M192 734l25 16c4,3 8,5 13,8 4,3 9,6 15,7l-19 -48c-7,1 -12,4 -19,6 -15,6 -14,4 -15,11z"/>
   </g>
  </g>
 </g>
</svg>
