<?xml version="1.0" encoding="UTF-8"?>
<!DOCTYPE svg PUBLIC "-//W3C//DTD SVG 1.1//EN" "http://www.w3.org/Graphics/SVG/1.1/DTD/svg11.dtd">
<!-- Creator: CorelDRAW X8 -->
<svg xmlns="http://www.w3.org/2000/svg" xml:space="preserve" width="100%" height="100%" version="1.1" style="shape-rendering:geometricPrecision; text-rendering:geometricPrecision; image-rendering:optimizeQuality; fill-rule:evenodd; clip-rule:evenodd"
viewBox="0 0 3835 1143" xmlns:xlink="http://www.w3.org/1999/xlink">
 <defs>
  <style type="text/css">
   <![CDATA[
	
	.str0 {
	stroke:#fff;
	stroke-width:15;
	stroke-linejoin:round;
	fill:white;
	fill-opacity:0;	
	stroke-dasharray:0 4170;
	animation: dash 6s linear forwards;
	}	
 
@keyframes dash{
	0%  {stroke-dasharray:0 4170;fill-opacity:0;}
	80%{stroke-dasharray:4170 0;fill-opacity:0;stroke-opacity:1;}
	100%{stroke-dasharray:4170 0;fill-opacity:1;stroke-opacity:0;}
	}
	
    .fil0 {fill:url(#id0);fill-opacity:0;animation: fillfade 1s linear 3s forwards;}
	
@keyframes fillfade{
	0%  {fill-opacity:0;}
	100%{fill-opacity:1;}
	}	
   ]]>
  </style>
<!-- 
<script type="text/javascript">
<![CDATA[
window.onload = function(){
var path,length,lenround1; 
path = document.querySelector('.str0');
length = path.getTotalLength();
lenround1 = Math.round(length);
console.log(lenround1); 
};
]]>
</script>-->	
  
  <linearGradient id="id0" gradientUnits="userSpaceOnUse" x1="1846.78" y1="-34.22" x2="1988.62" y2="1177.22">
   <stop offset="0" style="stop-opacity:1; stop-color:#FF6600"/>
   <stop offset="1" style="stop-opacity:1; stop-color:#9E0808"/>
  </linearGradient>
 </defs>
 <g id="Layer_x0020_1">
  <metadata id="CorelCorpID_0Corel-Layer"/>
  <path class="fil0" d="M0,0 3835,0 3835,1143 0,1143 z"/>
  <path class="fil1 str0" d="M758 150c245,0 444,199 444,444 0,246 -199,445 -444,445 -246,0 -445,-199 -445,-445 0,-245 199,-444 445,-444zm-127 136l-9 0c-8,11 -6,16 -6,33 0,22 2,102 -1,112 -18,5 -18,-7 -18,-23l-2 -87c0,-18 4,-22 -6,-35l-8 0c-9,10 -7,15 -7,31 0,25 2,97 0,113 -24,13 -19,-22 -21,-63 -1,-15 -1,-29 -1,-44 0,-17 4,-26 -7,-37l-7 0c-9,10 -7,9 -7,24l-10 87c-4,29 -10,54 18,70 6,4 17,6 23,11 -2,80 -12,162 -24,240 -5,35 -14,75 -24,107 -6,19 -14,36 0,51 37,43 132,21 117,-34 -10,-36 -17,-74 -22,-112 -10,-84 -13,-165 -14,-251 1,-3 5,-4 10,-6 43,-13 40,-39 38,-70 -2,-26 -6,-66 -6,-91 0,-15 2,-19 -6,-26zm111 616l30 0c8,-5 51,-11 48,-40l-20 -69c-27,-108 -29,-215 -29,-326 0,-29 0,-59 1,-88 1,-21 7,-68 5,-85 -16,-9 -26,1 -34,10 -21,22 -34,83 -39,114 -11,65 -10,128 -8,195 36,13 38,22 34,66 -5,53 -15,121 -33,171 -14,42 34,46 45,52z"/>
  <path class="fil2 str0" d="M2044 573c55,30 82,81 82,151l0 284 -233 0 0 -241c0,-23 -5,-43 -16,-60 -12,-22 -29,-33 -51,-33l-111 0 0 334 -234 0 0 -890 385 0c75,0 137,24 187,74 49,49 74,111 74,187 0,77 -28,142 -83,194zm-220 -254l-109 0 0 148 109 0c20,0 36,-7 49,-22 13,-14 19,-30 19,-50 0,-20 -6,-38 -19,-54 -13,-14 -29,-22 -49,-22z"/>
  <path class="fil2 str0" d="M2286 398l6 1c1,0 2,0 3,0 13,0 27,-9 41,-25l56 31c-22,41 -55,61 -99,61 -31,0 -57,-10 -77,-31 -20,-21 -31,-47 -31,-78 0,-32 11,-58 32,-79 22,-21 48,-32 80,-32 23,0 44,7 62,20 18,13 30,31 37,53l-110 79zm-5 -1l-26 -34 62 -45c-6,-4 -13,-7 -20,-7 -13,0 -23,5 -32,14 -8,9 -13,20 -13,32 0,9 3,17 8,24 5,8 12,13 21,16z"/>
  <path id="1" class="fil2 str0" d="M2557 463l0 -101c0,-13 -3,-23 -9,-32 -7,-9 -17,-14 -29,-14 -11,0 -20,4 -28,11 -7,8 -11,17 -11,28 0,12 4,22 13,29 8,8 18,12 30,12 8,0 17,-3 28,-10l0 74c-15,5 -27,8 -37,8 -31,0 -56,-11 -76,-32 -20,-21 -30,-47 -30,-77 0,-33 11,-60 33,-81 21,-22 48,-33 80,-33 32,0 58,11 79,34 19,21 29,48 29,81l0 103 -72 0z"/>
  <path id="2" class="fil2 str0" d="M2755 466c-2,0 -4,0 -6,0 -27,0 -50,-9 -69,-29 -21,-20 -32,-45 -32,-75 0,-31 10,-58 30,-80 20,-23 45,-35 76,-35 5,0 13,1 23,3l0 71c-9,-3 -14,-4 -18,-4 -10,0 -19,4 -26,12 -6,8 -10,17 -10,28 0,11 4,20 11,28 7,7 15,11 27,11 3,0 9,-1 16,-2l0 71 -22 1z"/>
  <path id="3" class="fil2 str0" d="M2888 464c-3,0 -6,0 -9,0 -24,0 -43,-7 -57,-23 -16,-16 -23,-39 -23,-67l0 -177 67 0 0 52 33 0 0 68 -33 0 0 57c0,15 8,22 23,22l10 -1 0 68 -11 1z"/>
  <path id="4" class="fil2 str0" d="M2942 239c-11,0 -20,-5 -27,-13 -7,-9 -11,-18 -11,-30 0,-11 4,-21 11,-29 7,-9 16,-13 27,-13 11,0 20,4 28,13 7,8 11,18 11,29 0,12 -4,21 -11,30 -8,8 -17,13 -28,13zm-33 224l0 -215 67 0 0 215 -67 0z"/>
  <path id="5" class="fil2 str0" d="M3090 467c-20,0 -37,-6 -52,-18 -15,-12 -24,-28 -28,-47l-26 -151 73 0 21 133c1,11 5,17 12,17 6,0 10,-6 12,-17l21 -133 72 0 -26 151c-3,19 -12,34 -27,47 -15,12 -33,18 -52,18z"/>
  <path id="6" class="fil2 str0" d="M3302 398l6 1c0,0 1,0 2,0 14,0 27,-9 41,-25l56 31c-21,41 -54,61 -99,61 -31,0 -56,-10 -77,-31 -20,-21 -31,-47 -31,-78 0,-32 11,-58 33,-79 21,-21 47,-32 79,-32 23,0 44,7 62,20 18,13 30,31 37,53l-109 79zm-6 -1l-26 -34 62 -45c-6,-4 -13,-7 -20,-7 -12,0 -23,5 -32,14 -8,9 -13,20 -13,32 0,9 3,17 8,24 6,8 13,13 21,16z"/>
  <path id="7" class="fil2 str0" d="M2286 902l6 1c1,0 2,0 3,0 13,0 27,-9 41,-25l56 31c-22,41 -55,61 -99,61 -31,0 -57,-10 -77,-31 -20,-21 -31,-47 -31,-78 0,-32 11,-58 32,-79 22,-21 48,-32 80,-32 23,0 44,7 62,20 18,13 30,31 37,53l-110 79zm-5 -1l-26 -34 62 -45c-6,-4 -13,-6 -20,-6 -13,0 -23,4 -32,13 -8,9 -13,20 -13,32 0,9 3,17 8,24 5,8 12,13 21,16z"/>
  <path id="8" class="fil2 str0" d="M2505 971c-20,0 -37,-6 -52,-18 -15,-12 -24,-28 -28,-47l-26 -151 73 0 21 133c1,11 5,17 12,17 6,0 10,-6 12,-17l21 -133 72 0 -26 151c-3,19 -12,35 -27,47 -15,12 -33,18 -52,18z"/>
  <path id="9" class="fil2 str0" d="M2652 743c-11,0 -20,-5 -27,-13 -8,-8 -11,-18 -11,-30 0,-11 3,-21 11,-29 7,-8 16,-13 27,-13 11,0 20,5 27,13 8,8 11,18 11,29 0,12 -3,22 -11,30 -7,8 -16,13 -27,13zm-33 224l0 -215 66 0 0 215 -66 0z"/>
  <path id="10" class="fil2 str0" d="M2804 902l6 1c1,0 2,0 3,0 13,0 27,-9 40,-25l57 31c-22,41 -55,61 -99,61 -31,0 -57,-10 -77,-31 -21,-21 -31,-47 -31,-78 0,-32 11,-58 32,-79 21,-21 48,-32 80,-32 23,0 44,7 62,20 17,13 30,31 37,53l-110 79zm-5 -1l-26 -34 62 -45c-6,-4 -13,-6 -21,-6 -12,0 -22,4 -31,13 -9,9 -13,20 -13,32 0,9 3,17 8,24 5,8 12,13 21,16z"/>
  <path id="11" class="fil2 str0" d="M3133 972c-23,0 -41,-7 -54,-21 -13,14 -31,21 -54,21 -14,0 -28,-3 -41,-8 -35,-14 -52,-42 -52,-85l0 -124 72 0 0 127c0,16 7,24 20,24 13,0 20,-8 20,-24l0 -127 70 0 0 127c0,16 7,24 20,24 13,0 20,-8 20,-24l0 -127 72 0 0 124c0,43 -17,71 -52,85 -14,5 -27,8 -41,8z"/>
  <path id="12" class="fil2 str0" d="M3273 971c-6,0 -14,-1 -23,-3l1 -63c6,2 10,2 12,2 8,0 13,-2 13,-8 0,-1 -1,-3 -2,-6l-24 -56c-3,-8 -5,-16 -5,-24 0,-19 7,-34 20,-46 12,-10 28,-16 48,-16l9 0c0,0 0,0 0,0 0,0 8,1 23,2l-1 64c-6,-2 -10,-3 -12,-3 -2,0 -5,1 -8,2 -3,2 -5,4 -5,6 0,2 1,4 2,6l24 57c3,8 5,16 5,24 0,5 -1,10 -2,16 -10,31 -35,46 -75,46z"/>
 </g>
</svg>

