<?xml version="1.0" encoding="UTF-8"?>
<!DOCTYPE svg PUBLIC "-//W3C//DTD SVG 1.1//EN" "http://www.w3.org/Graphics/SVG/1.1/DTD/svg11.dtd">

<svg xmlns="http://www.w3.org/2000/svg" xml:space="preserve" width="100%" height="100%" version="1.1" style="shape-rendering:geometricPrecision; text-rendering:geometricPrecision; image-rendering:optimizeQuality; fill-rule:evenodd; clip-rule:evenodd"
viewBox="0 0 1199 218" xmlns:xlink="http://www.w3.org/1999/xlink">
 <defs>
  <style type="text/css">
   <![CDATA[
    .str0 {stroke:black;stroke-width:16.93}
    .fil1 {fill:none}
    .fil0 {fill:url(#id1)}
   ]]>
  </style>
   <clipPath id="id0">
    <path d="M115 28l21 64 67 0 -55 40 22 64 -55 -40 -55 40 21 -64 -55 -40 68 0 21 -64zm970 0l20 64 68 0 -55 40 21 64 -54 -40 -55 40 21 -64 -55 -40 68 0 21 -64zm-243 0l21 64 68 0 -55 40 21 64 -55 -40 -55 40 21 -64 -54 -40 67 0 21 -64zm-242 0l20 64 68 0 -55 40 21 64 -54 -40 -55 40 21 -64 -55 -40 68 0 21 -64zm-243 0l21 64 68 0 -55 40 21 64 -55 -40 -55 40 22 -64 -55 -40 67 0 21 -64z"/>
   </clipPath>
  <linearGradient id="id1" gradientUnits="userSpaceOnUse" x1="4.72" y1="113.13" x2="1198.52" y2="113.13">
   <stop offset="0" style="stop-opacity:1; stop-color:#FF6500"/>
   <stop offset="1" style="stop-opacity:1; stop-color:yellow"/>
  </linearGradient>
 </defs>
   <g style="clip-path:url(#id0)">
   <g>
    <rect class="fil0" x="0" y="0" width="1200" height="218"/>
   </g>
  </g>
  <path class="fil1 str0" d="M115 28l21 64 67 0 -55 40 22 64 -55 -40 -55 40 21 -64 -55 -40 68 0 21 -64zm970 0l20 64 68 0 -55 40 21 64 -54 -40 -55 40 21 -64 -55 -40 68 0 21 -64zm-243 0l21 64 68 0 -55 40 21 64 -55 -40 -55 40 21 -64 -54 -40 67 0 21 -64zm-242 0l20 64 68 0 -55 40 21 64 -54 -40 -55 40 21 -64 -55 -40 68 0 21 -64zm-243 0l21 64 68 0 -55 40 21 64 -55 -40 -55 40 22 -64 -55 -40 67 0 21 -64z"/>
</svg>
